<svg version="1.1" xmlns="http://www.w3.org/2000/svg" width="1145" height="298" viewBox="0 0 1145 298">
<g transform="translate(0.000000,298.000000) scale(0.100000,-0.100000)"
fill="#000000" stroke="none">
<path d="M588 2753 c-22 -6 -22 -12 -2 -102 15 -66 15 -78 -1 -169 -24 -137
-80 -351 -109 -414 -13 -29 -38 -71 -55 -93 -28 -34 -32 -45 -26 -75 18 -103
16 -125 -25 -290 -55 -220 -83 -313 -137 -449 -36 -90 -42 -115 -31 -122 17
-11 349 -11 366 -1 10 7 10 22 0 80 -9 57 -9 87 0 142 19 111 33 136 78 143
56 10 317 8 332 -2 16 -10 50 -119 58 -187 4 -30 1 -74 -6 -104 -7 -29 -9 -55
-4 -60 26 -24 394 -21 394 4 0 6 -23 65 -51 131 -28 66 -61 158 -74 205 -13
47 -39 143 -59 214 -37 134 -47 246 -25 287 14 27 5 50 -41 106 -49 59 -94
190 -145 420 l-35 163 26 76 c37 107 43 104 -210 103 -111 -1 -209 -3 -218 -6z
m241 -680 c18 -65 44 -160 59 -211 20 -73 23 -95 13 -105 -13 -13 -204 -18
-216 -5 -7 7 24 154 71 335 13 50 24 94 24 97 0 3 4 6 9 6 5 0 23 -53 40 -117z"/>
<path d="M1528 2755 c-4 -4 0 -25 8 -46 32 -93 44 -212 44 -445 l0 -232 -29
-56 -30 -56 31 -59 31 -59 1 -259 c1 -261 -9 -363 -40 -425 -8 -15 -14 -38
-14 -51 0 -24 3 -25 90 -31 92 -8 287 1 294 13 3 4 -6 49 -20 100 -21 83 -24
114 -24 286 0 178 1 193 20 210 27 25 88 14 116 -20 11 -14 38 -79 59 -143 21
-64 49 -151 63 -192 19 -56 26 -97 26 -160 l1 -85 124 -8 c69 -5 153 -6 188
-2 58 6 63 8 63 31 0 14 -11 46 -24 72 -36 72 -78 180 -141 369 l-58 173 54
57 c76 80 94 115 114 213 15 71 17 120 12 295 -6 234 -17 297 -65 372 -42 66
-79 99 -132 120 -39 15 -92 18 -400 21 -196 2 -358 0 -362 -3z m633 -364 l29
-29 0 -146 c0 -79 -4 -156 -10 -170 -6 -17 -21 -28 -47 -35 -48 -14 -203 -14
-237 -1 l-26 10 0 180 c0 106 4 189 10 201 10 17 22 19 131 19 120 0 121 0
150 -29z"/>
<path d="M2879 2746 c-75 -20 -138 -75 -179 -157 -28 -55 -48 -190 -55 -384
-6 -153 -9 -176 -32 -227 l-26 -58 22 -51 c18 -40 24 -83 32 -207 19 -319 28
-393 55 -452 48 -104 122 -158 237 -170 85 -10 96 -20 158 -150 23 -47 43 -87
45 -89 11 -12 137 -20 212 -14 76 5 82 7 82 28 0 11 -20 61 -45 109 -25 49
-45 94 -45 101 0 7 12 16 28 19 45 11 117 66 150 115 38 56 62 160 62 274 0
45 5 146 10 225 8 114 15 156 34 204 l25 61 -26 56 c-25 53 -27 68 -35 264
-11 285 -34 366 -127 450 -63 57 -114 67 -340 66 -122 0 -213 -5 -242 -13z
m386 -352 c19 -20 25 -40 30 -107 11 -133 1 -818 -13 -849 -18 -43 -47 -52
-162 -53 -125 0 -154 12 -167 72 -4 21 -8 227 -8 458 0 447 2 471 48 493 12 6
73 11 135 11 109 1 114 0 137 -25z"/>
<path d="M3712 2751 c-12 -7 -10 -24 10 -97 21 -83 23 -108 23 -354 l0 -265
-29 -58 -28 -59 26 -51 c25 -50 26 -63 36 -294 10 -243 20 -324 41 -366 39
-74 72 -107 136 -139 l68 -33 210 0 c209 0 210 0 267 28 101 50 154 131 168
260 6 45 14 180 19 300 8 195 11 221 31 254 l21 36 -23 51 c-22 49 -23 60 -23
336 0 245 3 295 19 357 10 40 16 80 12 88 -4 12 -33 15 -168 15 -90 0 -169 -4
-177 -9 -9 -6 -12 -19 -8 -37 37 -178 38 -208 39 -694 0 -339 -3 -503 -12
-543 -16 -81 -36 -92 -166 -92 -118 0 -152 16 -167 76 -11 44 -15 810 -5 994
4 91 14 165 27 210 19 65 19 71 4 83 -20 14 -329 17 -351 3z"/>
<path d="M4814 2747 c-2 -7 3 -40 12 -73 14 -48 18 -116 22 -361 l4 -303 -26
-46 -26 -46 26 -50 c25 -49 26 -58 31 -292 6 -247 0 -322 -34 -458 -10 -37
-14 -70 -10 -74 3 -4 185 -7 404 -8 l398 -1 0 220 c0 214 -1 220 -21 223 -14
2 -33 -12 -63 -49 l-44 -51 -166 4 c-91 1 -172 7 -178 11 -10 6 -13 51 -13
166 0 115 3 161 13 169 19 15 128 24 165 13 18 -5 50 -24 71 -40 21 -17 48
-31 60 -31 21 0 21 2 19 217 -3 202 -4 218 -21 221 -11 2 -38 -11 -60 -30 -41
-32 -45 -33 -128 -32 -47 0 -93 3 -102 7 -15 6 -17 27 -17 172 0 199 2 204
103 207 166 4 223 -9 282 -63 27 -25 52 -39 69 -39 l26 0 -2 213 -3 212 -393
3 c-319 2 -393 0 -398 -11z"/>
<path d="M5726 2752 c-3 -4 4 -37 15 -71 31 -100 42 -234 37 -454 -4 -185 -6
-207 -28 -255 l-23 -53 24 -47 c23 -45 24 -57 28 -297 3 -261 -5 -362 -39
-476 -16 -53 -17 -61 -3 -66 18 -7 342 3 350 11 3 3 -4 51 -16 106 -17 83 -21
134 -21 293 0 115 4 197 10 203 18 18 79 3 108 -26 44 -44 89 -185 112 -350
53 -381 122 -551 289 -718 193 -193 424 -277 689 -252 118 11 234 47 299 91
24 17 46 29 48 27 3 -2 0 -32 -5 -66 -22 -135 42 -256 169 -319 53 -26 187
-24 264 4 100 37 134 63 314 235 84 80 96 88 132 88 36 0 48 -8 131 -84 192
-178 362 -244 650 -253 245 -8 396 25 625 138 275 135 506 351 683 637 23 38
42 74 42 80 0 5 -14 15 -30 22 -17 7 -52 38 -79 69 -42 48 -57 59 -103 70 -29
7 -73 24 -97 37 -24 13 -46 24 -50 24 -3 0 -31 -39 -61 -86 -98 -153 -165
-238 -251 -319 -151 -142 -316 -215 -551 -244 -88 -10 -161 0 -221 30 -32 16
-134 96 -192 149 -74 67 -141 112 -225 150 -70 32 -83 34 -180 35 -80 0 -117
-5 -155 -19 -112 -43 -217 -128 -337 -274 -32 -39 -63 -72 -68 -72 -5 0 -4 17
2 37 15 55 6 201 -15 244 -44 89 -149 159 -239 159 -80 0 -159 -34 -308 -133
-181 -120 -397 -97 -590 63 -129 108 -213 253 -275 475 -20 72 -56 188 -80
259 l-44 129 49 56 c92 106 112 189 111 473 -1 175 -11 287 -33 359 -17 60
-77 131 -133 159 -50 25 -50 25 -387 28 -187 2 -338 -1 -342 -6z m578 -343
c41 -19 48 -54 44 -213 -4 -194 -1 -191 -171 -191 l-122 0 -3 194 c-2 134 1
198 9 207 14 18 206 20 243 3z"/>
<path d="M6985 2747 c-58 -19 -90 -43 -129 -96 -63 -87 -81 -174 -90 -454 -5
-147 -9 -174 -30 -225 -24 -56 -24 -58 -6 -87 27 -46 29 -63 40 -335 12 -284
20 -329 78 -404 72 -95 175 -122 427 -112 141 5 153 7 212 36 66 33 91 60 124
135 29 64 36 124 44 340 8 226 17 295 45 340 l21 34 -27 48 c-27 46 -28 52
-35 252 -8 219 -15 275 -49 360 -30 77 -65 117 -128 148 -56 27 -61 28 -257
30 -143 2 -212 -1 -240 -10z m370 -358 c20 -25 23 -40 29 -190 7 -189 1 -698
-10 -747 -4 -18 -17 -40 -30 -48 -29 -20 -117 -28 -189 -19 -81 10 -101 32
-109 121 -21 205 -10 829 14 874 18 33 47 40 163 37 104 -2 110 -3 132 -28z"/>
<path d="M8102 2742 c-129 -46 -181 -163 -183 -412 -1 -199 -13 -311 -38 -362
l-24 -47 20 -48 c29 -68 32 -86 38 -298 7 -250 13 -309 37 -373 26 -71 58
-106 126 -139 56 -26 62 -27 232 -27 161 -1 179 1 226 22 106 48 139 108 160
298 8 76 21 161 29 189 8 27 11 53 6 58 -12 12 -298 14 -310 2 -6 -7 -4 -29 5
-65 22 -79 14 -148 -20 -177 -22 -18 -39 -23 -86 -23 -69 0 -104 13 -118 46
-20 42 -33 434 -25 731 8 276 9 283 31 305 20 20 33 23 101 23 70 0 82 -3 105
-24 21 -20 26 -34 26 -76 0 -29 -7 -74 -15 -101 -10 -33 -11 -52 -4 -59 13
-13 290 -19 308 -6 12 8 12 18 -2 73 -9 34 -22 113 -27 173 -14 144 -32 201
-74 252 -58 66 -94 76 -296 80 -151 3 -182 1 -228 -15z"/>
<path d="M9022 2741 c-63 -22 -110 -64 -142 -129 -41 -81 -52 -148 -59 -367
-6 -167 -11 -219 -26 -255 -22 -56 -22 -83 0 -140 12 -34 19 -99 26 -260 11
-256 20 -322 52 -392 32 -71 75 -112 145 -139 51 -19 77 -22 232 -22 110 -1
191 4 217 11 69 20 124 69 161 142 39 77 47 141 60 441 8 188 10 198 36 243
l27 46 -28 47 c-26 45 -28 55 -35 238 -11 242 -21 314 -60 398 -61 132 -123
157 -383 157 -138 -1 -180 -4 -223 -19z m362 -352 c31 -36 31 -42 27 -593 -3
-387 -3 -388 -74 -407 -49 -13 -177 -5 -207 13 -11 7 -23 29 -27 48 -5 19 -8
231 -8 470 0 463 1 471 48 490 12 5 65 9 119 9 96 1 96 1 122 -30z"/>
<path d="M11265 1983 c-8 -8 -15 -18 -15 -23 0 -5 -19 -13 -42 -17 -31 -7 -43
-14 -42 -26 1 -12 -6 -17 -27 -17 -34 0 -79 -26 -79 -45 0 -8 15 -25 33 -39
l32 -25 -57 21 c-54 19 -59 20 -83 4 -29 -19 -32 -42 -7 -69 17 -20 17 -20
-17 -3 -39 21 -76 15 -92 -15 -9 -18 -7 -27 11 -51 l22 -29 -31 15 c-40 21
-74 20 -94 -2 -22 -24 -21 -41 1 -65 17 -20 17 -20 -17 -2 -41 20 -75 10 -93
-30 -9 -21 -8 -28 8 -47 21 -23 22 -23 -44 -2 -25 8 -72 -32 -72 -62 0 -13 3
-24 8 -24 4 -1 21 -12 37 -26 l30 -25 -40 17 c-63 27 -98 29 -119 6 -29 -32
-17 -63 39 -99 60 -40 54 -41 -27 -7 -53 22 -65 24 -85 13 -27 -15 -41 -55
-26 -78 5 -9 24 -24 43 -33 18 -9 38 -22 43 -27 19 -19 -11 -12 -63 14 -27 14
-54 25 -60 25 -20 0 -50 -41 -50 -70 0 -38 31 -67 84 -75 59 -10 74 -20 137
-86 49 -51 61 -59 93 -59 52 0 100 54 66 75 -21 13 -9 25 24 25 43 0 60 20 52
63 -6 32 -5 33 22 29 36 -5 67 28 64 69 -2 24 1 29 21 29 13 0 32 9 42 20 14
16 15 24 6 51 -14 41 -14 46 1 31 35 -35 104 10 92 61 -5 26 -4 27 20 21 19
-4 31 0 51 20 24 25 25 27 11 61 -17 39 -17 39 18 23 37 -16 70 14 63 59 -5
31 -5 31 28 26 28 -4 36 -1 50 21 10 14 15 37 13 50 -5 22 -2 24 21 20 40 -8
65 25 58 76 -5 38 -4 39 16 28 18 -9 24 -7 45 17 19 23 23 35 18 64 -4 20 -9
53 -12 73 -3 21 -13 43 -21 50 -22 18 -91 19 -108 1z"/>
<path d="M9858 1291 c-32 -29 -33 -31 -33 -115 0 -79 2 -87 27 -112 52 -53
185 -40 207 19 30 78 19 170 -24 213 -20 20 -34 24 -84 24 -53 0 -65 -4 -93
-29z"/>
</g>
</svg>