<svg version="1.1" xmlns="http://www.w3.org/2000/svg" width="934" height="294" viewBox="0 0 934 294">
<g transform="translate(0.000000,294.000000) scale(0.100000,-0.100000)"
fill="#000000" stroke="none">
<path d="M2815 2330 c-97 -4 -128 -10 -162 -27 -116 -62 -163 -201 -163 -489
0 -108 -2 -126 -25 -169 -20 -41 -22 -52 -12 -65 31 -36 37 -74 37 -224 0
-275 28 -387 115 -464 49 -43 100 -62 167 -62 55 0 60 -5 118 -123 l45 -92
128 -3 c107 -2 128 0 133 13 4 9 -16 54 -45 105 -28 49 -51 92 -51 95 0 3 8 5
18 5 37 0 119 59 150 107 47 75 54 112 58 328 5 212 15 276 47 312 19 22 20
24 3 42 -35 39 -45 91 -46 241 0 173 -10 240 -46 321 -32 71 -87 122 -147 137
-57 15 -177 19 -322 12z m203 -296 c49 -14 55 -45 60 -364 6 -349 -2 -480 -28
-513 -16 -20 -28 -22 -122 -25 -117 -3 -147 7 -160 53 -11 38 -11 760 0 800 5
17 19 36 33 42 25 13 176 17 217 7z"/>
<path d="M660 2310 c0 -11 7 -37 15 -57 24 -57 18 -116 -31 -313 -50 -197 -74
-258 -123 -304 -25 -24 -28 -32 -19 -49 28 -53 27 -77 -7 -210 -77 -303 -96
-366 -135 -442 -42 -83 -47 -101 -30 -107 5 -2 85 -2 176 0 l167 3 -8 42 c-3
23 -9 56 -12 74 -4 26 10 104 33 186 5 15 22 17 179 17 l173 0 10 -32 c10 -33
25 -97 37 -150 3 -15 -2 -47 -10 -70 -25 -72 -34 -68 164 -68 103 0 182 4 186
10 3 5 -15 46 -39 92 -35 64 -59 134 -107 308 -65 240 -73 293 -45 335 17 26
17 27 -28 75 -31 33 -50 64 -60 101 -25 87 -65 237 -88 332 l-22 88 22 64 c36
103 52 95 -188 95 -204 0 -210 -1 -210 -20z m299 -813 c11 -46 15 -44 -106
-50 -86 -4 -93 -3 -93 14 0 18 84 356 96 389 5 12 60 -177 103 -353z"/>
<path d="M1513 2303 c3 -15 15 -59 26 -98 17 -60 20 -101 20 -280 0 -216 -7
-264 -44 -304 -15 -17 -14 -21 9 -56 14 -20 28 -52 32 -69 3 -18 4 -140 2
-272 -3 -217 -6 -244 -26 -299 -38 -101 -48 -95 153 -95 140 0 175 3 175 13 0
8 -10 40 -21 73 -19 50 -23 86 -26 240 -2 100 -1 189 3 198 5 12 19 16 60 16
66 0 61 8 139 -228 50 -150 57 -180 51 -220 -14 -97 -34 -87 167 -90 203 -3
199 -5 145 82 -17 28 -64 148 -104 266 l-73 215 43 40 c101 93 119 154 120
405 0 252 -22 346 -96 419 -67 65 -70 66 -432 69 l-328 3 5 -28z m568 -292
c17 -20 19 -40 19 -156 0 -180 1 -179 -149 -183 -77 -3 -116 0 -126 8 -12 10
-15 44 -15 167 0 91 4 163 11 174 10 19 19 20 126 17 107 -3 116 -5 134 -27z"/>
<path d="M3425 2320 c-4 -6 4 -38 16 -73 19 -53 23 -89 27 -244 6 -237 -2
-321 -35 -369 -13 -20 -20 -40 -15 -43 5 -3 17 -22 28 -41 15 -30 19 -70 24
-265 6 -205 9 -236 29 -288 30 -75 64 -115 126 -143 47 -22 62 -24 236 -24
223 0 258 9 319 77 68 77 81 139 89 403 5 207 8 228 27 259 l22 34 -24 35
c-24 34 -24 38 -24 288 0 224 2 259 20 316 11 34 20 69 20 76 0 9 -39 12 -160
12 -175 0 -180 -2 -160 -56 34 -86 40 -188 39 -619 0 -460 -3 -489 -49 -512
-31 -16 -190 -17 -224 -2 -13 7 -30 24 -36 39 -8 19 -10 172 -8 521 3 486 3
495 25 549 13 30 23 61 23 68 0 15 -325 18 -335 2z"/>
<path d="M4403 2303 c3 -16 13 -57 22 -92 13 -52 15 -108 13 -306 -3 -235 -4
-244 -26 -274 l-23 -31 22 -29 c28 -38 42 -202 36 -411 -3 -132 -8 -167 -30
-234 -14 -44 -24 -83 -21 -88 3 -4 167 -8 365 -8 l359 0 0 195 0 195 -25 0
c-14 0 -25 -4 -25 -9 0 -5 -15 -26 -34 -45 l-33 -36 -156 0 c-132 0 -156 2
-161 16 -3 9 -6 75 -6 149 0 105 3 135 15 145 10 8 41 11 94 9 74 -4 82 -6
113 -37 19 -17 44 -32 56 -32 l22 0 -2 198 c-3 195 -3 197 -24 195 -12 -1 -35
-16 -52 -33 -29 -29 -34 -30 -120 -30 -73 0 -91 3 -96 16 -3 9 -6 78 -6 154 0
175 -4 170 131 170 136 0 182 -13 221 -61 20 -25 40 -39 55 -39 l23 0 0 190 0
190 -356 0 -356 0 5 -27z"/>
<path d="M5213 2303 c3 -15 15 -59 26 -98 17 -59 20 -101 20 -275 1 -207 -7
-269 -37 -303 -14 -16 -13 -21 9 -65 23 -45 24 -56 27 -287 3 -218 1 -247 -18
-315 -12 -41 -24 -87 -27 -102 l-5 -28 160 0 c94 0 163 4 167 10 3 5 -3 39
-15 76 -17 57 -20 93 -20 260 l0 194 50 0 c40 0 52 -4 64 -22 8 -13 40 -102
71 -198 58 -179 61 -201 39 -293 l-6 -27 166 0 c191 0 188 -2 136 91 -16 30
-44 99 -60 154 -17 55 -47 150 -67 210 l-35 110 50 50 c40 40 54 64 72 120 19
62 21 93 22 280 1 293 -27 390 -129 451 l-48 29 -309 3 -308 3 5 -28z m511
-273 c15 -5 29 -21 33 -37 9 -33 8 -242 -1 -279 -9 -35 -42 -44 -156 -44 l-98
0 -7 63 c-8 79 -2 278 8 295 10 15 183 17 221 2z"/>
<path d="M6279 2302 c-41 -21 -61 -40 -86 -81 -49 -81 -63 -163 -63 -359 0
-158 -1 -171 -24 -216 l-24 -48 21 -36 c20 -34 22 -55 28 -262 5 -202 8 -232
29 -295 29 -83 83 -144 146 -163 26 -7 109 -12 226 -12 177 0 186 1 235 25 61
31 97 75 126 153 18 49 22 87 26 282 6 228 9 247 49 293 14 16 13 19 -7 41
-34 36 -41 79 -41 246 0 225 -26 324 -102 397 -59 57 -87 63 -297 63 -187 0
-189 0 -242 -28z m373 -290 l23 -23 0 -405 0 -406 -28 -24 c-25 -22 -37 -24
-123 -24 -108 0 -127 7 -143 51 -15 44 -15 764 0 808 15 44 38 51 151 48 86
-2 100 -5 120 -25z"/>
<path d="M7545 2319 c-53 -15 -112 -74 -136 -137 -20 -51 -23 -81 -28 -282 -6
-211 -7 -227 -29 -262 l-23 -36 23 -44 c21 -40 23 -59 29 -278 6 -259 15 -307
68 -371 57 -69 96 -79 298 -79 202 0 233 8 291 74 49 56 62 98 71 231 5 77 14
132 25 152 9 18 16 37 16 43 0 11 -302 15 -313 4 -3 -4 1 -20 9 -37 9 -17 19
-56 21 -88 5 -52 3 -60 -20 -83 -22 -22 -35 -26 -80 -26 -92 0 -118 9 -133 46
-18 42 -21 825 -3 871 15 39 24 43 115 43 106 0 119 -9 119 -87 0 -32 -6 -73
-14 -90 -25 -60 -18 -63 143 -63 80 0 147 4 150 9 3 5 -1 26 -10 47 -9 22 -20
89 -25 149 -5 61 -16 132 -25 159 -20 60 -76 117 -130 134 -48 14 -362 15
-409 1z"/>
<path d="M8406 1980 c-53 -14 -88 -36 -114 -74 -36 -53 -43 -91 -49 -261 -4
-131 -9 -166 -24 -192 -18 -33 -18 -33 4 -70 20 -34 21 -49 19 -165 -4 -218
25 -319 105 -370 35 -21 48 -23 183 -23 166 1 191 9 239 76 37 50 41 78 50
294 5 151 9 176 25 194 19 21 19 22 -1 59 -18 32 -21 60 -26 202 -7 214 -26
269 -110 312 -33 17 -64 21 -152 24 -60 2 -127 -1 -149 -6z m196 -227 c13 -15
17 -70 22 -323 7 -304 3 -363 -26 -382 -23 -14 -125 -9 -142 7 -24 25 -28 86
-24 388 4 335 1 327 98 327 42 0 61 -5 72 -17z"/>
<path d="M8949 1041 c-25 -26 -29 -37 -29 -86 0 -59 19 -109 45 -119 9 -3 40
-6 69 -6 77 0 96 23 96 119 0 63 -3 75 -25 96 -19 20 -34 25 -75 25 -44 0 -56
-5 -81 -29z"/>
</g>
</svg>