<?xml version="1.0" encoding="UTF-8" standalone="no"?><!DOCTYPE svg PUBLIC "-//W3C//DTD SVG 1.1//EN" "http://www.w3.org/Graphics/SVG/1.1/DTD/svg11.dtd"><svg width="100%" height="100%" viewBox="0 0 600 300" version="1.1" xmlns="http://www.w3.org/2000/svg" xmlns:xlink="http://www.w3.org/1999/xlink" xml:space="preserve" xmlns:serif="http://www.serif.com/" style="fill-rule:evenodd;clip-rule:evenodd;stroke-linejoin:round;stroke-miterlimit:2;"><path d="M69.611,120.429c1.367,0.93 -0.315,0.671 4.986,17.515c5.301,16.843 24.471,29.666 40.883,33.782c13.223,3.393 23.164,1.225 37.448,-8.012c10.906,-7.069 17.47,-9.709 24.805,-10.086c5.308,-0.377 7.239,0 11.003,1.791c5.791,2.828 11.679,8.577 14.091,13.762c1.93,4.242 2.509,15.552 1.158,22.339c-0.29,1.885 -0.386,3.393 -0.097,3.393c0.193,0 3.185,-3.205 6.467,-7.164c18.049,-21.302 31.078,-28.466 49.706,-27.429c7.142,0.377 9.845,0.943 15.443,3.582c8.493,3.865 13.802,7.352 21.33,14.044c17.952,15.835 24.901,18.569 41.695,16.401c5.405,-0.66 12.547,-1.885 15.829,-2.828c7.721,-1.979 21.909,-8.86 28.472,-13.762c6.66,-4.996 18.202,-17.079 24.765,-21.492c15.209,-10.226 25.36,-15.807 25.979,-16.155c1.685,-0.945 7.57,-5.2 11.171,-6.197c1.999,-0.554 4.201,-0.508 5.008,-0.237c1.481,0.497 16.75,12.686 18.529,14.177c5.524,4.626 4.527,6.884 4.519,7.449c-0.06,4.638 -21.633,16.971 -31.366,24.637c-17.205,13.552 -36.601,32.788 -56.87,42.308c-21.041,9.897 -35.229,13.196 -56.462,13.196c-28.569,0 -47.39,-6.787 -66.404,-23.941c-12.837,-11.499 -13.319,-11.405 -29.148,3.676c-16.89,16.118 -39.872,40.114 -51.646,41.272c-7.683,0.755 -14.666,-0.058 -17.778,-2.766c-10.547,-10.647 0.511,-34.359 0.511,-44.633c0,-3.393 0.29,-7.352 0.676,-8.86l0.772,-2.733l-3.668,2.262c-12.451,7.352 -22.102,9.709 -39.861,9.614c-12.258,0 -13.609,-0.189 -23.647,-3.393c-24.901,-8.012 -46.43,-29.216 -53.567,-52.501c-1.61,-5.254 -12.868,-29.248 -10.745,-32.053c4.113,-5.432 29.916,-5.104 36.008,-0.958Z" style="fill:#fff1d4;"/><path d="M545.234,44.659c1.834,-1.885 8.204,-1.791 10.424,0c0.869,0.848 1.641,2.545 1.641,3.865c0,1.32 0.483,3.77 1.062,5.373c2.027,5.373 -1.062,11.311 -5.308,10.274c-1.93,-0.471 -2.123,-0.189 -1.737,2.922c0.579,4.43 -2.027,7.446 -5.598,6.692c-2.316,-0.377 -2.509,-0.189 -2.123,2.356c0.579,3.959 -2.22,6.787 -6.177,6.315c-2.702,-0.283 -2.992,-0.094 -2.413,1.602c1.641,4.43 -2.509,8.295 -6.66,6.127c-1.93,-1.037 -2.123,-0.943 -1.544,0.471c1.834,4.713 1.641,5.844 -0.965,7.918c-1.834,1.414 -3.475,1.885 -4.922,1.508c-2.027,-0.471 -2.22,-0.283 -1.641,1.885c0.386,1.508 0,3.299 -1.062,4.807c-1.448,2.168 -2.123,2.451 -5.308,1.979c-3.668,-0.471 -3.668,-0.377 -2.702,1.791c1.641,3.393 -0.579,6.975 -4.247,6.975c-2.606,0 -2.799,0.189 -2.22,2.639c0.772,3.676 -2.606,7.164 -6.37,6.598c-2.702,-0.377 -2.799,-0.283 -2.22,2.733c0.772,4.053 -0.869,5.938 -5.115,5.938c-2.896,0 -3.185,0.189 -2.22,1.791c1.351,2.639 1.255,3.582 -0.965,5.75c-1.255,1.225 -3.185,1.885 -5.405,1.885c-3.089,0 -4.343,-0.754 -9.459,-6.032c-5.212,-5.278 -6.467,-6.127 -11.292,-7.069c-6.467,-1.32 -9.555,-3.77 -9.555,-7.635c0,-2.733 2.896,-6.598 4.826,-6.598c0.579,0 3.185,1.037 5.791,2.356c2.606,1.32 5.212,2.356 5.791,2.356c2.123,0 -0.193,-1.979 -3.957,-3.488c-4.247,-1.602 -5.694,-4.619 -3.957,-8.295c1.544,-3.205 4.15,-3.582 9.748,-1.414c6.66,2.545 6.949,2.356 2.22,-0.943c-4.44,-3.11 -5.115,-5.75 -2.413,-8.672c2.027,-2.168 5.501,-2.168 10.713,0.189c4.922,2.168 5.212,1.791 0.676,-0.943c-3.957,-2.356 -4.44,-5.184 -1.351,-8.389c2.027,-2.074 3.861,-2.262 7.818,-0.566c1.448,0.566 1.544,0.283 0.483,-2.262c-0.965,-2.545 -0.772,-3.11 1.255,-5.278c2.702,-2.733 3.861,-2.922 8.011,-0.848c3.089,1.602 3.089,1.508 1.448,-0.283c-2.22,-2.356 -2.22,-4.336 0.193,-6.41c1.834,-1.602 5.019,-1.602 9.073,0c1.737,0.754 1.737,0.66 0.193,-1.697c-1.351,-1.885 -1.448,-2.828 -0.579,-4.336c1.255,-2.451 5.019,-3.393 7.528,-2.074c2.606,1.414 3.764,1.32 2.316,-0.094c-1.834,-1.791 -1.351,-4.336 1.255,-6.032c2.22,-1.414 2.702,-1.414 6.949,0c5.791,1.885 5.888,1.885 2.799,-0.471c-1.351,-1.037 -2.509,-2.545 -2.509,-3.205c0,-2.074 3.957,-4.242 7.528,-4.242c2.799,0 3.089,-0.189 2.22,-1.32c-1.255,-1.414 -0.881,-2.572 5.501,-2.922c2.414,-0.132 3.467,0.813 4.302,0.693c0.859,-0.124 -0.755,-0.913 -2.081,-1.969c-1.013,-0.807 1.543,-1.552 2.316,-2.306Z" style="fill:#fff1d4;"/></svg>