<?xml version="1.0" encoding="UTF-8" standalone="no"?><!DOCTYPE svg PUBLIC "-//W3C//DTD SVG 1.1//EN" "http://www.w3.org/Graphics/SVG/1.1/DTD/svg11.dtd"><svg width="100%" height="100%" viewBox="0 0 633 436" version="1.1" xmlns="http://www.w3.org/2000/svg" xmlns:xlink="http://www.w3.org/1999/xlink" xml:space="preserve" xmlns:serif="http://www.serif.com/" style="fill-rule:evenodd;clip-rule:evenodd;stroke-linejoin:round;stroke-miterlimit:2;"><path id="CHUCO" d="M574,61.9c0,0.5 -2.4,2.6 -5.2,4.7c-33.6,24 -54.7,63.2 -47.3,88c2.6,9 9.8,13 25.9,14.6c11.6,1.1 15,1.7 14.4,2.4c-0.3,0.2 -3,1.1 -6.1,1.9c-8.4,2.2 -18.4,7.4 -21.9,11.4c-7.4,8.4 -10.1,19.7 -7.9,32.8c4.1,23.8 9.4,37.6 26.7,69.3c16.9,31 23.3,51.3 23.4,74.1c0,8.1 -0.8,13.9 -1.9,13.9c-0.4,0 -2,-4.4 -3.5,-9.8c-5.2,-18.1 -14.3,-36.8 -27.7,-56.7c-13.1,-19.6 -57.3,-69.2 -69,-77.6l-3.1,-2.2l0.5,12.4c0.2,6.8 0.8,13.5 1.2,14.8c0.8,2.2 0.6,2.3 -2.1,1.7c-7.5,-1.9 -13,-9 -19,-24.7c-3,-7.6 -5.1,-11.3 -8.6,-15.2l-4.8,-5.2l2.9,5.7c2.8,5.5 4.9,13.4 3.7,14.5c-0.3,0.3 -2.2,-0.9 -4.3,-2.8l-3.8,-3.3l-0.6,6c-0.4,3.2 -1.2,10.3 -1.8,15.6c-0.6,5.3 -1.1,14.2 -1.1,19.7c0,6.1 -0.4,10.1 -1,10.1c-0.5,0 -1,-0.5 -1,-1c0,-0.6 -2.7,-6.8 -6,-13.8c-5.5,-11.6 -6.7,-13.3 -13.7,-20c-4.2,-3.9 -8.2,-7.2 -8.9,-7.2c-1.5,0 -5.3,4.8 -7.8,9.7c-3.3,6.6 -4.9,14.9 -5.5,29.8l-0.6,15l-2.6,-5c-1.5,-2.8 -4.1,-9.5 -5.8,-15c-7.2,-22.8 -8.4,-26.3 -11.9,-31.9c-1.9,-3.2 -5.7,-8.1 -8.3,-10.7l-4.8,-4.8l1.4,-4.8c3.5,-11.4 4.7,-22.8 4.9,-44.3l0.1,-21.5l-2.8,-5.8c-1.6,-3.1 -3.7,-6.2 -4.8,-6.7c-2,-1.1 -2.6,-4.5 -0.9,-5.5c0.5,-0.3 7.8,-8.3 16.3,-17.8c16.3,-18.2 29.1,-31.2 30.8,-31.2c0.6,0 1.9,2.4 2.9,5.3c4.2,11.8 11,19.7 21.8,25.1c6.1,3.1 7.2,4.4 7.2,8.7c0,3.3 2.2,3 4.3,-0.6c2.7,-4.5 4,-3.8 3.5,1.8c-0.7,6.9 -18.2,42.2 -20.9,42.2c-0.4,0 -0.9,-3.5 -1.1,-7.8c-0.5,-9.4 -4,-17.3 -10.5,-23.2c-5.4,-5 -7.6,-5.1 -10.7,-0.3c-2.7,4.2 -3.7,9.9 -6.2,33.5c-2.3,23.2 -0.2,36.8 7.2,46.5c3.4,4.5 6.1,4.2 11.1,-1c6.6,-6.6 11.3,-19.6 11.3,-30.9c0,-2.1 0.3,-3.8 0.8,-3.8c0.4,0 3.7,6 7.5,13.3c3.7,7.2 7.4,14.1 8.3,15.2c1.5,2 1.5,2 3.5,-0.3c3.7,-4.7 4.2,-9.3 3.5,-37.2c-0.3,-14.6 -1,-28.5 -1.5,-31c-0.9,-4.4 -0.8,-4.6 4.3,-11c1.033,-1.282 2.357,-3.021 3.793,-4.963c2.595,-3.512 5.554,-7.689 7.807,-11.037c7.4,-11.3 15.4,-21.3 21.5,-26.9c4,-3.7 7.3,-5.4 6.3,-3.4c-0.2,0.5 -1.7,3.5 -3.4,6.8c-3.8,7.4 -6.9,15.4 -6.2,16.1c0.3,0.3 7.8,-4.2 16.6,-10c8.8,-5.8 16.2,-10.6 16.5,-10.6c0.2,0 3,-1.5 6.1,-3.4c7.9,-4.7 22.5,-10.7 39.6,-16.1c8,-2.6 15,-4.8 15.5,-5c1.9,-0.7 3.5,-0.5 3.5,0.4Zm-91.2,72.8c-0.8,1 -2,3.4 -2.7,5.3c-2.1,6.3 -6.2,33.2 -6.7,45l-0.6,11.5l5.8,5.1c4.2,3.6 7.2,7.5 10.4,13.3l4.5,8.2l0.8,-12.3c0.4,-6.8 0.8,-22.9 0.8,-35.8c0.2,-23.7 -0.7,-31.6 -4.1,-38.1c-2.3,-4.3 -5.6,-5.2 -8.2,-2.2Zm-228.1,-39c-0.3,2.7 -1,8.4 -1.7,12.8c-1.4,8.8 -0.8,30.4 1,39.5c0.6,3.1 1.2,19.9 1.4,38c0.3,32.4 0.3,32.5 3,39.8l2.7,7.4l-3.7,4c-5.2,5.8 -8.5,14.5 -12,32.1c-1,4.8 -2.2,8.6 -2.7,8.4c-0.5,-0.1 -2.6,-5.7 -4.7,-12.2c-4.8,-15.7 -7.4,-21.8 -11.2,-27.2l-3.2,-4.3l1.8,-3.8c2.1,-4.3 4.6,-18.4 4.6,-25.9c0,-5.7 -2.6,-19.3 -3.9,-20.6c-2.5,-2.5 -15.1,10.5 -16.5,17c-0.9,3.9 2.8,17.5 6.5,23.9c1.6,3 2.8,5.8 2.4,6.4c-0.3,0.5 -2.6,1 -5.1,1c-4.3,0 -4.6,0.2 -6.4,4.2c-1.8,4.3 -4.3,16.6 -5.6,28.6c-0.6,6.1 -2.3,9.2 -4.7,9.2c-0.7,0 -2.4,-4.9 -4,-11.4c-3.5,-14.7 -5.9,-19.8 -11.9,-26.2l-5,-5.3l2.5,-4.8c3.4,-6.4 3.6,-8.6 2.7,-31.3c-0.7,-17.9 -1,-20.1 -3.5,-26.2l-2.7,-6.7l1.7,-6.8c2.5,-9.8 1.1,-21.9 -3.7,-31c-1,-2 -0.6,-2.7 4.2,-7c7.6,-6.9 32.1,-25.5 32.8,-24.9c0.3,0.3 -0.9,3.8 -2.6,7.8c-4.5,10.6 -5.5,17.3 -5,35.4c0.4,17.2 1.6,21.9 6.4,25.1c2.2,1.4 2.6,1.4 4.9,-0.1c5.7,-3.8 11.5,-11.5 13,-17.4c1,-3.8 1,-5.6 -0.2,-9.6c-2.2,-7.5 -1.3,-9.8 8.5,-20.3c4.8,-5.3 10.8,-11.8 13.4,-14.7c2.6,-2.8 4.8,-5.7 4.8,-6.4c0,-0.6 0.5,-1.2 1.1,-1.2c0.8,0 1,1.6 0.6,4.7Zm87.2,1c0.5,2.1 1.2,10.1 1.6,17.8c0.4,8.5 1.4,16.7 2.5,21c1,3.8 2.6,13.1 3.5,20.5c1.4,12.3 1.6,19.1 1.2,53.1c-0.1,7.6 0.2,9 2.6,13.2c1.5,2.5 3.5,5 4.4,5.5c2.4,1.4 1,3.8 -4.1,6.9c-2.4,1.4 -5.1,4 -6.1,5.5c-1.6,2.7 -7.5,31.5 -7.5,36.5c0,4.7 -1.9,2 -6,-8.5c-9,-22.7 -16.4,-34.2 -22.2,-34.2c-1.8,0 -6.3,6.8 -12.7,19.7c-4.2,8.5 -8.4,21.3 -9.6,29.7c-0.4,2.6 -1.1,4.4 -1.5,3.9c-0.5,-0.4 -1.8,-5.8 -3,-11.8c-2.5,-13.2 -7.5,-29.8 -10.2,-34.3c-1.1,-1.8 -3.9,-4.3 -6.2,-5.7c-2.4,-1.4 -5.1,-3.4 -6.1,-4.5c-1.8,-2 -1.8,-2.3 0.8,-9.8c3.6,-10.4 4.7,-17.7 5.4,-36.8c0.8,-21.4 -0.7,-33.2 -5.5,-43.7l-3.5,-7.8l3.4,-3.6c1.9,-2.1 3.9,-4.2 4.5,-4.8c0.6,-0.5 3.5,-3.9 6.5,-7.5c12.5,-14.9 21.6,-23 26.1,-23c2.3,0 2.3,0.5 -0.2,4c-4.2,5.9 -7,13.4 -7,18.8c0,4.5 0.4,5.8 2.8,8.1c1.5,1.5 3.2,3 3.9,3.2c1.5,0.5 0.1,30 -1.7,34.4c-1.8,4.5 -2.4,23.9 -1.1,32.5c2.4,15.6 6.6,22.5 13.2,21.8c4,-0.4 6.7,-4.5 10,-15c2,-6.5 2,-7.5 0.9,-33.3c-0.6,-14.7 -0.8,-29.1 -0.5,-31.9c0.6,-4.2 0.3,-6.3 -1.5,-10.4c-1.2,-2.8 -2.8,-5.7 -3.6,-6.3c-2.4,-1.9 -1.6,-2.6 3.6,-3.1c7.5,-0.7 11.4,-3.9 16,-13.2c2.2,-4.3 4,-8.5 4,-9.2c0,-2.9 2,-1.3 2.9,2.3Zm-262.5,-32.3c7.2,3.5 17.6,9 23.1,12.2c21.6,12.5 38.9,18.3 51,17c5.1,-0.5 17.6,-3.5 26.4,-6.2c2.1,-0.6 2.2,-0.5 1.2,1.5c-0.7,1.1 -3.8,4.9 -7,8.4c-9.7,10.4 -10.6,12.8 -7.6,18.6c0.8,1.6 1.7,6.4 1.9,10.7c0.3,4.4 1.3,12.8 2.2,18.7c0.9,5.9 1.3,11.1 0.9,11.5c-0.6,0.7 -6.7,-5.4 -9.3,-9.4c-1,-1.6 -1.2,0.2 -0.9,10.3c0.2,6.8 0.1,12.3 -0.2,12.3c-1,0 -7.4,-6.9 -10,-10.7c-1.2,-1.8 -3.1,-7.3 -4.2,-12.3c-2.3,-10.9 -3.7,-13.3 -9,-15.4c-5.8,-2.4 -6.4,-2.1 -8.3,3.6c-3.6,11.3 -4,17.4 -2.8,51.2c1.3,35 1.5,36.5 7.3,43.1c3.8,4.3 5.7,4.4 9.4,0.5c3.6,-3.8 4.5,-10.8 2.1,-18.1c-1,-2.8 -1.5,-5.4 -1.2,-5.6c1,-1.1 6.7,2 9.1,4.8l2.4,2.9l0.7,-3.6c0.9,-4.9 -0.2,-13.6 -2.7,-21.2c-1.2,-3.5 -1.8,-6.6 -1.5,-6.9c2,-2 17.4,13 22.5,22c4.1,7.2 4.3,16.2 0.6,25.6c-2.2,5.7 -2.3,6.6 -1,9.1c2.2,4.3 5.5,13.3 5,13.8c-0.2,0.3 -4.2,-0.3 -8.7,-1.2c-18.6,-3.6 -27.5,-1.3 -49.3,13.1c-30.2,20 -54.8,56.3 -59.7,88c-0.7,4.6 -1.6,8.3 -2,8.3c-1.3,0 -4.7,-6.1 -5.9,-10.5c-1.9,-6.9 -1.2,-23.1 1.5,-35.1c3.5,-15.4 5.7,-21.2 13,-34c11.7,-20.4 23.4,-49.7 25.7,-64.4c1.8,-11.7 -0.3,-18.2 -7.4,-22.7c-5.2,-3.3 -8.7,-6.4 -8.7,-7.6c0,-0.5 1.7,-0.6 3.8,-0.2c5.3,0.9 8.7,-0.7 10.1,-4.7c0.7,-1.8 1.7,-9 2.3,-16c1.3,-14.5 1,-15.6 -5.9,-24.9c-2.3,-3.3 -4,-5.9 -3.5,-6c0.4,0 3.4,-0.1 6.7,-0.2c5.5,-0.2 6.1,-0.4 8.2,-3.6c1.5,-2.2 2.3,-4.8 2.3,-7.5c-0.1,-8.3 -9,-24.9 -23.7,-44.4c-8.9,-11.8 -14.3,-19.5 -14.3,-20.7c0,-1.3 3.3,0 15.4,5.9Z"/><path id="APPAREL-OUTSIDE-" serif:id="APPAREL OUTSIDE " d="M137.446,153.596c6.943,-1.093 26.188,-0.601 35.1,0.82c22.525,3.663 34.389,11.317 33.022,21.322c-0.547,3.991 -2.296,6.779 -6.889,11.208c-2.406,2.296 -4.155,4.155 -3.936,4.155c0.547,0 7.873,-4.921 13.777,-9.185c2.57,-1.859 6.615,-4.811 8.966,-6.506l4.374,-3.116l9.732,-0.219c8.693,-0.219 9.732,-0.164 9.732,0.656c0,1.039 -0.109,1.039 4.1,0.328c1.804,-0.328 5.795,-0.601 8.802,-0.601c6.397,-0.055 9.786,1.148 10.388,3.608c0.164,0.765 0.383,1.367 0.437,1.367c0.055,0 2.132,-0.984 4.647,-2.242c5.358,-2.624 8.529,-3.226 17.167,-3.226c5.522,0 6.397,0.109 6.397,0.875c0,0.711 0.328,0.82 1.531,0.601c0.82,-0.219 4.046,-0.601 7.217,-0.984c10.169,-1.148 16.019,0.273 17.112,4.21l0.492,1.64l4.428,-1.75c9.568,-3.827 21.541,-5.249 27.555,-3.28c1.531,0.492 3.116,1.257 3.444,1.695c0.547,0.656 0.984,0.656 2.788,-0.273c5.795,-3.007 21.049,-2.624 21.377,0.492c0.164,1.859 -0.219,4.21 -0.82,4.975c-0.82,1.039 1.586,-0.437 5.358,-3.28c5.522,-4.21 6.397,-4.428 15.527,-4.483c7.162,-0.055 8.365,0.055 9.294,0.875c0.984,0.875 1.531,0.929 5.577,0.383c10.388,-1.367 17.441,-0.055 17.441,3.28c0,0.875 0.328,0.875 4.264,-0.328c11.326,-3.407 32.689,-5.489 36.952,-2.496c2.487,1.746 2.355,3.473 14.112,-6.033c25.04,-16.019 21.814,-14.379 29.742,-14.598c8.092,-0.219 8.966,0.109 8.966,3.335c0,1.257 -0.219,2.57 -0.437,2.952c-0.328,0.492 -10.552,7.381 -42.043,28.266c-2.296,1.476 -2.242,1.859 0.273,1.75c1.695,-0.055 2.023,0.109 2.187,1.203c0.328,2.078 -0.984,4.975 -2.515,5.795c-2.734,1.367 -11.809,2.679 -17.222,2.406c-4.811,-0.219 -6.287,-0.656 -9.24,-2.788c-0.765,-0.492 -2.187,-0.383 -7.107,0.601c-11.973,2.46 -25.095,2.843 -31.491,0.929c-2.515,-0.765 -3.062,-1.148 -3.772,-2.898c-1.203,-2.843 -0.656,-5.85 1.421,-7.982c1.859,-1.914 2.132,-2.679 0.875,-2.187c-1.476,0.601 -3.554,-0.273 -3.554,-1.421c0,-1.914 -1.75,-2.296 -6.123,-1.312c-4.702,1.039 -7.326,2.406 -17.878,9.349c-4.319,2.843 -8.693,5.522 -9.732,5.959c-2.952,1.257 -15.855,1.695 -17.933,0.656c-1.421,-0.711 -2.242,-0.765 -6.561,-0.055c-6.943,1.093 -13.067,0.711 -16.019,-0.929l-2.351,-1.312l-3.39,0.929c-6.615,1.859 -12.192,2.734 -18.534,2.788c-7.271,0.055 -8.857,-0.601 -10.005,-4.1c-0.383,-0.984 -0.984,-1.914 -1.476,-2.023c-0.437,-0.055 -2.624,0.601 -4.866,1.476c-5.741,2.296 -12.739,3.499 -20.174,3.499c-5.577,0 -6.725,-0.164 -9.95,-1.531c-3.663,-1.476 -3.718,-1.476 -5.358,-0.492c-0.875,0.601 -5.249,3.335 -9.677,6.178c-23.618,14.98 -22.088,14.16 -27.391,14.816c-5.139,0.656 -8.474,0.055 -9.404,-1.64c-0.273,-0.547 -0.547,-2.023 -0.547,-3.226c0,-2.46 0,-2.46 14.16,-11.591c3.718,-2.406 6.67,-4.483 6.506,-4.592c-0.109,-0.109 -2.515,0.164 -5.358,0.601c-4.21,0.711 -6.178,0.711 -10.825,0.219c-3.062,-0.328 -5.905,-0.437 -6.287,-0.219c-2.023,1.203 -6.779,5.03 -7.49,5.959c-2.679,3.718 -6.561,5.686 -13.887,7.107c-2.734,0.547 -4.046,1.093 -4.921,2.078c-0.656,0.711 -2.296,2.406 -3.718,3.663l-2.624,2.296l-7.49,0c-4.155,-0.055 -7.982,-0.055 -8.474,-0.109c-1.148,0 -2.296,-3.335 -1.804,-5.03c0.219,-0.711 1.257,-2.187 2.351,-3.28c1.093,-1.148 1.859,-2.132 1.695,-2.242c-0.109,-0.109 -1.312,-0.656 -2.624,-1.203c-2.624,-1.148 -3.882,-3.226 -3.882,-6.451c0,-2.296 1.75,-4.592 7.217,-9.458c2.187,-1.968 4.046,-3.772 4.155,-3.991c0.055,-0.219 -0.437,-0.383 -1.093,-0.273c-0.711,0.055 -5.631,0.164 -10.989,0.164l-9.732,0.055l-3.499,3.335c-1.914,1.859 -3.499,3.554 -3.444,3.718c0.219,1.859 -0.328,3.608 -1.476,4.702l-1.312,1.367l-16.074,0c-11.7,0 -16.183,-0.164 -16.675,-0.656c-0.711,-0.711 -0.875,-4.1 -0.328,-5.577c0.164,-0.492 0.984,-0.875 1.804,-0.875c3.28,0 6.397,-1.64 18.37,-9.677c13.832,-9.349 15.418,-10.552 12.028,-9.13c-2.624,1.093 -12.356,1.804 -16.675,1.148c-6.123,-0.875 -9.294,-3.608 -9.294,-8.037c0,-3.718 2.515,-6.397 8.802,-9.185c3.827,-1.695 6.998,-2.515 14.707,-3.718Zm41.988,15.363c-1.421,-0.765 -2.898,-1.367 -3.28,-1.312c-0.383,0 -2.624,1.257 -4.921,2.843c-3.718,2.515 -4.1,2.898 -3.007,3.226c1.586,0.437 14.488,0.547 16.128,0.109c1.257,-0.383 1.257,-0.383 -0.547,-1.914c-0.984,-0.875 -2.952,-2.242 -4.374,-2.952Zm-25.095,-5.249c-0.437,-0.273 -3.226,-0.492 -6.233,-0.492l-5.467,0l1.586,1.257c1.367,1.093 1.531,1.531 1.312,3.554c-0.109,1.257 -0.055,2.296 0.055,2.296c0.164,0 2.351,-1.367 4.866,-3.062c3.39,-2.242 4.428,-3.226 3.882,-3.554Zm223.118,17.222c0,-0.328 0.109,-0.383 -7.545,3.718c-3.936,2.132 -7.107,3.991 -6.998,4.155c0.601,0.601 4.866,-1.367 9.513,-4.374c2.734,-1.859 5.03,-3.39 5.03,-3.499Zm-137.501,1.148c1.421,-1.148 1.476,-1.312 0.547,-1.312c-1.531,0.055 -3.444,0.656 -6.287,2.132c-2.679,1.312 -8.31,5.03 -8.037,5.249c0.055,0.109 1.203,-0.109 2.57,-0.383c2.734,-0.601 8.748,-3.663 11.208,-5.686Zm204.028,0.812c-0.887,0.671 2.615,-0.134 3.89,-0.405c1.936,-0.411 6.84,-1.391 7.727,-2.061c0.825,-0.624 -1.561,-1.208 -2.573,-0.993c-1.936,0.411 -8.157,2.789 -9.044,3.46Zm-109.445,5.421c2.952,0 6.976,-2.128 12.334,-6.283c1.64,-1.257 1.061,-1.316 -2.219,-0.277c-2.788,0.929 -8.092,3.718 -10.661,5.741c-1.039,0.82 -1.039,0.82 0.547,0.82Zm-44.558,-5.139c0,0 3.616,-1.951 0.219,-1.312c-2.554,0.481 -14.98,5.194 -14.98,6.342c0,0.164 1.093,0.164 2.46,0c3.062,-0.437 9.841,-3.226 12.301,-5.03Z"/><g id="APPAREL-INSIDE" serif:id="APPAREL INSIDE"><path d="M137.448,155.758c-12.52,1.586 -21.049,5.522 -21.049,9.732c0,3.499 3.718,5.194 11.263,5.249c7.763,0 14.707,-1.804 14.707,-3.882c0,-1.148 -1.859,-1.257 -3.827,-0.164c-1.968,1.039 -4.483,0.711 -5.03,-0.601c-0.711,-1.914 0.383,-3.444 3.499,-5.03c2.679,-1.312 3.991,-1.531 8.748,-1.695c4.921,-0.219 12.684,0.492 15.636,1.312c1.531,0.492 0.601,1.257 -8.31,7.217c-39.692,26.68 -38.325,25.805 -40.731,25.805c-0.711,0 -1.695,0.164 -2.187,0.328c-2.515,0.984 1.148,1.312 14.27,1.312c13.067,0 14.434,-0.109 13.832,-0.875c-0.656,-0.711 -0.164,-1.367 3.062,-4.702c2.078,-2.078 4.921,-4.757 6.342,-5.905l2.624,-2.078l14.598,0.109c8.912,0.055 14.762,0.273 14.871,0.601c0.164,0.328 -0.984,1.531 -2.515,2.734c-8.037,6.342 -10.169,8.256 -12.192,10.77c-1.203,1.531 -2.187,3.116 -2.187,3.499c0,1.312 2.406,2.952 5.741,3.936c4.538,1.367 4.592,2.351 0.328,6.123c-1.859,1.531 -3.335,3.171 -3.335,3.608c0,0.601 1.367,0.765 7.162,0.765l7.162,0l4.1,-3.663c3.936,-3.554 4.264,-3.718 8.748,-4.592c5.905,-1.203 9.349,-2.952 11.099,-5.522c0.765,-1.148 3.39,-3.444 5.85,-5.139l4.483,-3.062l2.843,0.656c4.374,1.039 14.926,0.383 20.721,-1.367c7.49,-2.187 19.682,-8.529 23.181,-12.028c1.367,-1.421 1.093,-3.499 -0.547,-4.1c-1.914,-0.765 -11.645,-0.711 -16.019,0.109l-3.608,0.601l2.187,0.601c1.695,0.492 2.242,0.929 2.351,1.968c0.492,4.155 -14.598,12.575 -22.361,12.575c-5.03,0 -4.975,-1.859 0.164,-5.741c5.085,-3.827 9.185,-6.233 13.176,-7.709c3.062,-1.148 3.226,-1.257 1.531,-1.257c-1.531,-0.055 -1.75,-0.164 -1.148,-0.875c1.093,-1.312 -0.492,-1.531 -8.037,-1.148l-6.834,0.328l-6.123,4.538c-11.809,8.802 -18.206,13.176 -23.454,15.964c-3.171,1.695 -6.069,1.695 -6.233,0c-0.164,-1.367 0.328,-1.968 7.982,-9.021c7.326,-6.779 8.802,-8.802 8.802,-12.356c0,-3.554 -1.64,-6.123 -5.686,-8.857c-7.326,-4.975 -20.283,-8.42 -35.646,-9.404c-10.552,-0.656 -16.62,-0.601 -24.001,0.328Zm42.863,9.349c1.586,0.765 3.991,2.46 5.358,3.718c2.242,2.132 2.406,2.515 2.242,4.702l-0.164,2.406l-14.379,0.164c-7.928,0.055 -14.762,-0.109 -15.254,-0.328c-0.656,-0.383 1.203,-1.914 8.092,-6.615c9.732,-6.615 9.076,-6.451 14.105,-4.046Z" style="fill:#d00000;fill-rule:nonzero;"/><path d="M508.947,156.688c-1.367,0.711 -3.827,2.132 -5.467,3.171c-1.64,1.093 -4.975,3.226 -7.381,4.702c-10.278,6.506 -19.627,12.684 -26.407,17.55c-8.201,5.795 -10.934,7.271 -16.62,8.857c-4.483,1.257 -13.34,1.476 -16.238,0.492c-1.75,-0.601 -3.062,-2.296 -2.515,-3.171c0.164,-0.273 1.586,-0.656 3.171,-0.875c11.591,-1.421 19.409,-2.788 23.618,-4.155c5.413,-1.695 10.934,-4.702 10.934,-5.959c0,-1.859 -2.406,-2.242 -12.028,-2.023c-14.598,0.383 -25.805,2.898 -35.537,7.928c-3.827,2.023 -9.021,6.451 -9.021,7.709c0,0.328 0.547,1.203 1.257,1.914c3.171,3.171 19.682,3.062 33.022,-0.219c3.554,-0.875 6.889,-1.75 7.381,-1.914c0.711,-0.273 0.929,0 1.093,1.203c0.109,1.093 0.711,1.804 2.078,2.515c1.64,0.875 2.843,0.984 7.928,0.765c5.741,-0.273 13.067,-1.64 14.215,-2.624c0.273,-0.273 -0.328,-0.492 -1.476,-0.492c-2.624,0 -4.538,-1.586 -4.1,-3.335c0.383,-1.476 4.538,-4.428 33.46,-23.618c6.889,-4.538 12.629,-8.638 12.739,-9.021c0.164,-0.492 -1.257,-0.656 -5.741,-0.656c-5.085,0 -6.233,0.164 -8.365,1.257Zm-50.9,20.666c2.078,0.711 2.242,2.296 0.328,3.554c-1.968,1.312 -8.748,3.499 -13.395,4.374c-4.592,0.82 -9.294,0.984 -9.294,0.328c0,-1.804 12.575,-7.763 17.769,-8.474c0.929,-0.109 3.608,-0.109 4.592,0.219Z" style="fill:#d00000;fill-rule:nonzero;"/><path d="M278.776,174.566c-3.444,0.328 -5.03,0.875 -10.114,3.444c-3.28,1.695 -8.092,4.538 -10.661,6.342c-6.943,4.811 -19.135,13.012 -26.516,17.823c-12.848,8.365 -13.941,9.13 -13.941,9.896c0,1.093 2.296,1.476 7.162,1.148c4.046,-0.273 4.647,-0.492 8.42,-2.952c2.242,-1.421 5.631,-3.554 7.49,-4.757c1.914,-1.148 8.037,-5.03 13.723,-8.638l10.224,-6.506l1.421,1.093c5.249,4.155 21.049,3.663 32.311,-0.984c8.912,-3.663 18.206,-10.278 18.206,-12.957c0,-2.46 -2.023,-3.116 -9.458,-3.062c-3.663,0.055 -8.748,0.437 -11.317,0.875c-2.57,0.437 -5.631,0.984 -6.834,1.148l-2.187,0.328l1.257,-1.039c0.656,-0.601 1.203,-1.257 1.203,-1.421c0,-0.383 -4.975,-0.273 -10.388,0.219Zm19.573,3.444c0.219,1.093 -2.023,3.335 -5.741,5.85c-6.014,4.046 -12.848,6.561 -17.933,6.561c-2.952,0 -3.608,-0.164 -4.1,-1.093c-0.984,-1.804 -0.219,-2.898 3.444,-5.249c6.451,-4.21 15.527,-7.271 20.885,-7.162c2.679,0.109 3.28,0.273 3.444,1.093Z" style="fill:#d00000;fill-rule:nonzero;"/><path d="M334.815,174.516c-11.372,2.57 -23.892,9.185 -27.446,14.488c-2.898,4.264 -0.82,5.85 7.49,5.686c6.451,-0.055 12.083,-1.093 19.026,-3.499c2.624,-0.875 4.811,-1.586 4.866,-1.586c0.109,0 0.164,0.437 0.164,0.984c0,0.601 0.492,1.476 1.148,2.078c0.929,0.82 1.914,0.984 6.943,0.929c5.795,-0.109 13.559,-1.367 14.543,-2.351c0.383,-0.383 -0.273,-0.547 -1.75,-0.547c-1.75,0 -2.406,-0.273 -2.898,-1.148c-0.492,-0.984 -0.273,-1.421 1.914,-3.444c1.367,-1.312 5.905,-4.155 10.169,-6.397c4.21,-2.242 7.599,-4.264 7.49,-4.592c-0.656,-1.968 -14.324,-1.312 -18.753,0.929c-1.695,0.82 -2.679,1.039 -3.171,0.711c-3.718,-2.734 -3.663,-2.734 -10.169,-2.843c-3.772,-0.109 -7.599,0.164 -9.568,0.601Zm16.73,1.968c1.695,0.929 1.257,2.898 -0.984,4.702c-7.326,5.795 -13.285,8.638 -19.19,9.185c-6.397,0.601 -7.928,-0.875 -4.046,-3.936c4.046,-3.226 11.919,-7.982 15.144,-9.185c3.554,-1.367 7.381,-1.64 9.076,-0.765Z" style="fill:#d00000;fill-rule:nonzero;"/><path d="M389.488,175.604c-1.203,0.547 -2.898,1.586 -3.827,2.351c-0.875,0.765 -4.975,3.608 -9.076,6.287c-8.966,5.905 -13.613,9.404 -13.613,10.169c0,0.656 11.208,0.109 14.324,-0.765c1.148,-0.273 5.686,-2.952 10.114,-5.905c4.483,-3.007 10.06,-6.397 12.465,-7.654c2.406,-1.203 3.936,-2.242 3.335,-2.242c-0.82,0 -0.765,-0.219 0.547,-1.203c0.875,-0.656 1.804,-1.367 2.132,-1.64c0.273,-0.219 -2.843,-0.437 -6.834,-0.437c-5.959,0 -7.818,0.219 -9.568,1.039Z" style="fill:#d00000;fill-rule:nonzero;"/><path d="M412.45,175.932c-6.67,1.148 -8.529,1.914 -3.827,1.531c4.428,-0.328 6.834,0.383 6.834,2.023c0,1.367 0.547,1.367 6.561,-0.055c5.577,-1.312 7.217,-2.242 6.123,-3.28c-0.984,-1.039 -10.333,-1.148 -15.691,-0.219Z" style="fill:#d00000;fill-rule:nonzero;"/></g></svg>