<svg version="1.1" xmlns="http://www.w3.org/2000/svg" width="811" height="662" viewBox="0 0 811 662">
<g transform="translate(0.000000,662.000000) scale(0.100000,-0.100000)"
fill="#000000" stroke="none">
<path d="M5342 5188 c-7 -7 -12 -24 -12 -38 0 -39 -18 -50 -83 -50 -64 0 -91
-10 -107 -39 -9 -17 -2 -24 55 -55 71 -41 100 -69 36 -37 -23 12 -68 28 -101
37 -56 14 -62 14 -103 -4 -78 -35 -109 -90 -69 -124 9 -8 44 -29 77 -47 33
-17 71 -41 85 -52 24 -19 24 -19 -30 1 -30 12 -94 39 -142 61 -94 43 -109 44
-161 7 -35 -25 -50 -60 -38 -91 5 -14 42 -44 85 -71 41 -26 78 -52 82 -57 7
-12 -121 51 -178 87 -21 13 -50 24 -64 24 -37 0 -89 -35 -104 -69 -18 -45 7
-80 104 -144 97 -64 125 -95 45 -49 -30 17 -90 51 -134 76 -99 57 -123 58
-175 9 -78 -75 -63 -108 91 -209 55 -36 99 -67 99 -70 0 -10 -194 98 -239 132
-24 19 -53 34 -63 34 -50 0 -128 -71 -128 -116 0 -44 17 -61 135 -134 63 -39
117 -76 121 -81 8 -14 -234 108 -272 137 -17 13 -42 24 -55 24 -33 0 -95 -44
-114 -80 -34 -66 -16 -90 131 -173 56 -31 107 -63 114 -71 14 -18 -147 53
-242 107 -36 20 -71 37 -78 37 -6 0 -28 -9 -50 -20 -67 -34 -97 -99 -70 -151
6 -10 52 -40 102 -65 89 -45 201 -114 195 -120 -7 -7 -283 107 -320 133 l-39
27 -36 -19 c-70 -38 -104 -129 -67 -182 8 -11 60 -39 117 -62 86 -35 217 -104
168 -88 -8 2 -58 17 -110 32 -52 14 -126 42 -163 61 -37 19 -77 34 -89 34 -26
0 -85 -59 -94 -93 -11 -45 5 -98 40 -133 25 -25 48 -35 111 -49 133 -28 148
-33 198 -64 31 -21 61 -53 91 -99 24 -38 56 -79 71 -90 70 -55 170 -48 225 15
17 18 30 44 30 56 0 13 -24 46 -62 85 -65 66 -64 68 11 17 61 -41 110 -41 154
3 27 28 32 39 32 81 0 40 -6 56 -31 87 -47 61 -51 72 -8 32 73 -69 117 -69
172 -2 46 56 48 79 12 136 l-30 50 34 -21 c18 -12 45 -21 59 -21 34 0 83 43
97 84 13 40 4 66 -39 120 -41 52 -39 54 10 12 74 -63 129 -55 183 27 31 49 32
56 5 109 l-21 41 35 -22 c50 -30 72 -26 123 22 65 62 66 87 8 172 l-48 70 53
-47 c29 -27 62 -48 73 -48 52 0 118 68 118 122 0 13 -14 44 -32 69 l-32 44 30
-27 c58 -54 106 -56 150 -7 50 55 56 105 23 172 l-21 42 39 -37 c42 -41 66
-46 100 -23 61 43 80 133 42 206 -19 38 -19 40 -1 30 10 -5 24 -17 32 -25 18
-22 56 -20 80 4 26 26 39 60 51 130 17 97 17 95 -13 92 l-26 -3 5 59 c5 55 4
61 -27 95 -31 35 -34 37 -93 34 -34 -1 -74 1 -88 5 -15 5 -30 3 -37 -4z"/>
<path d="M3372 3457 c-17 -18 -35 -47 -38 -65 -8 -41 -20 -41 -30 0 l-7 33
-32 -38 c-18 -21 -38 -58 -45 -83 -11 -37 -15 -43 -22 -29 -9 15 -11 15 -28 0
-9 -8 -25 -33 -35 -55 -10 -22 -23 -36 -30 -34 -10 4 -56 -39 -67 -63 -1 -4
-16 -15 -33 -23 -16 -9 -39 -32 -50 -53 -11 -20 -27 -37 -34 -37 -8 0 -35 -22
-60 -48 -26 -26 -60 -54 -78 -61 -17 -7 -42 -28 -54 -46 -15 -21 -37 -37 -61
-44 -23 -7 -50 -27 -69 -51 -18 -22 -41 -40 -51 -40 -10 0 -41 -20 -67 -45
-26 -25 -55 -45 -64 -45 -9 0 -39 -20 -67 -45 -28 -25 -56 -45 -63 -45 -7 0
-31 -14 -54 -30 -22 -17 -60 -37 -84 -45 -23 -9 -57 -26 -74 -39 -17 -13 -50
-29 -72 -35 -22 -6 -58 -23 -79 -38 -22 -14 -59 -30 -84 -35 -50 -9 -150 -71
-150 -92 0 -33 53 -193 86 -259 123 -243 347 -444 589 -527 l58 -20 79 43 c44
23 100 61 124 83 26 25 57 44 79 48 24 5 45 19 67 48 21 25 56 51 96 70 34 16
84 51 110 77 26 27 66 60 89 74 22 14 61 45 85 69 25 24 66 55 92 70 26 15 54
41 63 56 9 16 36 39 59 52 24 12 55 40 70 61 15 21 48 52 75 69 26 16 56 42
66 57 9 15 43 53 75 83 32 31 58 62 58 70 1 8 19 27 41 43 21 15 47 43 57 63
9 20 36 55 59 79 24 23 43 51 43 62 0 11 12 30 26 44 32 30 57 76 48 90 -3 6
3 20 14 32 28 32 44 66 38 83 -3 8 6 30 19 50 38 56 33 70 -28 88 -65 19 -115
62 -170 146 -23 35 -56 72 -74 83 -18 10 -84 31 -148 47 -131 32 -171 52 -200
98 -11 17 -22 31 -26 32 -3 0 -19 -15 -37 -33z"/>
</g>
</svg>