<?xml version="1.0" encoding="UTF-8" standalone="no"?><!DOCTYPE svg PUBLIC "-//W3C//DTD SVG 1.1//EN" "http://www.w3.org/Graphics/SVG/1.1/DTD/svg11.dtd"><svg width="100%" height="100%" viewBox="0 0 600 300" version="1.1" xmlns="http://www.w3.org/2000/svg" xmlns:xlink="http://www.w3.org/1999/xlink" xml:space="preserve" xmlns:serif="http://www.serif.com/" style="fill-rule:evenodd;clip-rule:evenodd;stroke-linejoin:round;stroke-miterlimit:2;"><path d="M34.658,85.447c0.297,-0.12 5.199,-0.24 10.794,-0.24c12.774,-0.04 12.427,-0.2 10.695,4.247l-1.287,3.245l1.98,6.932c2.872,10.097 4.951,14.825 7.278,16.508c1.535,1.122 2.278,2.845 1.634,3.806c-0.842,1.282 -0.644,5.65 0.396,8.935c3.07,9.456 5.298,15.266 7.476,19.473c1.337,2.604 2.476,4.928 2.476,5.209c0,1.042 -18.171,1.202 -19.458,0.16c-0.347,-0.28 -0.248,-1.242 0.149,-2.805c0.693,-2.685 0.495,-4.448 -1.04,-8.534l-0.99,-2.685l-2.278,-0.28c-2.525,-0.28 -14.854,0.08 -16.19,0.481c-1.931,0.601 -2.921,6.731 -2.179,13.182l0.149,1.202l-9.308,0.12c-7.674,0.08 -9.308,0 -9.556,-0.481c-0.149,-0.321 0.446,-1.843 1.287,-3.446c2.327,-4.287 4.605,-10.217 7.179,-18.632c2.278,-7.573 2.377,-8.134 1.485,-12.221c-0.297,-1.202 -0.05,-1.683 1.634,-3.526c2.872,-3.085 5.347,-9.296 7.575,-19.032c0.99,-4.488 1.04,-4.808 0.248,-7.292c-0.941,-3.085 -0.99,-4.087 -0.149,-4.327Zm10.744,22.678c0,-0.04 -0.198,-0.12 -0.446,-0.12c-0.248,0 -1.485,3.366 -2.674,7.493c-3.367,11.299 -3.317,10.017 -0.347,10.337c3.218,0.361 8.417,-0.12 8.714,-0.801c0.149,-0.28 0,-1.202 -0.297,-2.084c-0.743,-2.043 -4.951,-14.625 -4.951,-14.825Zm36.045,-22.759c0.198,-0.12 8.219,-0.2 17.923,-0.12c15.299,0.12 17.874,0.24 19.805,0.841c3.961,1.282 7.278,4.568 8.764,8.775c1.188,3.366 1.485,18.391 0.446,22.718c-0.891,3.847 -1.881,5.329 -5.694,8.575l-2.674,2.284l3.119,7.533c1.733,4.127 3.268,7.653 3.466,7.893c0.198,0.2 0.644,1.122 0.99,2.003c0.347,0.881 1.287,2.644 2.03,3.887c0.792,1.282 1.436,2.725 1.436,3.286c0,0.922 -0.248,1.002 -3.218,1.242c-1.733,0.16 -5.941,0.12 -9.259,-0.04l-6.09,-0.361l-0.05,-3.205c0,-2.524 -0.396,-4.207 -1.881,-8.014c-2.327,-6.09 -5.199,-12.1 -5.941,-12.541c-0.297,-0.2 -1.436,-0.481 -2.575,-0.641c-1.634,-0.2 -2.228,-0.08 -2.872,0.521c-0.792,0.721 -0.842,1.643 -0.644,9.336c0.149,7.453 0.347,8.895 1.287,11.299c0.842,2.003 0.99,2.845 0.594,3.165c-0.743,0.601 -18.121,0.641 -18.814,0.08c-0.297,-0.28 -0.149,-1.162 0.495,-2.564c1.683,-3.927 2.03,-6.812 2.03,-17.269c0,-10.738 -0.248,-12.141 -2.426,-14.104c-0.743,-0.681 -0.693,-0.881 0.743,-3.165l1.584,-2.484l0,-9.135c0,-9.256 -0.644,-14.304 -2.228,-17.99c-0.347,-0.841 -0.545,-1.643 -0.347,-1.803Zm31.341,14.585c-1.436,-1.162 -1.535,-1.162 -7.179,-1.162c-4.506,0 -5.842,0.12 -6.437,0.641c-0.644,0.521 -0.792,1.803 -0.792,7.693c0,3.887 0.248,7.372 0.495,7.693c0.347,0.481 1.634,0.601 6.04,0.601c3.07,0 6.189,-0.12 6.882,-0.28c2.03,-0.481 2.426,-1.803 2.426,-8.174l0,-5.85l-1.436,-1.162Zm35.946,-14.344c1.04,-0.2 6.387,-0.361 11.883,-0.401c11.833,-0.04 14.012,0.361 17.379,3.326c4.208,3.686 4.951,6.05 5.496,17.269c0.396,7.973 0.495,8.534 1.782,10.778l1.337,2.324l-0.99,1.683c-1.485,2.364 -1.98,5.489 -2.377,13.863c-0.149,4.087 -0.644,8.655 -0.99,10.217c-1.188,4.528 -4.109,7.493 -9.209,9.216c-1.04,0.321 -1.881,0.761 -1.881,0.962c0,0.2 0.99,1.923 2.228,3.806c1.238,1.923 2.228,3.887 2.228,4.407c0,0.881 -0.248,0.962 -3.664,1.202c-3.614,0.28 -9.605,-0.04 -10.596,-0.521c-0.248,-0.12 -1.386,-1.763 -2.525,-3.646c-3.07,-5.209 -3.614,-5.609 -7.823,-6.01c-4.06,-0.361 -7.031,-1.563 -9.506,-3.806c-3.07,-2.845 -3.812,-5.409 -4.506,-15.226c-0.743,-10.538 -0.99,-12.261 -2.079,-14.344l-1.04,-1.963l1.04,-1.723c1.386,-2.284 1.535,-3.125 2.079,-12.221c0.248,-4.287 0.792,-8.735 1.139,-9.817c1.782,-5.249 5.298,-8.374 10.596,-9.376Zm18.715,14.224c-1.139,-1.002 -1.386,-1.042 -6.783,-1.002c-3.07,0 -6.09,0.2 -6.684,0.441c-2.278,0.881 -2.377,1.803 -2.377,20.154c0,20.435 -0.099,19.874 4.506,20.635c1.733,0.321 4.208,0.401 6.288,0.2c6.783,-0.521 6.486,0.321 6.684,-18.031c0.248,-17.83 0,-20.996 -1.634,-22.398Zm21.686,-14.024c0.297,-0.561 1.436,-0.641 8.665,-0.641c10.447,0 10.348,-0.04 8.962,3.806c-0.842,2.284 -1.089,4.568 -1.386,12.621c-0.446,11.62 -0.248,32.735 0.297,35.22c0.644,2.845 2.079,3.446 8.268,3.446c6.387,0 7.427,-0.441 8.219,-3.526c0.347,-1.362 0.545,-8.975 0.545,-21.516c0,-19.513 -0.05,-20.635 -1.881,-28.208c-0.198,-0.721 -0.05,-1.242 0.396,-1.483c0.396,-0.2 4.308,-0.361 8.764,-0.361c6.833,0 8.12,0.08 8.367,0.601c0.149,0.361 -0.149,1.923 -0.644,3.526c-0.792,2.484 -0.941,4.448 -0.941,14.104c0,10.818 0.05,11.299 1.139,13.503c1.089,2.124 1.139,2.324 0.347,3.245c-1.139,1.442 -1.634,4.728 -1.98,13.503c-0.347,8.895 -0.842,11.82 -2.476,14.384c-1.535,2.524 -3.466,3.967 -6.684,5.169c-2.377,0.841 -3.614,1.002 -10.15,1.162c-14.755,0.401 -19.706,-1.002 -23.221,-6.611c-1.337,-2.084 -1.782,-4.888 -2.278,-15.066c-0.495,-9.216 -0.594,-9.696 -1.832,-11.74l-1.337,-2.084l1.436,-2.244c1.337,-2.204 1.386,-2.404 1.634,-10.778c0.248,-8.815 -0.198,-13.303 -1.733,-17.309c-0.446,-1.162 -0.644,-2.364 -0.495,-2.725Zm54.958,0.441l-0.248,-1.082l39.708,0l-0.099,8.695l-0.149,8.735l-1.238,-0.16c-0.693,-0.04 -2.179,-0.801 -3.268,-1.643c-2.674,-2.003 -4.654,-2.404 -11.437,-2.404c-7.823,0 -7.575,-0.28 -7.575,8.174c0,5.529 0.099,6.611 0.743,6.812c0.446,0.12 2.476,0.321 4.605,0.481c3.812,0.24 3.812,0.24 6.437,-1.202c4.357,-2.444 4.308,-2.564 4.456,7.493c0.099,8.575 0.099,8.695 -0.891,8.695c-0.594,0 -2.079,-0.641 -3.317,-1.402c-2.179,-1.362 -2.426,-1.402 -6.536,-1.402c-2.674,0 -4.555,0.2 -4.902,0.481c-0.743,0.601 -0.842,12.221 -0.099,13.142c0.347,0.481 2.129,0.601 8.813,0.721l8.318,0.16l2.129,-2.043c1.485,-1.402 2.476,-2.043 3.317,-2.043l1.188,0l0,18.151l-19.805,-0.2c-10.942,-0.12 -20.052,-0.361 -20.3,-0.561c-0.198,-0.2 0,-1.402 0.495,-2.725c1.683,-4.287 2.179,-9.376 1.832,-18.992c-0.297,-8.414 -0.396,-9.135 -1.535,-11.139l-1.238,-2.204l1.188,-1.843c1.238,-1.843 1.238,-1.923 1.238,-12.501c-0.05,-7.933 -0.248,-11.459 -0.792,-13.863c-0.446,-1.763 -0.891,-3.686 -1.04,-4.327Zm74.374,67.298c0,0 -1.039,-4.225 -1.493,-7.076c-1.287,-7.853 -2.079,-10.297 -4.852,-14.745c-0.743,-1.242 -3.02,-2.164 -4.951,-2.003l-1.584,0.12l-0.149,7.933c-0.099,6.852 0,8.414 0.891,11.339c1.436,5.008 1.535,4.808 -2.327,5.089c-4.951,0.401 -14.408,0.321 -14.705,-0.08c-0.149,-0.2 0.149,-1.322 0.644,-2.524c1.683,-3.927 2.179,-8.775 1.931,-18.992c-0.198,-8.935 -0.297,-9.736 -1.337,-11.7l-1.139,-2.084l1.089,-2.124c1.04,-1.843 1.188,-2.885 1.386,-9.576c0.248,-8.334 -0.396,-15.025 -1.881,-18.832c-0.495,-1.362 -0.842,-2.604 -0.693,-2.805c0.149,-0.16 7.328,-0.321 15.992,-0.321c17.725,0 19.458,0.2 22.825,2.644c4.109,3.005 5.397,7.493 5.496,19.152c0.099,11.459 -0.99,15.146 -5.694,19.353l-2.327,2.084l0.792,1.523c1.089,2.084 3.317,7.693 5.397,13.783c0.941,2.765 2.525,6.371 3.416,8.014c0.285,0.494 0.94,1.542 0.94,1.542c5.365,8.469 12.553,15.537 20.973,17.693c6.783,1.777 11.883,0.642 19.211,-4.196c5.595,-3.703 8.962,-5.085 12.725,-5.282c2.723,-0.197 3.713,0 5.644,0.938c2.971,1.481 5.991,4.492 7.229,7.208c0.99,2.222 1.287,8.146 0.594,11.7c-0.149,0.987 -0.198,1.777 -0.05,1.777c0.099,0 1.634,-1.678 3.317,-3.752c9.259,-11.157 15.943,-14.909 25.499,-14.366c3.664,0.197 5.05,0.494 7.922,1.876c4.357,2.024 7.08,3.851 10.942,7.356c9.209,8.294 12.774,9.725 21.389,8.59c2.773,-0.346 6.437,-0.987 8.12,-1.481c3.961,-1.037 11.239,-4.64 14.606,-7.208c3.416,-2.616 9.337,-8.945 12.704,-11.256c7.802,-5.356 13.075,-8.193 13.327,-8.461c0.169,-0.18 4.868,-3.458 5.731,-3.246c1.026,-0.29 2.143,-0.221 2.569,-0.124c0.49,0.111 3.42,1.702 4.476,2.452c0.752,0.534 1.215,1.525 1.859,2.047c0.984,0.797 2.131,2.333 3.17,2.926c2.986,1.701 2.534,3.763 2.534,4.059c0,0.79 -13.198,6.025 -17.307,11.603c-6.734,9.182 -17.775,18.315 -28.172,23.301c-10.794,5.184 -18.072,6.911 -28.964,6.911c-14.655,0 -24.31,-3.554 -34.064,-12.539c-6.585,-6.023 -6.833,-5.973 -14.953,1.925c-8.665,8.442 -20.454,21.01 -26.494,21.616c-3.941,0.396 -7.523,-0.03 -9.12,-1.449c-5.411,-5.576 0.262,-17.995 0.262,-23.376c0,-1.777 0.149,-3.851 0.347,-4.64l0.396,-1.432l-1.881,1.185c-6.387,3.851 -11.338,5.085 -20.448,5.035c-6.288,0 -6.981,-0.099 -12.13,-1.777c-12.774,-4.196 -23.667,-15.156 -27.479,-27.497c-0.969,-3.229 -1.625,-5.6 -2.15,-7.831Zm0.29,-53.555c-1.436,-1.202 -1.535,-1.202 -6.882,-1.202c-4.01,0 -5.595,0.16 -5.991,0.561c-0.396,0.361 -0.545,2.925 -0.446,8.294l0.149,7.773l6.04,0c8.467,0 8.268,0.16 8.467,-8.014l0.149,-6.211l-1.485,-1.202Zm32.232,-14.104c2.278,-0.641 3.862,-0.721 12.774,-0.641c9.704,0.12 10.249,0.16 12.576,1.122c2.921,1.202 4.951,3.125 6.338,6.01c1.683,3.566 1.931,5.008 2.278,13.863c0.347,8.134 0.396,8.494 1.733,10.538c1.337,2.124 1.337,2.164 0.446,3.406c-1.337,1.843 -1.584,2.765 -1.832,7.853c-0.149,2.524 -0.495,7.493 -0.792,10.979c-0.446,6.211 -0.545,6.451 -2.278,9.135c-1.238,1.923 -2.426,3.125 -3.812,3.887c-3.664,2.043 -5.149,2.244 -15.893,2.244c-9.605,-0.04 -10.001,-0.04 -12.675,-1.082c-3.416,-1.242 -6.486,-4.207 -7.625,-7.212c-0.495,-1.362 -0.891,-5.369 -1.238,-11.9c-0.545,-10.738 -0.644,-11.54 -2.03,-13.743c-0.891,-1.442 -0.891,-1.483 0.248,-3.606c1.089,-1.883 1.238,-3.045 1.733,-10.939c0.545,-9.656 1.188,-12.501 3.515,-15.426c2.079,-2.604 3.565,-3.606 6.536,-4.488Zm17.428,13.303c-1.535,-0.481 -9.952,-0.481 -11.437,0c-0.594,0.2 -1.337,0.761 -1.634,1.202c-1.188,1.763 -1.683,26.284 -0.743,34.819c0.446,3.887 1.337,4.648 5.842,5.049c3.367,0.28 7.377,0 8.863,-0.641c1.733,-0.761 1.931,-2.725 2.03,-20.515c0.05,-16.027 0,-17.47 -0.792,-18.471c-0.495,-0.601 -1.436,-1.242 -2.129,-1.442Zm53.434,-14.264c0.693,-0.16 4.803,-0.321 9.209,-0.321c9.11,-0.04 12.031,0.441 14.903,2.484c2.674,1.923 3.565,4.007 4.605,10.818c0.495,3.366 1.188,6.771 1.485,7.613c0.99,2.725 0.891,2.765 -7.377,2.604c-4.159,-0.08 -7.674,-0.28 -7.922,-0.521c-0.347,-0.28 -0.297,-1.122 0.198,-2.604c1.139,-3.486 0.99,-5.69 -0.545,-6.852c-1.139,-0.841 -1.733,-0.962 -5.199,-0.962c-6.338,0.04 -6.09,-0.481 -6.486,12.942c-0.396,13.583 0.248,28.288 1.386,29.65c0.941,1.162 2.624,1.683 5.397,1.683c5.001,0 6.684,-1.883 5.793,-6.411c-0.248,-1.442 -0.644,-2.925 -0.842,-3.286c-0.644,-1.282 1.832,-1.643 8.912,-1.322c3.565,0.12 6.585,0.401 6.833,0.561c0.198,0.16 0.05,1.162 -0.347,2.284c-0.396,1.082 -1.04,4.448 -1.485,7.533c-0.792,5.97 -1.584,7.773 -4.407,10.137c-2.624,2.244 -5.347,2.725 -14.953,2.725c-7.674,-0.04 -8.615,-0.12 -10.893,-0.922c-3.02,-1.122 -4.506,-2.204 -5.793,-4.287c-1.782,-2.765 -1.931,-3.766 -2.575,-15.025c-0.545,-9.977 -0.693,-11.219 -1.683,-12.862c-1.287,-2.124 -1.337,-2.685 -0.396,-3.806c1.287,-1.483 1.683,-3.927 2.03,-11.98c0.297,-8.094 1.04,-12.381 2.426,-14.545c1.733,-2.685 4.308,-4.488 7.724,-5.329Zm44.66,0.401c3.416,-0.962 18.666,-1.082 22.33,-0.2c3.317,0.801 5.892,2.604 7.476,5.289c2.228,3.646 2.327,4.207 2.971,14.264c0.594,9.015 0.693,9.576 1.931,11.54l1.337,2.084l-1.337,1.803c-1.287,1.763 -1.337,2.084 -1.931,12.381c-0.495,9.216 -0.743,10.898 -1.733,13.182c-2.921,6.691 -8.516,8.655 -23.072,8.054c-5.248,-0.2 -6.486,-0.361 -9.209,-1.402c-2.426,-0.881 -3.515,-1.563 -4.654,-2.885c-2.971,-3.606 -3.466,-5.69 -4.109,-17.83c-0.297,-6.611 -0.644,-9.256 -1.287,-10.618c-1.04,-2.244 -1.04,-3.326 0.05,-5.569c0.693,-1.402 0.99,-3.646 1.287,-10.217c0.446,-9.176 0.792,-11.139 2.624,-14.344c1.634,-2.765 4.109,-4.608 7.328,-5.529Zm17.923,14.104c-1.287,-1.242 -1.337,-1.242 -6.04,-1.242c-5.446,0.04 -7.278,0.561 -7.872,2.324c-0.495,1.402 -0.495,35.22 0,36.622c0.644,1.883 2.377,2.484 7.278,2.484c5.001,0.04 6.684,-0.481 7.427,-2.324c0.446,-1.122 0.743,-17.47 0.545,-31.774c-0.05,-4.608 -0.099,-4.928 -1.337,-6.09Zm93.132,4.973c0.941,-0.987 4.208,-0.938 5.347,0c0.446,0.444 0.842,1.333 0.842,2.024c0,0.691 0.248,1.975 0.545,2.814c1.04,2.814 -0.545,5.924 -2.723,5.381c-0.99,-0.247 -1.089,-0.099 -0.891,1.53c0.297,2.32 -1.04,3.9 -2.872,3.505c-1.188,-0.197 -1.287,-0.099 -1.089,1.234c0.297,2.073 -1.139,3.554 -3.169,3.308c-1.386,-0.148 -1.535,-0.049 -1.238,0.839c0.842,2.32 -1.287,4.344 -3.416,3.209c-0.99,-0.543 -1.089,-0.494 -0.792,0.247c0.941,2.468 0.842,3.061 -0.495,4.147c-0.941,0.741 -1.782,0.987 -2.525,0.79c-1.04,-0.247 -1.139,-0.148 -0.842,0.987c0.198,0.79 0,1.728 -0.545,2.518c-0.743,1.135 -1.089,1.284 -2.723,1.037c-1.881,-0.247 -1.881,-0.197 -1.386,0.938c0.842,1.777 -0.297,3.653 -2.179,3.653c-1.337,0 -1.436,0.099 -1.139,1.382c0.396,1.925 -1.337,3.752 -3.268,3.456c-1.386,-0.197 -1.436,-0.148 -1.139,1.432c0.396,2.123 -0.446,3.11 -2.624,3.11c-1.485,0 -1.634,0.099 -1.139,0.938c0.693,1.382 0.644,1.876 -0.495,3.011c-0.644,0.642 -1.634,0.987 -2.773,0.987c-1.584,0 -2.228,-0.395 -4.852,-3.159c-2.674,-2.765 -3.317,-3.209 -5.793,-3.703c-3.317,-0.691 -4.902,-1.975 -4.902,-3.999c0,-1.432 1.485,-3.456 2.476,-3.456c0.297,0 1.634,0.543 2.971,1.234c1.337,0.691 2.674,1.234 2.971,1.234c1.089,0 -0.099,-1.037 -2.03,-1.827c-2.179,-0.839 -2.921,-2.419 -2.03,-4.344c0.792,-1.678 2.129,-1.876 5.001,-0.741c3.416,1.333 3.565,1.234 1.139,-0.494c-2.278,-1.629 -2.624,-3.011 -1.238,-4.542c1.04,-1.135 2.822,-1.135 5.496,0.099c2.525,1.135 2.674,0.938 0.347,-0.494c-2.03,-1.234 -2.278,-2.715 -0.693,-4.394c1.04,-1.086 1.98,-1.185 4.01,-0.296c0.743,0.296 0.792,0.148 0.248,-1.185c-0.495,-1.333 -0.396,-1.629 0.644,-2.765c1.386,-1.432 1.98,-1.53 4.109,-0.444c1.584,0.839 1.584,0.79 0.743,-0.148c-1.139,-1.234 -1.139,-2.271 0.099,-3.357c0.941,-0.839 2.575,-0.839 4.654,0c0.891,0.395 0.891,0.346 0.099,-0.889c-0.693,-0.987 -0.743,-1.481 -0.297,-2.271c0.644,-1.284 2.575,-1.777 3.862,-1.086c1.337,0.741 1.931,0.691 1.188,-0.049c-0.941,-0.938 -0.693,-2.271 0.644,-3.159c1.139,-0.741 1.386,-0.741 3.565,0c2.971,0.987 3.02,0.987 1.436,-0.247c-0.693,-0.543 -1.287,-1.333 -1.287,-1.678c0,-1.086 2.03,-2.222 3.862,-2.222c1.436,0 1.584,-0.099 1.139,-0.691c-0.644,-0.741 -0.396,-0.889 2.822,-1.53c0.842,-0.197 1.584,-0.494 1.584,-0.741c0,-0.247 0.347,-0.741 0.743,-1.135Zm-73.801,32.996c1.04,-1.135 1.584,-1.284 4.357,-1.284c2.426,0 3.466,0.247 4.407,0.987c2.674,2.073 3.02,8.985 0.644,11.749c-1.04,1.234 -1.485,1.333 -4.654,1.333c-3.119,0 -3.614,-0.148 -4.803,-1.333c-1.04,-1.037 -1.386,-1.925 -1.584,-4.048c-0.297,-3.653 0.198,-5.825 1.634,-7.405Z" style="fill:#fff1d4;"/></svg>