<?xml version="1.0" standalone="no"?>
<!DOCTYPE svg PUBLIC "-//W3C//DTD SVG 20010904//EN"
 "http://www.w3.org/TR/2001/REC-SVG-20010904/DTD/svg10.dtd">
<svg version="1.0" xmlns="http://www.w3.org/2000/svg"
 width="588.000000pt" height="561.000000pt" viewBox="0 0 588.000000 561.000000"
 preserveAspectRatio="xMidYMid meet">
<metadata>
Created by potrace 1.16, written by Peter Selinger 2001-2019
</metadata>
<g transform="translate(0.000000,561.000000) scale(0.100000,-0.100000)"
fill="#000000" stroke="none">
<path d="M0 2805 l0 -2805 2940 0 2940 0 0 2805 0 2805 -2940 0 -2940 0 0
-2805z m2946 2474 c34 -27 88 -77 121 -113 62 -66 137 -179 131 -197 -2 -5
-21 20 -42 56 -21 36 -40 65 -43 65 -2 0 -1 -4 2 -10 3 -5 4 -10 2 -10 -2 0
-22 26 -45 58 -36 49 -82 93 -212 202 l-25 21 25 -12 c14 -6 53 -34 86 -60z
m-379 -21 c88 -41 204 -124 293 -207 54 -51 37 -54 -25 -4 -170 137 -249 190
-349 233 -47 20 -63 37 -23 24 12 -4 59 -24 104 -46z m828 -103 c38 -79 91
-243 81 -252 -3 -4 -6 2 -6 13 0 15 -2 16 -9 5 -8 -12 -11 -8 -16 15 -19 95
-42 160 -86 249 -38 76 -43 93 -24 70 14 -16 41 -61 60 -100z m-1298 15 c118
-23 221 -57 319 -106 97 -48 170 -100 151 -107 -8 -3 -18 -2 -23 3 -5 5 -65
38 -134 73 -120 63 -253 110 -390 140 -99 22 -35 20 77 -3z m1627 -179 c33
-100 37 -134 27 -206 l-8 -60 -2 58 c-1 74 -27 199 -52 256 -10 24 -19 49 -19
55 1 25 31 -32 54 -103z m-733 -15 c19 -8 45 -25 58 -37 23 -22 23 -23 5 -30
-18 -7 -18 -8 1 -9 11 0 31 -10 45 -21 l25 -21 -35 6 -35 5 39 -32 c51 -41
114 -101 100 -93 -7 3 -14 -7 -18 -24 -6 -31 -21 -36 -86 -31 l-25 2 30 -25
c17 -13 27 -27 24 -31 -12 -12 -62 8 -66 26 -3 11 -9 19 -14 19 -18 0 40 -100
75 -129 9 -8 16 -18 16 -23 0 -6 -7 -4 -17 3 -9 8 -30 14 -47 14 -17 1 -42 5
-55 9 -16 6 -21 5 -17 -3 4 -5 22 -13 41 -17 30 -5 66 -30 54 -37 -37 -21 -51
-27 -64 -27 -9 0 -13 -4 -10 -10 3 -5 26 -10 50 -10 40 0 44 2 47 28 3 27 3
27 16 5 12 -22 6 -57 -9 -48 -4 3 -13 -4 -19 -15 -10 -18 -14 -19 -27 -8 -13
11 -17 11 -21 0 -3 -10 -11 -7 -29 10 -20 19 -25 20 -33 8 -14 -22 -12 -27 13
-26 17 1 21 -4 19 -19 -2 -11 -10 -25 -18 -31 -8 -6 -14 -18 -14 -27 0 -18
-16 -30 -41 -32 -9 -1 -25 -9 -34 -19 -10 -9 -22 -14 -29 -11 -6 3 -19 8 -28
11 -10 3 -20 15 -23 25 -4 10 -11 19 -16 19 -13 0 -11 -24 2 -37 6 -6 8 -16 5
-22 -10 -16 -42 -13 -56 4 -7 8 -20 14 -29 13 -29 -5 -17 27 17 43 35 16 52
35 52 58 0 11 -3 11 -15 1 -8 -7 -15 -9 -15 -4 0 5 -9 -6 -20 -23 -21 -35 -44
-45 -33 -15 3 9 10 22 14 28 5 6 6 14 3 17 -11 10 25 57 44 57 12 0 14 2 4 8
-16 11 -6 39 19 52 10 6 16 17 13 24 -3 8 4 24 16 36 27 27 18 40 -10 15 -26
-23 -52 -6 -34 23 9 13 26 17 72 17 33 0 58 3 55 7 -7 12 53 9 82 -4 30 -13
33 -28 5 -28 -11 0 -20 -5 -20 -11 0 -16 64 -6 67 11 2 8 -15 35 -36 60 -38
43 -40 44 -67 30 -16 -7 -33 -13 -38 -11 -5 1 -16 -4 -25 -12 -26 -23 -61 -28
-62 -9 0 14 -3 12 -16 -5 -8 -13 -22 -23 -29 -23 -8 0 -14 -4 -14 -10 0 -5 -7
-10 -15 -10 -26 0 -7 51 34 92 45 46 72 78 67 78 -3 0 -16 -4 -30 -10 -16 -6
-26 -6 -26 0 0 5 -6 7 -14 4 -7 -3 -16 2 -19 10 -4 9 -14 16 -24 16 -13 0 -15
-2 -5 -9 9 -5 -2 -15 -35 -32 -51 -26 -65 -38 -56 -52 8 -13 -30 -37 -49 -31
-14 4 -18 -1 -18 -21 0 -17 -7 -28 -22 -34 -13 -5 -22 -11 -20 -15 6 -17 -1
-25 -40 -42 -24 -10 -47 -20 -52 -22 -5 -3 -6 0 -2 6 3 6 1 12 -5 14 -11 4 28
47 76 83 15 12 27 32 29 49 2 23 12 34 43 50 23 12 62 36 89 55 73 53 168 56
169 6 0 -5 15 -15 32 -21 26 -8 30 -13 21 -22 -9 -9 -8 -12 5 -12 10 0 29 -7
43 -16 23 -16 24 -16 17 2 -3 11 -9 21 -12 24 -17 14 -69 110 -60 110 16 0
147 -124 144 -137 -3 -8 16 -11 61 -10 35 1 64 5 64 8 0 3 -29 41 -65 84 -36
43 -65 85 -65 93 0 8 -19 32 -42 53 -47 43 -47 46 3 25z m-75 -21 c20 -8 33
-19 29 -25 -3 -5 -1 -10 5 -10 6 0 8 -4 5 -10 -3 -5 1 -10 9 -10 9 0 16 -4 16
-10 0 -15 -32 -12 -54 5 -11 8 -31 15 -45 15 -30 0 -113 28 -91 31 8 1 38 1
65 0 l50 -1 -30 14 c-41 20 -6 21 41 1z m-1091 -16 c55 -5 138 -19 184 -30 82
-19 221 -77 221 -91 0 -12 -15 -9 -72 13 -102 40 -302 89 -412 101 -61 6 -114
14 -118 17 -9 8 68 4 197 -10z m809 -21 c-15 -7 -28 -7 -40 1 -16 9 -12 10 21
10 35 0 37 -2 19 -11z m146 -8 l25 -19 -37 6 c-21 3 -58 0 -82 -7 -32 -9 -49
-9 -63 -1 -16 9 -15 10 8 11 14 0 34 7 45 15 27 20 74 18 104 -5z m459 -21
c24 -21 41 -42 38 -45 -11 -11 -67 27 -82 56 -21 40 -9 37 44 -11z m-924 21
c3 -6 -1 -7 -9 -4 -18 7 -21 14 -7 14 6 0 13 -4 16 -10z m265 -9 c0 -5 -7 -12
-16 -15 -14 -5 -15 -4 -4 9 14 17 20 19 20 6z m1007 -43 c-3 -8 -6 -5 -6 6 -1
11 2 17 5 13 3 -3 4 -12 1 -19z m-747 2 c-8 -5 -22 -9 -30 -9 -10 0 -8 3 5 9
27 12 43 12 25 0z m658 -87 c19 -34 15 -52 -9 -46 -23 6 -69 45 -69 59 0 4 14
-5 30 -21 37 -35 37 -29 5 35 -14 27 -25 55 -25 61 0 12 48 -49 68 -88z m-905
68 c-17 -11 -55 -27 -84 -35 -60 -18 -125 -54 -153 -85 -11 -12 -25 -21 -31
-21 -7 0 -18 -7 -25 -15 -7 -8 -19 -15 -27 -15 -9 0 -13 6 -9 15 9 24 -7 17
-29 -13 -15 -21 -15 -24 -2 -13 9 7 17 9 17 3 0 -15 -28 -35 -39 -28 -5 4 -28
-12 -51 -35 -22 -23 -44 -39 -47 -35 -4 4 -46 -34 -93 -83 -50 -52 -102 -96
-125 -105 -21 -9 -40 -15 -41 -13 -8 7 28 47 43 47 22 0 73 39 73 57 0 27 34
73 54 73 10 0 51 29 91 65 40 36 77 65 81 65 5 0 22 11 38 25 16 14 33 25 39
25 5 0 21 8 35 19 15 10 38 22 51 26 14 4 46 21 72 36 25 16 67 33 93 38 26 5
50 11 53 15 4 3 16 6 27 6 18 0 16 -3 -11 -19z m404 4 c28 -8 57 -23 64 -32
13 -15 11 -16 -11 -9 -14 5 -35 8 -46 8 -21 0 -89 47 -68 48 6 0 33 -7 61 -15z
m-312 -5 c-28 -12 -67 -12 -60 0 3 6 23 10 43 9 30 0 33 -2 17 -9z m195 -5
c11 -13 8 -15 -14 -15 -25 0 -33 10 -19 23 10 11 19 8 33 -8z m437 -7 c-3 -8
-6 -5 -6 6 -1 11 2 17 5 13 3 -3 4 -12 1 -19z m37 -14 c5 -14 4 -15 -9 -4 -17
14 -19 20 -6 20 5 0 12 -7 15 -16z m-739 -30 c-53 -44 -115 -84 -115 -73 0 21
-18 -2 -23 -30 -7 -32 -35 -55 -81 -67 l-29 -7 18 30 c9 16 30 38 45 48 16 11
27 21 25 24 -8 7 42 41 107 71 76 36 93 38 53 4z m785 -9 c0 -5 -5 -3 -10 5
-5 8 -10 20 -10 25 0 6 5 3 10 -5 5 -8 10 -19 10 -25z m367 -2 c-3 -10 -5 -4
-5 12 0 17 2 24 5 18 2 -7 2 -21 0 -30z m-1452 18 c-16 -15 -65 -25 -65 -13 0
11 21 19 55 21 12 1 15 -3 10 -8z m765 -11 c0 -5 -6 -10 -14 -10 -8 0 -18 5
-21 10 -3 6 3 10 14 10 12 0 21 -4 21 -10z m271 -21 c26 -16 66 -55 89 -84 23
-30 46 -53 50 -50 11 7 143 -101 218 -177 42 -43 62 -72 60 -84 -2 -14 4 -20
25 -22 19 -2 32 -13 43 -35 l16 -32 -26 30 -26 30 10 -30 c11 -29 11 -29 -9
-10 -37 32 -22 2 23 -50 41 -46 46 -48 70 -37 23 10 31 8 66 -16 47 -33 50
-40 10 -34 -18 3 -30 10 -30 19 0 11 -6 14 -22 9 -47 -14 -58 -15 -58 -4 0 5
-7 8 -14 5 -9 -4 -17 1 -21 12 -7 22 -64 81 -78 81 -5 0 -2 -10 9 -21 l19 -22
-25 14 c-44 25 -68 66 -31 54 42 -13 -12 57 -151 199 -77 77 -172 174 -211
214 -39 39 -67 72 -63 72 5 0 31 -14 57 -31z m-231 -8 c0 -5 -9 -7 -20 -4 -11
3 -20 7 -20 9 0 2 9 4 20 4 11 0 20 -4 20 -9z m489 -46 c-2 -48 1 -59 24 -83
15 -15 27 -32 27 -38 0 -5 -5 -1 -11 9 -6 10 -21 22 -34 27 -13 5 -29 18 -35
29 -8 17 -8 19 4 15 12 -5 14 4 13 45 -2 28 1 51 6 51 5 0 7 -25 6 -55z m283
20 c-2 -19 -6 -35 -8 -35 -2 0 -4 16 -4 35 0 19 4 35 8 35 4 0 6 -16 4 -35z
m-1917 5 c13 -6 15 -9 5 -9 -8 0 -22 4 -30 9 -18 12 -2 12 25 0z m1245 -65
c-13 -35 -22 -27 -25 25 -2 41 -2 41 17 23 16 -16 17 -24 8 -48z m-830 45 c0
-5 -4 -10 -10 -10 -5 0 -10 5 -10 10 0 6 5 10 10 10 6 0 10 -4 10 -10z m367
-18 c-10 -10 -14 -22 -10 -25 3 -4 1 -7 -6 -7 -6 0 -22 -9 -34 -20 l-21 -21
-8 22 c-13 33 25 67 76 68 18 1 18 0 3 -17z m1279 -48 c-7 -55 -26 -128 -31
-122 -2 2 0 23 5 48 5 25 11 62 15 83 9 54 19 46 11 -9z m-768 13 c5 -24 -15
-21 -28 4 -10 18 -9 20 7 17 10 -2 19 -11 21 -21z m289 17 c-3 -3 -12 -4 -19
-1 -8 3 -5 6 6 6 11 1 17 -2 13 -5z m-1700 -22 c123 -12 93 -23 -43 -15 -171
10 -296 6 -390 -12 -43 -8 -79 -13 -82 -11 -8 9 96 31 233 50 35 5 177 -1 282
-12z m523 8 c0 -5 -17 -21 -37 -34 -20 -14 -38 -32 -39 -39 -4 -28 -37 -67
-56 -67 -19 0 -18 3 7 38 54 72 87 102 123 111 1 1 2 -3 2 -9z m-368 -42 c-7
-7 -12 -8 -12 -2 0 14 12 26 19 19 2 -3 -1 -11 -7 -17z m1198 -13 c13 8 40 -6
40 -21 0 -8 6 -14 14 -14 17 0 25 -11 31 -40 2 -13 0 -18 -7 -14 -5 4 -14 1
-18 -7 -7 -10 -11 -10 -24 0 -9 8 -16 20 -16 27 0 10 6 11 26 3 41 -15 41 -2
0 17 -20 10 -36 21 -36 26 0 4 -7 8 -17 8 -14 0 -14 -2 2 -20 10 -11 13 -20 8
-20 -6 0 -23 16 -37 35 l-27 35 26 -10 c15 -6 30 -8 35 -5z m531 -35 c7 -22
20 -47 31 -56 17 -16 18 -16 19 7 0 22 1 23 9 4 18 -42 5 -47 -40 -15 -16 11
-32 20 -37 19 -22 -4 -25 3 -9 20 13 14 14 24 6 45 -6 17 -6 25 0 21 5 -3 15
-24 21 -45z m-1332 4 c-55 -60 -79 -82 -79 -72 0 6 -6 8 -14 5 -10 -4 -12 1
-8 16 10 44 51 75 101 76 l24 1 -24 -26z m351 -4 c-11 -21 -22 -25 -33 -13 -9
9 12 33 30 33 11 0 11 -4 3 -20z m-60 6 c0 -3 -4 -8 -10 -11 -5 -3 -10 -1 -10
4 0 6 5 11 10 11 6 0 10 -2 10 -4z m617 -2 c-3 -3 -12 -4 -19 -1 -8 3 -5 6 6
6 11 1 17 -2 13 -5z m1078 -252 c6 -17 4 -21 -7 -17 -10 4 -13 16 -10 37 3 21
1 29 -7 24 -6 -4 -11 -20 -11 -37 0 -16 -5 -29 -11 -29 -7 0 -9 9 -5 23 4 12
11 69 16 127 5 58 10 110 11 115 1 6 6 -42 10 -105 4 -63 10 -125 14 -138z
m-1590 228 c12 -20 -6 -50 -30 -50 -23 0 -23 1 -9 30 16 31 28 37 39 20z
m-825 -25 c-7 -8 -18 -15 -24 -15 -7 0 -36 -26 -66 -57 -40 -44 -60 -58 -82
-58 -38 -1 -35 11 5 24 36 12 95 66 84 77 -7 7 85 54 92 48 2 -2 -2 -10 -9
-19z m202 -12 c-28 -39 -72 -79 -72 -65 0 6 12 25 28 41 15 16 33 37 41 46 22
27 25 8 3 -22z m1698 -4 c0 -4 -7 -9 -15 -13 -11 -4 -15 2 -15 27 1 30 1 31
15 13 8 -11 15 -23 15 -27z m-1160 21 c-20 -13 -33 -13 -25 0 3 6 14 10 23 10
15 0 15 -2 2 -10z m708 -85 c0 -13 -5 -7 -13 15 -7 19 -13 44 -13 55 0 13 5 7
13 -15 7 -19 13 -44 13 -55z m-61 50 c0 -20 -4 -19 -17 5 -8 15 -8 18 3 14 8
-3 14 -11 14 -19z m-918 -36 c-19 -12 -24 -2 -8 17 9 11 14 13 17 4 3 -7 -2
-16 -9 -21z m294 -1 c-13 -12 -25 -19 -29 -15 -10 10 16 37 34 37 13 0 12 -4
-5 -22z m-977 -33 c-20 -15 -36 -19 -36 -10 0 5 38 23 50 24 3 0 -4 -6 -14
-14z m456 -17 c-6 -6 -15 -8 -19 -4 -4 4 -1 11 7 16 19 12 27 3 12 -12z m484
-27 c-9 -10 -16 -22 -16 -27 0 -5 -9 -20 -20 -34 -13 -17 -20 -20 -20 -10 0
19 39 92 54 102 18 12 20 -12 2 -31z m767 -24 l32 -17 -32 6 -32 5 16 -43 c22
-56 19 -54 48 -38 14 7 28 10 31 7 4 -4 -8 -13 -26 -20 l-32 -14 26 -7 c29 -7
86 -78 86 -107 0 -10 9 -23 19 -29 27 -14 31 -13 31 7 0 27 22 -1 25 -31 4
-29 -9 -33 -50 -14 -18 8 -22 14 -13 20 10 6 8 8 -4 9 -10 1 -23 2 -28 3 -12
1 -30 26 -29 41 0 6 6 -1 14 -15 12 -22 14 -22 14 -5 -1 29 -17 75 -18 53 -1
-10 -5 -18 -11 -18 -14 0 -13 13 3 29 10 10 7 16 -12 32 -13 10 -32 19 -42 19
-31 0 -71 101 -62 154 6 32 8 36 11 15 2 -17 14 -31 35 -42z m487 45 c19 -3
41 -12 48 -21 8 -10 11 -10 6 -2 -4 8 -3 12 2 9 129 -71 194 -121 194 -150 0
-11 4 -17 9 -14 12 8 25 -23 22 -51 -1 -13 6 -26 18 -32 29 -16 48 -84 31
-115 -11 -21 -10 -29 9 -60 19 -30 20 -39 10 -58 -7 -13 -13 -18 -14 -13 -11
52 -31 103 -45 116 -10 8 -24 28 -33 45 -8 16 -27 40 -41 53 -18 17 -24 31
-20 44 4 13 2 17 -5 13 -5 -4 -23 7 -38 25 -15 17 -37 36 -48 41 -14 8 -12 1
10 -23 17 -19 35 -37 41 -41 6 -4 17 -22 25 -40 7 -18 23 -49 36 -68 13 -19
23 -38 23 -42 0 -13 -20 -9 -21 5 0 6 -17 25 -36 42 -31 26 -35 27 -24 7 6
-12 8 -22 4 -22 -4 0 6 -12 22 -27 16 -16 34 -26 40 -25 5 2 7 0 3 -4 -10 -9
11 -36 23 -29 13 8 31 -33 24 -55 -6 -20 -35 -28 -35 -10 0 6 -3 9 -7 8 -5 -2
-31 20 -58 47 -47 46 -118 89 -141 84 -5 -1 -18 -1 -28 0 -19 1 -19 1 -1 15
17 12 17 13 -8 20 -24 6 -25 8 -15 37 9 26 15 30 39 27 16 -3 30 0 32 5 2 6
11 5 24 -2 12 -6 30 -11 41 -11 11 0 25 -7 32 -15 7 -9 15 -13 18 -10 4 3 -15
26 -41 50 -26 24 -47 49 -47 56 0 7 -8 21 -17 31 -16 18 -16 18 0 12 11 -4 17
-1 17 9 0 9 -14 17 -36 21 -19 4 -52 22 -72 40 -20 18 -44 36 -52 39 -11 4 -9
6 5 6 22 1 118 -27 98 -28 -17 -1 -17 -31 0 -31 7 0 17 4 23 10 6 6 34 -3 78
-26 38 -19 70 -33 73 -31 4 4 -134 84 -219 126 -46 23 -66 40 -30 26 9 -4 33
-9 52 -13z m-2325 -2 c-16 -5 -73 -16 -125 -26 -52 -10 -128 -28 -169 -40 -40
-12 -70 -19 -65 -15 17 16 140 60 209 74 75 17 207 22 150 7z m2463 -15 c-3
-3 -9 2 -12 12 -6 14 -5 15 5 6 7 -7 10 -15 7 -18z m-972 -10 c13 17 28 6 16
-11 -15 -22 -52 -23 -67 -1 -23 33 -18 41 12 17 25 -19 28 -20 39 -5z m202 -4
c10 -6 6 -11 -17 -19 -18 -7 -29 -7 -26 -2 4 6 -4 10 -17 11 -22 0 -22 1 -3 9
26 11 47 12 63 1z m-1633 -36 c-23 -20 -42 -30 -44 -23 -5 15 45 58 67 58 12
-1 5 -11 -23 -35z m875 27 c0 -4 -9 -13 -20 -20 -12 -7 -18 -18 -14 -24 4 -6
18 1 36 21 16 17 33 31 39 31 18 0 9 -29 -13 -41 -13 -6 -32 -20 -43 -29 -11
-10 -31 -20 -45 -23 -17 -3 -12 -5 16 -6 22 0 45 4 52 11 17 17 26 3 13 -20
-11 -21 -41 -37 -41 -23 0 5 -17 5 -37 -1 -21 -5 -57 -13 -81 -17 -56 -10 -65
-21 -16 -21 29 0 35 -3 24 -10 -8 -5 -29 -10 -47 -10 -17 0 -34 -4 -37 -9 -8
-13 -56 -20 -62 -9 -3 5 -11 4 -19 -2 -10 -8 -23 -7 -50 5 -21 8 -47 15 -58
15 -21 0 -21 0 1 -16 26 -18 29 -34 6 -34 -12 0 -10 -6 9 -30 14 -16 28 -43
32 -59 3 -16 13 -32 21 -35 19 -7 18 -26 -3 -26 -14 0 -13 -4 5 -23 12 -13 19
-27 15 -30 -3 -4 -1 -7 6 -7 6 0 15 9 19 21 7 17 12 5 26 -52 20 -83 29 -139
21 -139 -5 0 -45 75 -45 85 0 3 5 3 12 -1 7 -4 2 7 -11 25 -31 43 -36 34 -12
-22 11 -25 17 -48 13 -52 -4 -3 1 -11 10 -16 9 -5 24 -30 33 -57 21 -62 54
-122 55 -99 0 15 2 15 20 -3 11 -11 20 -26 20 -33 0 -21 69 -157 96 -191 14
-17 37 -38 52 -47 26 -15 62 -92 62 -132 0 -9 16 -40 35 -67 19 -27 35 -54 35
-60 0 -5 4 -10 10 -10 5 0 16 -15 25 -32 26 -54 84 -128 108 -138 12 -5 34
-11 49 -14 19 -4 37 -21 55 -49 32 -51 48 -64 91 -72 28 -5 45 -23 25 -26 -51
-8 -63 -5 -93 20 -18 15 -35 38 -37 51 -4 25 -19 40 -40 40 -7 0 -13 -5 -13
-11 0 -6 -7 -18 -16 -27 -15 -15 -16 -14 -9 7 6 20 4 23 -9 18 -12 -5 -20 0
-26 16 -5 12 -9 18 -9 12 -1 -5 -8 3 -16 19 -8 15 -12 32 -9 37 3 5 -1 9 -9 9
-8 0 -25 21 -38 48 -13 26 -26 49 -29 52 -3 3 -29 40 -58 83 -36 54 -51 84
-47 97 7 23 -36 118 -51 113 -11 -4 -94 89 -94 106 0 6 -9 25 -20 43 -11 18
-20 27 -20 19 0 -22 -31 8 -47 47 -7 18 -22 41 -32 51 -10 10 -30 43 -44 72
-15 30 -40 77 -56 104 -17 28 -33 57 -36 65 -4 8 -10 22 -14 30 -4 8 -6 31 -3
51 2 24 -1 41 -12 51 -8 9 -13 18 -9 21 3 3 -5 20 -17 38 -22 29 -37 78 -45
141 -2 22 2 29 27 37 17 6 41 8 54 5 13 -4 30 -2 37 3 17 14 79 25 72 13 -10
-16 19 -12 107 17 l83 27 -40 6 c-23 3 -46 1 -55 -5 -13 -10 -100 -19 -100
-10 0 2 27 12 60 23 33 12 60 16 60 11 0 -5 9 0 20 11 11 11 29 20 40 20 13 0
22 9 26 25 5 21 12 25 40 25 19 0 34 -3 34 -8z m-743 -16 c-9 -23 -99 -137
-104 -132 -2 2 3 16 13 30 9 15 14 29 11 32 -3 3 -17 -12 -32 -34 -14 -22 -35
-42 -46 -45 -24 -6 -24 -6 2 40 29 52 71 95 87 88 8 -3 25 4 39 15 30 24 37
25 30 6z m1858 -4 c-3 -3 -11 0 -18 7 -9 10 -8 11 6 5 10 -3 15 -9 12 -12z
m-1235 -7 c-33 -19 -46 -19 -30 0 7 8 22 15 34 15 20 -1 20 -2 -4 -15z m624
-19 c-3 -15 -18 -34 -33 -43 -14 -9 -35 -25 -46 -34 -46 -40 -187 -64 -199
-34 -6 17 58 49 80 41 31 -12 147 44 184 89 17 21 22 13 14 -19z m1194 -50
c12 -16 22 -38 22 -50 0 -11 8 -30 17 -41 13 -16 15 -17 10 -2 -4 9 -2 17 2
17 11 0 12 -108 1 -115 -4 -3 -13 16 -20 40 -7 25 -17 48 -21 51 -5 3 -9 13
-9 23 0 9 -11 32 -25 51 -13 18 -22 37 -19 41 2 4 -5 13 -16 19 -11 6 -20 21
-20 33 0 21 2 20 28 -8 15 -16 37 -43 50 -59z m-2448 30 c0 -3 -4 -8 -10 -11
-5 -3 -10 -1 -10 4 0 6 5 11 10 11 6 0 10 -2 10 -4z m848 -23 c-15 -15 -30
-24 -34 -20 -7 7 35 46 51 47 5 0 -3 -12 -17 -27z m-533 -15 c6 -4 -3 -8 -18
-8 -23 0 -26 2 -15 14 7 8 15 11 18 8 3 -4 10 -10 15 -14z m148 11 c-7 -7 -33
-13 -60 -14 -26 -1 -34 0 -18 2 17 2 34 9 40 14 5 5 18 9 29 9 15 0 17 -3 9
-11z m1697 -14 c52 -26 64 -45 30 -45 -10 0 -24 9 -30 20 -6 11 -17 20 -24 20
-8 0 -19 7 -26 15 -17 21 -7 19 50 -10z m-1961 6 c17 -11 -1 -23 -24 -15 -8 4
-15 3 -14 -2 2 -5 -8 -26 -21 -48 -22 -36 -24 -37 -37 -20 -19 26 -16 42 13
69 28 26 58 31 83 16z m1881 -7 c0 -8 -4 -12 -10 -9 -5 3 -10 10 -10 16 0 5 5
9 10 9 6 0 10 -7 10 -16z m-1147 -11 c13 -12 -16 -33 -47 -33 l-31 0 25 20
c26 20 42 24 53 13z m-670 -23 c-48 -29 -56 -51 -42 -117 8 -35 22 -65 40 -83
24 -24 27 -33 22 -65 -6 -35 -7 -36 -20 -20 -7 11 -13 27 -13 37 0 10 -4 18
-8 18 -13 0 -52 84 -52 110 0 12 -12 33 -27 46 -32 28 -28 35 43 69 63 30 103
34 57 5z m-445 -12 c-9 -13 -24 -25 -34 -27 -17 -3 -16 0 5 23 30 32 49 34 29
4z m1392 12 c0 -5 -3 -9 -7 -9 -21 3 -33 -3 -33 -16 0 -9 -12 -20 -26 -26 -30
-11 -48 -2 -23 11 9 5 27 18 40 29 26 22 49 27 49 11z m40 7 c0 -2 -9 -12 -19
-21 -19 -17 -19 -17 -14 3 3 12 12 21 19 21 8 0 14 -2 14 -3z m730 -12 c0 -8
-4 -15 -10 -15 -5 0 -10 7 -10 15 0 8 5 15 10 15 6 0 10 -7 10 -15z m-2235
-14 c-3 -6 -16 -16 -28 -22 -21 -11 -21 -10 2 15 23 25 40 29 26 7z m1030 8
c4 -6 4 -13 0 -17 -4 -4 -10 -2 -12 5 -2 7 -11 9 -20 6 -11 -4 -14 -2 -9 5 9
15 33 16 41 1z m200 -19 c9 -16 14 -30 12 -30 -1 0 -20 9 -42 20 -22 11 -32
20 -22 20 9 0 17 5 17 10 0 20 20 9 35 -20z m-705 -26 c0 -3 -7 -1 -15 6 -8 7
-15 17 -15 22 0 5 7 3 15 -6 8 -8 15 -18 15 -22z m418 20 c-9 -9 -21 -13 -27
-9 -16 10 -3 25 22 25 20 0 20 -1 5 -16z m1229 -11 c-8 -9 -20 -12 -27 -8 -8
5 -6 11 7 20 23 17 39 7 20 -12z m-2073 -35 c-17 -27 -23 -43 -15 -46 7 -2 4
-13 -9 -29 -11 -14 -17 -30 -13 -36 3 -6 1 -7 -5 -3 -7 4 -12 14 -12 22 0 21
-20 7 -20 -14 -1 -20 -34 -62 -49 -62 -6 0 -11 -4 -11 -8 0 -7 -63 -42 -75
-42 -3 0 -5 10 -5 21 0 25 75 104 90 94 6 -3 7 0 4 9 -3 9 5 26 20 41 14 14
26 31 26 38 0 19 -92 -78 -135 -142 -39 -59 -71 -88 -58 -53 11 27 44 85 61
107 26 31 42 63 42 84 0 20 18 30 60 36 14 2 36 8 50 14 14 5 37 10 53 10 l27
1 -26 -42z m2250 13 c7 -10 -22 -37 -30 -28 -9 8 3 37 15 37 5 0 12 -4 15 -9z
m-1370 -16 c39 -9 37 -22 -5 -29 -73 -12 -181 15 -117 28 13 3 32 7 43 10 11
2 29 2 40 0 11 -3 29 -7 39 -9z m-1144 1 c0 -7 -194 -106 -198 -101 -5 5 83
56 143 82 57 25 55 25 55 19z m846 -73 c-4 -4 -11 -1 -16 7 -16 25 -11 35 7
17 9 -9 13 -20 9 -24z m2127 -26 c2 -23 0 -46 -4 -51 -5 -6 -9 -30 -9 -54 0
-26 -4 -41 -10 -37 -15 10 -12 71 5 85 8 7 15 17 15 23 0 7 -4 7 -12 -1 -21
-21 -27 -13 -26 31 0 50 4 58 22 51 8 -3 16 -24 19 -47z m-1896 27 c-3 -3 -12
-4 -19 -1 -8 3 -5 6 6 6 11 1 17 -2 13 -5z m1323 -29 c7 -9 20 -13 28 -10 11
4 12 2 4 -8 -9 -10 -8 -17 1 -28 6 -8 -6 2 -28 21 -22 19 -42 36 -44 38 -2 1
3 2 11 2 9 0 21 -7 28 -15z m680 -51 c0 -7 -10 -20 -22 -29 -21 -14 -24 -14
-35 2 -19 25 -16 43 10 52 24 9 47 -3 47 -25z m-2627 9 c-7 -3 -13 -11 -13
-19 0 -8 -4 -14 -9 -14 -5 0 -13 -9 -16 -20 -6 -19 -25 -19 -25 -1 0 14 61 73
68 65 4 -4 1 -9 -5 -11z m2067 -28 c-7 -8 -9 -15 -5 -15 5 0 6 -2 3 -5 -3 -3
-13 -2 -23 1 -16 6 -15 9 6 25 27 20 38 17 19 -6z m-2536 -22 c-18 -43 -34
-64 -34 -44 0 13 38 81 45 81 2 0 -3 -17 -11 -37z m2326 -2 c-1 -13 -3 -13
-15 3 -19 26 -19 42 0 26 8 -7 15 -20 15 -29z m90 18 c0 -15 2 -23 11 -47 5
-12 11 -34 14 -49 4 -24 1 -23 -35 18 -22 24 -40 47 -40 52 0 4 -7 7 -15 7 -8
0 -15 8 -15 18 0 14 7 17 40 14 22 -2 40 -8 40 -13z m-1650 -30 c0 -5 -4 -9
-10 -9 -5 0 -10 7 -10 16 0 8 5 12 10 9 6 -3 10 -10 10 -16z m1733 7 c9 -7 17
-25 17 -40 0 -14 9 -34 19 -43 11 -9 18 -20 15 -25 -9 -14 -54 -9 -60 6 -3 8
-13 12 -22 10 -15 -5 -15 -4 1 9 19 16 23 42 7 52 -12 7 -14 45 -2 45 4 0 15
-7 25 -14z m543 2 c4 -6 0 -16 -8 -22 -8 -6 -18 -20 -22 -31 -7 -19 -8 -19
-18 -2 -14 27 -2 67 22 67 10 0 22 -5 26 -12z m-2766 -13 c0 -8 -12 -25 -26
-39 -17 -15 -25 -30 -21 -40 4 -9 -4 -27 -18 -43 l-23 -28 -12 29 c-7 20 -8
32 0 40 7 7 10 5 10 -8 0 -9 4 -14 10 -11 5 3 9 20 7 37 -1 25 3 35 21 44 13
6 29 17 35 23 14 14 17 14 17 -4z m1410 5 c0 -5 -7 -10 -16 -10 -8 0 -12 5 -9
10 3 6 10 10 16 10 5 0 9 -4 9 -10z m1007 -5 c3 -9 3 -19 -1 -22 -7 -7 -36 16
-36 28 0 15 30 10 37 -6z m193 -9 c0 -14 -4 -28 -10 -31 -6 -4 -10 7 -10 24 0
17 5 31 10 31 6 0 10 -11 10 -24z m-2798 -43 c-24 -34 -67 -73 -104 -96 l-27
-17 16 48 c16 51 51 91 63 72 5 -7 11 -6 20 5 7 8 21 15 32 15 19 0 19 0 0
-27z m2488 -15 c0 -6 -7 -5 -15 2 -8 7 -15 17 -15 22 0 6 7 5 15 -2 8 -7 15
-17 15 -22z m-2101 -42 c1 -11 -2 -16 -6 -13 -3 4 -12 2 -20 -4 -10 -9 -12 -5
-7 22 10 57 16 67 24 39 5 -14 8 -34 9 -44z m49 37 c-1 -10 2 -28 6 -40 5 -15
3 -23 -4 -23 -12 0 -11 -16 5 -67 12 -38 -10 -26 -28 15 -21 47 -21 53 -3 97
16 38 25 45 24 18z m287 -95 c41 -73 23 -57 -35 30 -38 56 -44 69 -22 47 16
-16 42 -51 57 -77z m2128 75 c6 -16 16 -31 22 -35 5 -4 6 -10 3 -14 -4 -4 -2
-16 4 -27 10 -20 11 -19 23 9 l13 29 1 -42 c1 -47 7 -52 27 -25 9 12 13 13 14
4 0 -8 -9 -25 -19 -38 l-19 -24 -10 27 c-10 28 -10 28 -11 -9 -1 -20 -6 -40
-13 -44 -7 -4 -8 -3 -4 5 9 14 -17 58 -47 82 -46 37 -66 -19 -22 -61 14 -13
25 -29 25 -37 0 -7 9 -13 19 -13 24 0 37 -30 13 -31 -29 -2 -47 2 -55 14 -6 9
-10 9 -14 0 -2 -7 -9 -13 -14 -13 -6 0 -8 4 -4 10 3 5 -9 29 -27 54 -18 24
-41 56 -51 70 -16 23 -22 25 -69 19 -37 -5 -49 -3 -44 5 4 7 17 12 30 12 13 0
38 5 56 12 30 10 35 9 52 -12 10 -12 18 -32 18 -44 0 -13 15 -40 34 -62 38
-44 60 -42 23 2 -42 52 -44 84 -5 105 15 8 24 7 40 -8 21 -18 21 -18 9 5 -6
12 -17 22 -24 22 -19 0 -75 49 -56 50 8 0 24 -7 35 -15 26 -20 33 -19 27 5 -3
11 -9 17 -14 14 -10 -6 -12 9 -2 19 13 13 24 7 36 -20z m107 23 c0 -3 -4 -8
-10 -11 -5 -3 -10 -1 -10 4 0 6 5 11 10 11 6 0 10 -2 10 -4z m-3103 -26 c-3
-10 -1 -20 4 -22 4 -2 0 -21 -11 -43 -11 -24 -19 -33 -19 -22 -1 10 4 28 10
40 12 22 12 22 -10 3 -26 -24 -27 -11 -1 32 22 36 35 42 27 12z m-112 -42
c-37 -29 -80 -62 -94 -72 l-26 -20 25 28 c29 33 139 116 153 116 6 0 -21 -24
-58 -52z m3165 32 c0 -5 -2 -10 -4 -10 -3 0 -8 5 -11 10 -3 6 -1 10 4 10 6 0
11 -4 11 -10z m-650 -25 c0 -14 10 -39 22 -55 12 -16 19 -33 15 -36 -4 -4 -11
6 -17 21 -7 18 -15 25 -25 21 -8 -3 -14 0 -12 7 1 6 -8 13 -20 15 -12 2 -24 9
-26 16 -4 9 0 12 12 9 11 -3 21 2 24 11 10 25 27 19 27 -9z m285 6 c6 -3 20
-4 33 -2 12 1 22 -2 22 -8 0 -6 8 -8 18 -4 10 4 14 2 9 -3 -5 -5 -18 -10 -30
-11 -12 -1 -29 -3 -37 -4 -8 -1 -34 -1 -57 -1 -35 2 -41 5 -36 18 5 13 2 15
-15 9 -13 -3 -22 -2 -22 4 0 18 84 20 115 2z m-1856 -37 c25 -42 18 -60 -10
-25 -16 20 -27 61 -15 61 2 0 14 -16 25 -36z m2091 26 c13 -8 13 -10 -2 -10
-9 0 -20 5 -23 10 -8 13 5 13 25 0z m-2851 -46 c-6 -8 -8 -14 -5 -14 4 0 1 -7
-8 -15 -21 -21 -28 -19 -20 8 9 30 24 48 36 41 5 -3 4 -12 -3 -20z m291 -1 c0
9 5 17 10 17 7 0 7 -6 0 -19 -5 -11 -10 -43 -10 -72 0 -76 -23 -48 -27 33 -4
58 -3 61 11 43 14 -18 15 -18 16 -2z m125 -4 c-9 -27 2 -69 18 -69 7 0 22 -15
32 -32 38 -62 34 -67 -15 -16 -28 29 -52 59 -55 69 -7 22 4 69 17 69 5 0 6 -9
3 -21z m-471 -36 c-3 -17 -17 -43 -30 -59 -22 -27 -23 -28 -24 -7 0 31 18 76
37 90 22 17 24 12 17 -24z m249 -5 c-3 -39 -2 -41 11 -23 14 18 14 16 5 -20
-23 -96 -32 -115 -52 -115 -19 0 -19 -1 -2 -20 13 -15 16 -29 12 -57 -7 -41
20 -98 52 -108 23 -7 58 -45 43 -45 -7 0 -12 5 -12 11 0 5 -4 7 -10 4 -5 -3
-10 -1 -10 4 0 6 -5 11 -11 11 -6 0 -24 9 -40 21 -30 21 -41 12 -14 -11 9 -7
14 -19 11 -27 -3 -7 1 -13 9 -13 8 0 21 -12 29 -27 12 -22 15 -24 16 -9 0 15
3 16 15 6 36 -30 9 -58 -34 -35 -40 20 -58 20 -41 0 7 -8 9 -15 4 -15 -19 0
-113 54 -119 68 -9 23 0 24 28 2 14 -11 32 -17 41 -14 12 5 6 11 -24 26 -43
22 -54 54 -25 78 22 18 11 24 -14 9 -11 -7 -23 -10 -26 -7 -11 11 5 47 19 42
7 -3 21 4 31 16 18 20 18 20 -6 20 -23 1 -22 2 13 35 63 58 19 53 -50 -6 -18
-16 -48 -36 -67 -44 -19 -7 -36 -18 -36 -22 -1 -4 -3 -17 -5 -28 -1 -11 -7
-33 -12 -50 -10 -29 -10 -28 -11 16 -1 59 18 84 105 135 73 43 106 79 128 141
12 35 44 93 50 93 1 0 1 -19 -1 -42z m295 -13 c-8 -8 -26 11 -33 35 -7 25 -7
25 15 -3 12 -15 21 -30 18 -32z m496 29 c10 -37 2 -39 -11 -4 -6 17 -8 30 -3
30 4 0 11 -12 14 -26z m-184 -30 c0 -8 -4 -12 -10 -9 -5 3 -10 13 -10 21 0 8
5 12 10 9 6 -3 10 -13 10 -21z m165 -4 c22 -42 18 -51 -5 -12 -20 33 -24 42
-15 42 2 0 11 -13 20 -30z m1759 11 c30 -33 13 -43 -17 -11 -19 19 -24 30 -14
30 7 0 22 -9 31 -19z m-2603 -34 c-13 -13 -15 1 -4 30 7 17 8 17 11 -1 2 -10
-1 -23 -7 -29z m733 1 c-7 -11 -7 -11 -24 22 -13 25 -13 25 8 6 12 -10 19 -23
16 -28z m1936 23 c15 -29 12 -40 -9 -34 -10 2 -24 16 -30 29 -9 21 -8 24 9 24
11 0 24 -9 30 -19z m-375 -41 l6 -35 -18 35 c-11 19 -17 39 -15 43 7 14 19 -6
27 -43z m256 -13 c-8 -8 -11 -7 -11 4 0 20 13 34 18 19 3 -7 -1 -17 -7 -23z
m-2424 1 c-3 -8 -6 -5 -6 6 -1 11 2 17 5 13 3 -3 4 -12 1 -19z m377 7 c-4 -8
-11 -15 -16 -15 -6 0 -5 6 2 15 7 8 14 15 16 15 2 0 1 -7 -2 -15z m312 -83
c25 -35 59 -71 75 -80 16 -10 33 -30 39 -45 5 -16 23 -44 40 -63 16 -19 30
-39 30 -44 0 -6 5 -10 12 -10 18 0 48 -31 48 -51 0 -9 6 -20 13 -22 13 -6 -35
-57 -54 -57 -14 0 -11 16 6 30 8 7 15 20 14 29 0 11 -4 9 -11 -7 -14 -29 -44
-25 -40 6 2 15 -2 22 -12 22 -9 0 -16 -4 -16 -10 0 -5 -4 -10 -10 -10 -5 0
-10 9 -10 21 0 11 5 17 10 14 6 -3 10 1 10 11 0 12 -6 15 -26 11 -17 -3 -22
-1 -15 6 6 6 4 18 -7 35 -10 15 -11 23 -4 19 24 -16 12 22 -18 53 -16 17 -30
35 -30 40 0 13 -48 81 -55 78 -9 -5 -65 90 -65 109 1 21 0 21 76 -85z m-1111
19 c-8 -17 -18 -31 -21 -31 -8 0 8 74 20 89 19 24 20 -23 1 -58z m2980 59 c8
14 25 3 25 -16 0 -18 -37 -10 -60 13 -13 14 -13 14 7 4 15 -7 24 -8 28 -1z
m-2535 -101 c21 -54 67 -109 91 -109 4 0 17 -18 28 -40 21 -45 11 -54 -16 -14
-9 14 -34 37 -55 50 -21 14 -43 35 -47 47 -5 12 -21 51 -35 87 -14 36 -26 70
-26 75 1 20 36 -37 60 -96z m2441 58 c-16 -16 -20 -5 -8 23 9 22 11 23 14 6 3
-10 0 -23 -6 -29z m304 14 c-8 -25 -20 -27 -29 -5 -3 8 -2 12 4 9 6 -3 13 1
16 10 9 23 17 10 9 -14z m-2695 -7 c0 -8 5 -14 10 -14 6 0 10 5 10 10 0 6 3
10 8 10 6 0 8 -41 3 -67 0 -4 -12 8 -26 27 -25 34 -34 67 -15 55 6 -3 10 -13
10 -21z m-220 7 c0 -5 -9 -19 -20 -32 l-21 -24 16 33 c15 31 25 41 25 23z
m-219 -84 c-16 -16 -25 38 -9 65 13 22 13 22 16 -16 2 -21 -1 -43 -7 -49z
m2903 -5 c-23 -52 -53 -96 -60 -89 -3 3 43 133 52 148 2 5 11 6 19 3 11 -5 9
-16 -11 -62z m-2395 37 c-16 -10 -23 -4 -14 10 3 6 11 8 17 5 6 -4 5 -9 -3
-15z m2471 -45 c-18 -21 -24 -10 -9 18 8 14 14 18 17 10 2 -7 -2 -19 -8 -28z
m-3160 -41 c-36 -37 -66 -69 -67 -72 -2 -2 -3 0 -3 6 0 9 120 133 130 133 2 0
-25 -30 -60 -67z m3201 34 c-8 -8 -11 -7 -11 4 0 20 13 34 18 19 3 -7 -1 -17
-7 -23z m41 1 c-7 -7 -12 -8 -12 -2 0 6 3 14 7 17 3 4 9 5 12 2 2 -3 -1 -11
-7 -17z m27 -32 c-12 -25 -26 -46 -31 -46 -5 0 3 23 18 51 14 28 28 49 31 46
3 -3 -5 -26 -18 -51z m-480 4 c0 -10 -3 -8 -9 5 -12 27 -12 43 0 25 5 -8 9
-22 9 -30z m46 0 c-3 -5 -11 -10 -16 -10 -6 0 -7 5 -4 10 3 6 11 10 16 10 6 0
7 -4 4 -10z m69 -37 c3 -21 6 -47 6 -58 l-1 -20 -15 20 c-8 11 -13 30 -11 43
2 12 0 25 -5 28 -4 3 -6 10 -3 15 12 19 23 8 29 -28z m-2823 -34 c-8 -38 -9
-40 -10 -12 -1 17 2 39 5 48 11 29 14 10 5 -36z m2706 29 c-3 -8 -6 -5 -6 6
-1 11 2 17 5 13 3 -3 4 -12 1 -19z m10 -50 c-3 -7 -5 -2 -5 12 0 14 2 19 5 13
2 -7 2 -19 0 -25z m-1055 -9 c11 -6 52 -20 92 -31 85 -23 125 -47 149 -86 21
-37 22 -49 2 -32 -8 7 -15 19 -15 27 0 8 -24 25 -52 38 -59 28 -78 31 -78 13
0 -9 -3 -9 -12 0 -7 7 -20 12 -30 12 -16 0 -17 -3 -7 -22 12 -22 11 -22 -6 -8
-17 14 -18 14 -6 -7 8 -15 8 -23 1 -23 -6 0 -15 12 -21 28 -10 26 -11 26 -25
8 -8 -11 -14 -28 -14 -37 0 -10 -4 -21 -10 -24 -15 -9 -12 26 4 58 14 25 14
26 -3 18 -10 -6 -23 -17 -31 -25 -7 -9 -19 -16 -26 -16 -9 0 -14 -10 -14 -27
1 -16 -2 -50 -6 -77 -5 -36 -4 -47 5 -42 6 4 11 3 11 -2 0 -5 12 -36 27 -68
38 -82 38 -83 9 -49 -14 17 -28 45 -32 62 -3 18 -10 30 -15 27 -5 -3 -18 10
-28 28 -11 18 -29 44 -41 56 -11 13 -20 31 -19 40 0 11 2 12 6 5 8 -21 22 -15
16 7 -7 26 21 27 37 3 10 -16 10 -16 8 2 -2 12 -19 27 -41 38 -20 9 -37 22
-37 28 0 7 10 5 25 -5 14 -9 25 -12 25 -6 0 5 9 10 20 10 11 0 20 7 20 15 0
10 10 15 30 15 25 0 30 4 30 23 0 38 15 46 52 26z m1072 -44 c5 -22 4 -26 -4
-15 -5 8 -10 24 -10 34 0 26 6 18 14 -19z m46 25 c0 -5 -4 -10 -10 -10 -5 0
-10 5 -10 10 0 6 5 10 10 10 6 0 10 -4 10 -10z m-2767 -33 c3 -8 1 -20 -4 -28
-6 -10 -9 -7 -9 14 0 29 5 35 13 14z m2818 -5 c-14 -26 -40 -46 -49 -38 -4 4
6 19 21 32 34 29 41 30 28 6z m-377 -18 c3 -8 2 -12 -4 -9 -6 3 -10 10 -10 16
0 14 7 11 14 -7z m-4 -29 c9 6 11 4 5 -5 -5 -7 -8 -39 -8 -69 1 -45 0 -50 -7
-26 -6 22 -8 25 -10 10 -1 -11 -6 -3 -10 18 -8 44 -1 96 10 77 4 -7 13 -9 20
-5z m336 -52 c-3 -4 -6 -1 -6 5 0 7 -5 12 -11 12 -5 0 -7 -6 -3 -12 4 -7 3 -9
-1 -5 -5 4 -10 13 -11 20 -1 7 -6 21 -10 32 -5 12 3 7 20 -13 16 -18 26 -36
22 -39z m164 42 c-7 -8 -20 -15 -29 -15 -12 0 -10 5 9 20 28 21 39 18 20 -5z
m-221 -13 c-6 -3 -5 -10 3 -20 11 -16 10 -16 -5 -1 -11 10 -15 22 -11 33 5 14
9 15 15 4 5 -7 4 -14 -2 -16z m115 12 c9 -3 14 -10 11 -15 -7 -10 -35 0 -35
12 0 11 3 11 24 3z m-454 -22 c0 -5 -7 -17 -15 -28 -14 -19 -14 -19 -15 2 0
11 3 24 7 27 9 10 23 9 23 -1z m-2370 -17 c0 -8 -4 -15 -10 -15 -5 0 -7 7 -4
15 4 8 8 15 10 15 2 0 4 -7 4 -15z m180 -28 c0 -24 -3 -28 -10 -17 -13 20 -13
63 0 55 6 -3 10 -21 10 -38z m2668 16 c-10 -2 -28 -2 -40 0 -13 2 -5 4 17 4
22 1 32 -1 23 -4z m-1268 -36 c0 -5 -4 -5 -10 -2 -5 3 -10 14 -10 23 0 15 2
15 10 2 5 -8 10 -19 10 -23z m-1663 11 c-18 -48 -18 -58 -3 -52 9 3 16 3 16 0
0 -9 -33 -46 -42 -46 -4 0 -24 -11 -44 -25 -56 -38 -64 -30 -16 17 24 23 52
59 63 80 18 35 37 54 26 26z m1473 -16 c0 -10 5 -23 11 -29 11 -11 5 -33 -10
-33 -6 0 -31 57 -31 73 0 4 7 7 15 7 8 0 15 -8 15 -18z m-702 -17 c16 -17 16
-17 -8 -10 -34 10 -142 11 -215 1 l-60 -9 20 23 c19 21 25 22 133 17 91 -3
117 -8 130 -22z m182 5 c51 -14 58 -19 34 -19 -18 -1 -51 8 -75 19 -55 25 -43
25 41 0z m-649 -16 c11 -30 7 -39 -16 -31 -17 7 -21 57 -5 57 6 0 15 -12 21
-26z m1134 -36 c4 -18 9 -42 12 -53 3 -13 2 -17 -4 -10 -14 14 -33 95 -23 95
5 0 11 -15 15 -32z m-687 14 c8 -6 -4 -16 -39 -33 -39 -18 -53 -21 -57 -11 -3
9 -8 10 -17 2 -7 -6 -39 -17 -71 -26 -33 -8 -77 -26 -99 -39 l-41 -23 -2 28
c-2 31 26 58 98 92 37 18 203 25 228 10z m121 -23 c-6 -3 8 -9 30 -13 23 -3
41 -11 41 -16 0 -6 14 -10 30 -10 17 0 30 -2 30 -4 0 -2 3 -11 6 -19 4 -10 -5
-16 -31 -21 -29 -6 -35 -11 -30 -25 7 -22 -19 -46 -41 -37 -11 4 -14 1 -10
-12 5 -15 0 -18 -29 -18 -25 0 -34 4 -31 13 7 18 -5 16 -19 -4 -11 -15 -12
-15 -11 3 3 42 25 64 64 64 28 0 33 3 22 10 -8 5 -29 10 -46 10 -17 0 -38 7
-45 16 -11 14 -10 18 6 30 28 21 11 17 -29 -7 -35 -20 -85 -23 -89 -4 -1 6 26
24 60 41 56 28 67 30 97 20 19 -6 30 -13 25 -17z m80 -6 c2 -2 -3 -3 -11 -3
-9 0 -19 7 -22 16 -6 15 -4 15 11 3 10 -7 20 -15 22 -16z m565 -19 c4 -14 16
-46 28 -70 11 -25 18 -47 15 -51 -11 -10 -37 6 -37 24 0 10 -7 36 -15 58 -16
46 -19 79 -6 71 5 -3 12 -18 15 -32z m-383 9 c13 -16 12 -17 -3 -4 -10 7 -18
15 -18 17 0 8 8 3 21 -13z m-1106 -23 c-5 -16 -10 -18 -20 -10 -9 8 -14 6 -19
-6 -3 -9 -4 -19 -2 -23 3 -4 1 -23 -3 -43 -10 -43 5 -43 32 0 15 25 16 25 17
5 0 -31 -10 -52 -23 -47 -7 2 -13 -8 -15 -28 -1 -18 -4 -51 -6 -73 -2 -22 -4
-46 -5 -53 -1 -7 -5 -11 -10 -8 -5 4 -7 -12 -4 -36 4 -29 3 -39 -5 -34 -7 4
-12 13 -12 19 0 7 -5 29 -11 50 -9 33 -12 36 -29 27 -24 -13 -25 -4 -8 68 8
35 15 49 25 45 8 -3 13 2 13 12 0 9 -4 14 -9 11 -8 -5 -6 18 5 72 4 21 82 87
92 78 2 -3 1 -14 -3 -26z m36 -27 c-10 -17 -10 -16 -11 3 0 23 13 41 18 25 2
-6 -1 -18 -7 -28z m609 19 c0 -5 -9 -17 -20 -27 -11 -10 -20 -29 -20 -42 0
-26 -21 -30 -44 -8 -13 14 -16 13 -26 -2 -9 -15 -10 -13 -5 12 4 26 3 28 -7
14 -18 -22 -60 -35 -52 -16 6 16 52 40 63 32 5 -2 23 7 41 20 33 25 70 33 70
17z m123 -31 c32 -17 33 -22 7 -46 -14 -12 -18 -26 -14 -44 5 -24 4 -24 -9 -9
-8 10 -17 15 -20 12 -3 -4 -14 -3 -24 0 -10 4 -18 6 -18 5 0 -2 -15 6 -32 16
-52 31 -43 50 32 71 45 13 41 13 78 -5z m668 -18 c1 -10 1 -26 0 -35 -1 -10 2
-18 8 -18 6 0 10 -20 9 -45 0 -35 -4 -45 -18 -45 -14 0 -16 7 -10 45 4 25 4
47 1 51 -9 9 -9 64 0 64 5 0 10 -8 10 -17z m-411 -22 c16 -31 12 -38 -21 -43
-37 -6 -76 21 -66 45 9 25 73 23 87 -2z m67 10 c-17 -6 -16 -8 8 -19 22 -10
25 -15 15 -27 -22 -27 -62 -10 -74 31 -5 18 -2 20 31 21 24 0 31 -2 20 -6z
m-1221 -45 c-8 -20 -17 -36 -20 -36 -3 0 -2 10 3 23 5 12 12 31 15 41 4 10 9
16 12 14 3 -3 -2 -22 -10 -42z m452 -18 c-13 -26 -17 -22 -14 10 6 46 7 48 15
27 5 -11 4 -28 -1 -37z m1245 37 c4 -8 2 -17 -3 -20 -6 -4 -10 3 -10 14 0 25
6 27 13 6z m-913 -35 c0 -13 -11 -13 -30 0 -12 8 -11 10 8 10 12 0 22 -4 22
-10z m915 -40 c14 -27 25 -52 25 -55 0 -3 -12 -5 -26 -5 -21 0 -24 4 -19 20 4
11 2 20 -4 20 -6 0 -11 9 -11 20 0 11 -4 20 -10 20 -5 0 -10 7 -10 15 0 32 31
13 55 -35z m-491 21 c4 -5 -19 -9 -51 -9 -39 1 -51 3 -38 9 28 11 83 11 89 0z
m-1253 -28 c-8 -15 -10 -15 -11 -2 0 17 10 32 18 25 2 -3 -1 -13 -7 -23z
m1346 21 c-3 -3 -12 -4 -19 -1 -8 3 -5 6 6 6 11 1 17 -2 13 -5z m-141 -29 c10
-8 41 -17 67 -21 67 -9 186 -91 132 -91 -8 0 -15 3 -15 7 0 4 -18 5 -39 3 -30
-4 -44 0 -58 14 -16 16 -21 17 -32 6 -13 -14 -71 -18 -71 -5 0 4 6 14 13 22 6
7 -3 2 -21 -13 -46 -37 -79 -44 -97 -21 -13 17 -14 17 -15 2 0 -20 -28 -14
-46 10 -8 11 -13 12 -18 4 -10 -16 -26 -15 -26 1 0 41 89 79 170 71 51 -5 54
-4 36 10 -25 20 -6 21 20 1z m1059 -43 c70 -44 195 -157 195 -177 0 -6 10 -15
22 -20 13 -6 22 -20 23 -34 1 -14 7 -27 13 -29 27 -9 11 -28 -19 -24 -29 4
-31 7 -25 36 5 28 4 29 -8 13 -19 -25 -49 -11 -43 19 4 25 -8 34 -16 12 -2 -7
-13 7 -25 32 -12 25 -21 41 -22 35 0 -5 -12 3 -26 18 -14 15 -28 25 -32 23 -4
-2 -7 8 -6 22 2 29 -21 62 -43 62 -7 0 -13 4 -13 9 0 5 -10 13 -22 17 -23 7
-48 28 -48 39 0 7 -1 7 95 -53z m96 28 l24 -19 -36 -1 c-48 0 -63 34 -18 39 4
1 17 -8 30 -19z m479 -40 c71 -70 72 -79 3 -17 -27 23 -60 50 -73 59 -19 13
-21 17 -8 17 9 1 44 -26 78 -59z m-1862 -4 c-13 -19 -28 -32 -36 -29 -19 8
-10 25 24 44 16 10 30 18 32 18 1 1 -8 -14 -20 -33z m397 24 c3 -6 -1 -7 -9
-4 -18 7 -21 14 -7 14 6 0 13 -4 16 -10z m253 -2 c20 -20 14 -48 -13 -60 -30
-13 -52 1 -42 26 4 9 6 19 6 22 -1 7 22 24 32 24 3 0 10 -5 17 -12z m322 -21
c0 -18 -2 -19 -10 -7 -13 20 -13 43 0 35 6 -3 10 -16 10 -28z m-1953 -28 c-8
-19 -21 -40 -31 -48 -15 -13 -16 -12 -7 12 13 34 42 79 48 73 2 -2 -2 -19 -10
-37z m2442 23 c19 -36 -2 -44 -55 -21 l-49 23 35 6 c55 11 59 11 69 -8z m-638
-5 c9 -7 22 -23 29 -37 l13 -25 -22 19 c-20 18 -22 18 -41 1 -17 -15 -20 -16
-20 -3 0 9 -8 19 -17 23 -17 6 -17 7 1 21 24 17 36 17 57 1z m984 -11 c16 -6
17 -9 5 -17 -11 -8 -8 -9 13 -6 22 3 40 -4 73 -29 24 -19 47 -34 50 -34 12 0
72 -58 67 -64 -4 -3 2 -15 12 -26 18 -19 17 -20 -3 -20 -12 0 -22 3 -22 8 0 4
-21 19 -46 32 -25 14 -50 33 -56 43 -5 11 -16 16 -25 13 -20 -8 -88 62 -97
100 -4 16 -3 24 1 18 4 -6 17 -14 28 -18z m-505 -21 c0 -12 -4 -12 -20 2 -11
10 -20 21 -20 26 0 4 9 3 20 -3 11 -6 20 -17 20 -25z m-2190 -70 c14 -49 17
-73 9 -86 -5 -11 -7 -24 -4 -29 3 -5 1 -11 -5 -15 -6 -4 -10 9 -10 32 0 28 -3
34 -10 23 -7 -11 -10 -6 -11 20 l-1 35 -10 -32 c-21 -65 -40 -31 -29 51 7 53
21 88 21 53 0 -9 5 -17 10 -17 6 0 10 10 10 22 0 33 9 17 30 -57z m1235 46
c44 -20 87 -61 65 -61 -7 0 -21 6 -29 14 -9 8 -36 17 -61 20 -45 6 -83 13 -87
16 -2 2 -7 4 -13 5 -25 6 -22 8 20 15 25 4 50 8 55 8 6 1 28 -7 50 -17z m1186
-8 c12 -33 58 -83 75 -83 6 0 14 -9 17 -21 3 -12 10 -18 16 -15 6 4 8 -2 6
-14 -2 -11 -1 -19 3 -18 4 1 15 -2 25 -6 25 -12 21 -96 -5 -96 -5 0 -7 4 -3 9
7 13 -32 76 -47 76 -7 0 -22 19 -33 41 -11 24 -25 39 -33 37 -7 -3 -15 7 -18
25 -4 17 -11 29 -18 26 -6 -2 -27 9 -46 26 l-35 31 43 -21 c42 -21 43 -21 33
-1 -6 10 -16 22 -23 24 -7 3 -3 6 10 6 16 1 26 -7 33 -26z m-902 5 c17 -10 18
-48 1 -48 -14 0 -42 39 -35 49 8 14 11 14 34 -1z m219 -20 c9 -18 35 -51 58
-73 l41 -40 -34 -17 c-33 -16 -35 -16 -30 2 3 13 0 17 -9 13 -17 -6 -18 9 -1
26 10 10 9 11 -4 6 -11 -4 -21 5 -34 32 -10 21 -22 46 -26 55 -12 24 -11 28 6
28 9 0 24 -15 33 -32z m302 13 c0 -5 -11 -16 -25 -25 -28 -18 -34 -6 -9 18 17
18 34 21 34 7z m-530 -46 c10 -12 9 -16 -4 -21 -9 -3 -16 -15 -16 -25 0 -14
-7 -19 -27 -19 l-28 1 22 18 c12 10 20 21 16 24 -8 8 4 37 15 37 5 0 15 -7 22
-15z m-370 -5 c0 -5 -5 -10 -11 -10 -5 0 -7 5 -4 10 3 6 8 10 11 10 2 0 4 -4
4 -10z m927 -23 c27 -40 38 -70 47 -125 4 -29 3 -41 -4 -37 -5 3 -10 16 -10
28 0 12 -16 53 -35 91 -38 77 -38 76 -27 76 4 0 17 -15 29 -33z m-2182 -94
c-10 -55 -17 -31 -8 28 4 33 9 45 11 30 2 -13 1 -39 -3 -58z m3005 13 c30 -16
73 -43 95 -61 49 -39 190 -115 214 -115 20 0 81 -54 81 -72 0 -15 111 -190
135 -215 26 -25 16 -28 -11 -2 -26 24 -107 144 -127 186 -10 23 -37 32 -37 13
0 -6 20 -49 45 -96 35 -66 42 -85 29 -82 -10 2 -26 19 -37 38 -10 19 -23 37
-28 38 -5 2 -9 18 -9 35 0 24 -3 28 -10 17 -5 -8 -10 -10 -10 -4 0 6 -7 29
-16 49 -12 29 -18 35 -24 25 -14 -23 -23 -4 -10 20 10 18 9 22 -9 27 -12 3
-21 10 -21 15 0 5 -6 5 -16 0 -11 -6 -24 -1 -46 20 -16 15 -35 28 -42 28 -6 0
-17 9 -24 20 -7 12 -17 18 -23 14 -5 -3 -21 6 -35 21 -13 14 -29 23 -34 20 -6
-4 -9 -1 -8 6 2 7 -12 18 -31 25 -19 6 -49 24 -67 40 -61 54 -40 51 76 -10z
m-1421 25 c9 -6 10 -11 2 -15 -6 -4 -11 -2 -11 4 0 6 -12 2 -26 -9 -36 -28
-48 -26 -28 4 17 26 39 31 63 16z m1571 -83 c36 -27 67 -52 69 -54 2 -2 -11 2
-29 9 -18 7 -50 28 -71 47 -21 19 -45 41 -54 48 -8 7 -15 18 -15 24 0 6 8 4
18 -6 9 -9 46 -40 82 -68z m-3065 -38 c-7 -25 -14 -39 -14 -32 -1 17 -21 15
-21 -3 0 -8 -4 -15 -10 -15 -6 0 -10 30 -10 69 0 58 3 70 18 73 10 2 24 -6 34
-22 15 -23 16 -30 3 -70z m1871 85 c-3 -9 4 -25 15 -36 14 -14 19 -29 16 -45
-2 -13 -1 -21 3 -19 8 5 43 -65 36 -73 -3 -2 1 -14 9 -26 8 -11 15 -28 15 -38
0 -27 -27 -22 -34 7 -3 13 -15 29 -26 35 -11 6 -20 21 -20 33 0 13 -4 27 -9
33 -5 5 -12 26 -15 47 -6 39 -28 72 -40 60 -3 -4 -6 1 -6 10 0 16 14 25 44 26
12 1 16 -4 12 -14z m-406 -15 c-20 -13 -33 -13 -25 0 3 6 14 10 23 10 15 0 15
-2 2 -10z m1081 -57 c-9 -15 -10 -12 -10 17 0 29 1 32 10 18 7 -12 7 -24 0
-35z m-1096 12 c-31 -25 -45 -31 -45 -17 0 8 50 40 65 41 6 0 -3 -11 -20 -24z
m168 0 c4 -8 3 -16 -1 -19 -4 -3 -9 4 -9 15 -2 23 3 25 10 4z m1060 -24 c42
-44 47 -64 15 -59 -13 2 -22 -2 -21 -7 3 -19 -50 -9 -58 11 -12 30 -10 69 3
82 17 17 19 16 61 -27z m-1083 5 c0 -7 -7 -19 -15 -26 -13 -11 -15 -8 -15 14
0 16 5 26 15 26 8 0 15 -6 15 -14z m210 -94 c48 -100 51 -124 9 -57 -31 49
-69 136 -69 158 0 18 16 -8 60 -101z m-407 3 c-10 -23 -16 -61 -15 -90 l1 -50
-13 45 c-10 38 -10 49 2 68 11 17 11 22 2 22 -9 0 -8 6 3 18 10 10 17 25 17
34 0 23 15 32 18 11 2 -10 -5 -36 -15 -58z m221 50 c-4 -8 -11 -15 -16 -15 -6
0 -5 6 2 15 7 8 14 15 16 15 2 0 1 -7 -2 -15z m966 -35 c0 -31 -5 -42 -22 -51
-20 -11 -21 -10 -11 2 10 12 18 42 22 82 1 4 3 7 6 7 3 0 5 -18 5 -40z m-2683
8 c-3 -8 -6 -5 -6 6 -1 11 2 17 5 13 3 -3 4 -12 1 -19z m1820 -20 c-3 -8 -6
-5 -6 6 -1 11 2 17 5 13 3 -3 4 -12 1 -19z m-1707 -19 c0 -17 -4 -28 -10 -24
-5 3 -10 17 -10 31 0 13 5 24 10 24 6 0 10 -14 10 -31z m-22 -41 c12 -45 3
-66 -14 -32 -16 31 -18 64 -4 64 5 0 13 -15 18 -32z m2609 0 c-3 -7 -5 -2 -5
12 0 14 2 19 5 13 2 -7 2 -19 0 -25z m-1430 -49 c-20 -35 -40 -65 -46 -67 -16
-5 -13 38 3 44 8 3 11 15 8 30 -3 17 0 24 12 24 9 0 16 7 16 15 0 9 6 12 15 9
8 -4 15 -1 15 7 0 7 3 10 6 7 3 -4 -10 -35 -29 -69z m331 44 c-19 -44 -29 -50
-26 -16 1 17 6 29 10 27 4 -3 8 0 8 5 0 6 4 11 10 11 6 0 5 -11 -2 -27z m1412
-41 c0 -37 -19 -15 -30 34 l-9 39 20 -24 c10 -13 19 -35 19 -49z m-1670 33
c-18 -49 -51 -105 -60 -105 -5 0 -7 -7 -4 -15 4 -8 2 -15 -2 -16 -5 0 -17 -2
-26 -4 -11 -2 -15 2 -11 11 3 8 9 14 14 14 5 0 9 11 9 23 0 13 9 32 20 42 11
10 20 23 20 28 0 13 30 47 41 47 5 0 4 -11 -1 -25z m1586 16 c-4 -5 0 -12 6
-14 8 -3 6 -6 -4 -6 -10 -1 -18 6 -18 14 0 8 5 15 11 15 5 0 8 -4 5 -9z
m-2747 -53 c1 -5 -6 -8 -14 -8 -16 0 -19 9 -8 36 6 16 7 16 14 -2 4 -10 8 -22
8 -26z m1479 23 c-4 -12 -77 -91 -83 -91 -11 0 36 79 52 89 22 13 36 14 31 2z
m1302 -36 c6 -15 6 -34 0 -47 -8 -22 -9 -21 -16 10 -3 18 -11 35 -15 38 -14 9
-10 24 6 24 9 0 20 -11 25 -25z m-2090 -35 c6 -11 8 -20 6 -20 -3 0 -10 9 -16
20 -6 11 -8 20 -6 20 3 0 10 -9 16 -20z m1470 10 c12 -8 11 -10 -7 -10 -13 0
-23 5 -23 10 0 13 11 13 30 0z m-29 -32 c-12 -4 -21 -12 -21 -17 0 -9 -60 -34
-67 -27 -2 2 10 20 28 39 29 31 35 34 56 24 24 -11 24 -11 4 -19z m-2184 -25
c-3 -10 -5 -4 -5 12 0 17 2 24 5 18 2 -7 2 -21 0 -30z m63 -17 c7 -32 6 -37
-8 -34 -12 2 -18 16 -20 48 -4 54 15 44 28 -14z m1180 34 c0 -5 -4 -10 -9 -10
-5 0 -7 -9 -4 -19 3 -11 -3 -27 -11 -38 -9 -10 -46 -55 -83 -100 -36 -46 -69
-83 -73 -83 -24 0 -11 30 26 60 23 19 43 42 43 50 2 29 49 118 72 134 27 18
39 20 39 6z m80 -20 c-6 -10 -16 -22 -23 -26 -9 -5 -9 -4 1 7 6 7 12 21 12 32
0 10 5 15 10 12 7 -4 7 -12 0 -25z m-833 -22 c-3 -7 -5 -2 -5 12 0 14 2 19 5
13 2 -7 2 -19 0 -25z m583 7 c9 -24 4 -55 -9 -55 -3 0 -7 18 -7 40 -2 46 3 50
16 15z m456 -26 c-14 -32 -15 -32 -16 -8 0 14 5 30 12 37 18 18 20 8 4 -29z
m-192 6 c-7 -18 -43 -39 -51 -31 -6 6 37 45 49 46 4 0 5 -7 2 -15z m830 1
c-11 -8 -34 -18 -50 -22 -16 -4 -33 -10 -39 -14 -5 -4 -21 -11 -35 -15 l-25
-7 28 30 c18 19 35 28 47 25 10 -3 27 0 37 6 10 6 27 11 38 11 19 0 19 0 -1
-14z m-1622 -111 c16 -33 21 -51 12 -40 -18 22 -48 86 -58 125 l-6 25 12 -25
c6 -14 25 -52 40 -85z m1300 63 c-7 -7 -12 -8 -12 -2 0 14 12 26 19 19 2 -3
-1 -11 -7 -17z m1494 0 c4 -6 2 -14 -4 -16 -8 -2 -7 -8 4 -19 12 -12 13 -18 3
-24 -16 -9 -34 9 -43 44 -5 22 -3 27 13 27 11 0 23 -5 27 -12z m-86 -70 c0
-26 -5 -50 -11 -53 -6 -4 -8 -14 -5 -22 8 -19 -24 -65 -40 -59 -9 3 -14 -2
-14 -15 0 -11 -6 -22 -14 -25 -9 -3 -12 -12 -9 -21 4 -11 2 -14 -8 -11 -8 3
-14 10 -14 17 0 6 -7 16 -15 21 -12 8 -8 10 13 10 24 0 27 3 22 21 -5 15 -4
19 4 15 6 -4 11 -2 11 3 0 6 6 11 13 11 6 0 18 4 26 9 12 8 12 12 2 25 -8 10
-9 20 -3 33 6 10 10 35 10 55 0 20 3 42 7 48 13 20 25 -10 25 -62z m-1427 32
c-5 -19 -23 -39 -23 -25 0 9 20 45 24 45 2 0 2 -9 -1 -20z m1694 -12 c13 -12
23 -29 22 -37 0 -11 -4 -8 -11 7 -7 13 -17 21 -25 18 -7 -3 -13 -4 -13 -2 0 3
-3 11 -6 20 -9 22 6 20 33 -6z m148 11 c11 -17 -1 -21 -15 -4 -8 9 -8 15 -2
15 6 0 14 -5 17 -11z m-255 -17 c0 -4 -9 -8 -20 -8 -11 0 -20 4 -20 8 0 4 9 8
20 8 11 0 20 -4 20 -8z m204 -17 c7 -20 -21 -32 -37 -16 -9 9 -8 14 3 21 21
13 27 12 34 -5z m-136 -25 c2 -10 -7 -16 -28 -17 -24 -2 -30 2 -30 18 0 16 6
20 27 17 15 -2 29 -10 31 -18z m-2343 -37 c-29 -57 -91 -105 -106 -82 -12 18
-8 41 9 47 8 2 10 -2 6 -13 -6 -15 -4 -15 15 -4 12 8 24 22 27 31 4 15 59 68
69 68 2 0 -7 -21 -20 -47z m2560 37 c3 -5 1 -10 -4 -10 -6 0 -11 5 -11 10 0 6
2 10 4 10 3 0 8 -4 11 -10z m-358 -22 c-3 -8 -6 -5 -6 6 -1 11 2 17 5 13 3 -3
4 -12 1 -19z m453 12 c13 -9 13 -11 0 -20 -22 -15 -30 -12 -30 10 0 22 8 25
30 10z m-161 -33 c5 -13 16 -29 25 -36 18 -15 21 -31 6 -31 -9 0 -60 72 -60
85 0 15 22 2 29 -18z m-147 -37 c25 -49 25 -60 4 -60 -9 0 -46 83 -46 104 0
21 21 -1 42 -44z m-2026 31 c-6 -9 -46 -22 -46 -15 0 3 10 9 23 14 29 11 29
11 23 1z m2390 -65 c13 -28 24 -60 23 -71 0 -11 -8 1 -18 26 -10 26 -26 57
-35 70 -18 27 -21 43 -5 33 6 -3 22 -30 35 -58z m-2826 -5 c0 -5 -7 -11 -15
-15 -15 -5 -20 5 -8 17 9 10 23 9 23 -2z m715 -1 c3 -5 1 -19 -6 -31 -9 -17
-13 -19 -20 -8 -7 12 -9 11 -10 -1 -1 -8 -1 -18 0 -22 0 -5 -2 -7 -6 -7 -5 1
-17 1 -28 0 -15 -1 -17 -3 -6 -10 19 -12 6 -65 -14 -57 -8 3 -17 1 -20 -4 -4
-6 -18 -10 -33 -10 l-27 0 30 28 c17 16 34 28 40 28 5 -1 9 4 10 9 0 13 67 95
77 95 4 0 10 -4 13 -10z m1968 -14 c7 -18 -24 -31 -35 -14 -12 20 -9 28 11 28
10 0 21 -6 24 -14z m-2659 -31 c-4 -8 -10 -16 -15 -16 -5 -1 -14 -2 -21 -3 -6
0 -26 -23 -45 -51 -19 -27 -44 -57 -55 -66 -14 -11 -21 -28 -21 -48 0 -38 -20
-41 -43 -6 -16 24 -16 27 2 46 11 12 29 25 41 30 12 4 29 23 37 41 7 18 21 42
30 53 16 19 16 18 1 -15 l-16 -35 38 41 c38 42 78 59 67 29z m2484 3 c17 -17
15 -25 -7 -31 -20 -5 -36 17 -25 34 7 12 18 11 32 -3z m-2613 -18 c-3 -5 -11
-10 -16 -10 -6 0 -7 5 -4 10 3 6 11 10 16 10 6 0 7 -4 4 -10z m2804 -99 c1
-86 -5 -74 -12 24 -4 50 -3 73 3 60 5 -11 9 -49 9 -84z m-589 87 c0 -2 -7 -21
-15 -43 -8 -22 -15 -65 -16 -95 -1 -43 -3 -50 -9 -30 -4 14 -8 40 -9 57 -1 36
26 113 40 113 5 0 9 -1 9 -2z m-2110 -18 c0 -5 -2 -10 -4 -10 -3 0 -8 5 -11
10 -3 6 -1 10 4 10 6 0 11 -4 11 -10z m734 -35 c7 -27 6 -29 -9 -14 -9 9 -13
23 -9 33 8 21 9 19 18 -19z m-757 3 c-3 -8 -6 -5 -6 6 -1 11 2 17 5 13 3 -3 4
-12 1 -19z m2538 -62 c-4 -39 -14 -84 -21 -101 -12 -25 -13 -26 -9 -5 3 14 9
62 12 107 3 48 10 80 15 77 6 -4 7 -35 3 -78z m-3260 54 c3 -5 1 -10 -4 -10
-6 0 -11 5 -11 10 0 6 2 10 4 10 3 0 8 -4 11 -10z m758 -18 c-3 -12 -9 -19
-14 -16 -5 3 -4 14 2 25 13 26 20 21 12 -9z m787 18 c0 -6 6 -10 13 -9 31 4
35 -1 24 -25 -11 -23 -12 -23 -28 -5 -9 10 -19 16 -22 13 -3 -4 -14 -3 -24 0
-17 7 -17 8 1 22 23 17 36 18 36 4z m-1038 -42 c-11 -13 -25 -35 -31 -50 -6
-16 -15 -28 -21 -28 -14 0 -13 33 3 49 10 10 8 11 -7 5 -33 -13 -7 16 28 32
45 19 52 17 28 -8z m798 -3 c0 -8 -4 -15 -10 -15 -5 0 -10 7 -10 15 0 8 5 15
10 15 6 0 10 -7 10 -15z m359 -1 c2 -2 -7 -4 -20 -5 l-24 0 23 -10 c13 -5 50
-11 83 -13 64 -4 119 -32 170 -87 25 -26 25 -29 9 -44 -25 -23 -38 -18 -49 18
-5 17 -10 26 -10 19 -1 -10 -9 -9 -31 5 -17 10 -28 23 -26 30 7 18 -17 33 -45
27 -18 -4 -21 -3 -9 5 12 8 12 11 -3 17 -9 3 -23 2 -30 -4 -20 -17 -107 15
-107 39 0 15 5 17 33 12 17 -3 34 -7 36 -9z m168 -10 c-3 -3 -12 -4 -19 -1 -8
3 -5 6 6 6 11 1 17 -2 13 -5z m-447 -8 c0 -2 -3 -11 -6 -20 -8 -22 -27 -20
-49 4 -18 20 -17 20 18 20 21 0 37 -2 37 -4z m536 -18 c16 -18 17 -21 2 -15
-9 3 -18 3 -20 -1 -2 -4 -13 3 -25 16 l-22 22 23 0 c13 0 31 -10 42 -22z
m-656 2 c0 -5 -6 -10 -14 -10 -7 0 -19 -7 -26 -15 -7 -8 -16 -15 -21 -15 -13
0 -11 24 3 38 15 15 58 16 58 2z m-526 -19 c3 -5 -5 -11 -19 -13 -20 -4 -23
-3 -14 8 13 16 25 18 33 5z m596 -21 c0 -5 -5 -10 -11 -10 -5 0 -7 5 -4 10 3
6 8 10 11 10 2 0 4 -4 4 -10z m-840 -22 c0 -18 -2 -20 -9 -8 -6 8 -7 18 -5 22
9 14 14 9 14 -14z m235 -28 c-3 -5 -11 -10 -16 -10 -6 0 -7 5 -4 10 3 6 11 10
16 10 6 0 7 -4 4 -10z m418 -5 c-3 -9 -8 -14 -10 -11 -3 3 -2 9 2 15 9 16 15
13 8 -4z m-503 -5 c0 -5 -5 -10 -11 -10 -5 0 -7 5 -4 10 3 6 8 10 11 10 2 0 4
-4 4 -10z m130 -52 c86 -121 137 -181 180 -211 20 -14 22 -19 11 -26 -14 -9
-49 15 -90 63 -60 70 -72 86 -67 86 4 0 -3 10 -15 23 -11 12 -34 41 -50 65
-23 32 -26 42 -15 42 9 0 30 -19 46 -42z m-91 13 c44 -44 102 -133 97 -148 -6
-14 -9 -14 -26 2 -11 10 -17 22 -14 26 3 5 -2 12 -10 15 -9 3 -16 12 -16 19 0
7 -11 20 -25 29 -14 9 -25 23 -25 31 0 8 -7 15 -15 15 -8 0 -15 7 -15 15 0 21
26 19 49 -4z m1264 1 c-20 -21 -28 -20 -20 3 4 8 13 15 22 15 13 0 12 -3 -2
-18z m80 1 c-7 -2 -19 -2 -25 0 -7 3 -2 5 12 5 14 0 19 -2 13 -5z m80 -123
c15 0 27 -2 27 -4 0 -11 -29 -69 -30 -58 0 7 -4 11 -9 7 -11 -6 -36 34 -33 51
1 7 -10 10 -30 8 -18 -1 -28 0 -21 2 7 3 9 12 6 20 -4 12 -7 12 -18 -3 -11
-15 -15 -15 -29 -4 -9 7 -16 19 -16 25 0 7 3 7 8 -1 6 -10 12 -10 28 2 16 13
16 14 2 9 -12 -4 -18 -1 -18 9 0 31 26 23 66 -19 28 -31 49 -44 67 -44z m157
5 c11 -13 10 -14 -4 -9 -9 3 -16 10 -16 15 0 13 6 11 20 -6z m-1320 -46 c0 -6
-4 -7 -10 -4 -5 3 -10 11 -10 16 0 6 5 7 10 4 6 -3 10 -11 10 -16z m-122 -12
c12 -13 19 -27 15 -30 -4 -4 4 -15 16 -24 18 -12 20 -17 10 -24 -23 -15 -39
-10 -39 11 0 11 -6 20 -14 20 -15 0 -26 21 -26 51 0 25 12 24 38 -4z m1372 3
c21 -11 54 -62 65 -100 5 -18 0 -14 -20 15 -15 22 -39 52 -53 68 -27 28 -24
34 8 17z m146 -65 l15 -30 -26 30 c-14 17 -31 39 -37 50 -11 20 -11 20 12 0
12 -11 29 -33 36 -50z m-1256 -28 c0 -11 -34 8 -50 28 -11 13 -8 13 18 -2 18
-10 32 -22 32 -26z m-200 -1 c0 -2 -7 -9 -15 -16 -12 -10 -15 -10 -15 4 0 9 7
16 15 16 8 0 15 -2 15 -4z m133 -10 c9 -7 17 -16 17 -20 0 -3 -8 -6 -17 -6
-19 1 -53 22 -53 34 0 11 34 6 53 -8z m647 -12 c0 -2 -7 -4 -15 -4 -8 0 -15 4
-15 10 0 5 7 7 15 4 8 -4 15 -8 15 -10z m-733 -31 c2 -6 -6 -13 -18 -16 -41
-11 -64 14 -37 41 9 9 16 9 32 -1 11 -8 21 -18 23 -24z m290 13 c8 -8 -50 -8
-71 0 -9 3 -16 10 -16 14 0 8 77 -4 87 -14z m63 9 c-10 -12 -16 -13 -26 -4
-20 16 -18 19 12 19 22 0 25 -2 14 -15z m-225 -24 c3 -6 -4 -9 -15 -8 -11 1
-20 5 -20 9 0 11 28 10 35 -1z m674 0 c7 -5 9 -11 4 -14 -4 -3 -17 1 -28 9
-21 16 0 20 24 5z m79 -6 c13 -4 21 -12 20 -17 -5 -13 28 -47 68 -70 18 -10
31 -28 35 -48 8 -37 -6 -49 -22 -18 -14 26 -67 78 -80 78 -4 0 -12 6 -16 13
-4 7 -21 18 -37 25 -16 7 -26 15 -23 18 3 3 16 0 29 -6 18 -9 17 -6 -7 15 -31
27 -28 28 33 10z m-542 -8 c4 -4 -2 -7 -14 -7 -12 0 -22 4 -22 9 0 10 26 9 36
-2z m92 -4 c34 -8 26 -23 -13 -23 -19 0 -35 5 -35 11 0 5 -4 7 -10 4 -5 -3
-10 -2 -10 3 0 15 13 23 29 16 9 -4 26 -9 39 -11z m-238 -2 c0 -5 -6 -13 -13
-19 -15 -13 -42 1 -33 17 8 13 46 15 46 2z m-175 -11 c3 -5 -3 -10 -15 -10
-12 0 -18 5 -15 10 3 6 10 10 15 10 5 0 12 -4 15 -10z m479 -3 c11 -11 11 -17
1 -30 -17 -23 -28 -21 -20 3 4 12 2 20 -5 20 -6 0 -8 5 -5 10 8 13 14 13 29
-3z m-249 -28 c5 -5 -4 -9 -22 -9 -32 0 -48 11 -36 24 8 7 44 -2 58 -15z m710
3 c-3 -3 -11 0 -18 7 -9 10 -8 11 6 5 10 -3 15 -9 12 -12z m-633 -17 c14 -30
7 -39 -22 -30 -14 4 -19 12 -15 22 4 13 3 14 -10 3 -18 -15 -20 1 -3 18 19 19
37 14 50 -13z m-252 6 c0 -5 -14 -14 -30 -21 -17 -7 -35 -20 -40 -29 -8 -12
-9 -8 -4 14 4 17 9 33 11 38 6 10 63 9 63 -2z m513 -28 c34 -23 75 -73 102
-123 4 -8 -14 8 -41 36 -27 27 -67 64 -89 82 -49 38 -26 43 28 5z m-631 -25
c-9 -9 -12 -8 -12 5 0 9 -5 17 -11 17 -5 0 -7 5 -3 11 4 7 11 6 22 -5 13 -12
14 -18 4 -28z m163 13 c9 -16 -35 -35 -48 -22 -9 9 -8 14 3 21 19 12 37 13 45
1z m270 -1 c-3 -5 2 -10 11 -10 16 0 15 -2 -3 -22 -12 -13 -23 -32 -26 -43 -4
-11 -5 -1 -4 22 2 33 0 39 -10 31 -16 -13 -17 4 -1 20 14 14 42 16 33 2z
m-205 -36 c0 -10 -45 -42 -52 -37 -15 8 -8 24 15 33 27 11 37 12 37 4z m875
-41 c16 -21 22 -33 15 -26 -7 6 -18 9 -25 7 -17 -7 -37 20 -29 40 3 9 7 16 9
16 1 0 15 -17 30 -37z m-850 17 c3 -5 -2 -10 -11 -10 -10 0 -26 -8 -37 -17
-19 -17 -20 -17 -9 4 16 29 46 41 57 23z m277 -50 c38 -43 93 -138 85 -146 -2
-3 -18 17 -34 43 -17 26 -51 71 -77 99 -25 29 -46 55 -46 58 0 14 40 -16 72
-54z m-239 -25 c24 -26 91 -164 84 -171 -3 -3 -20 22 -37 55 -17 34 -46 79
-65 100 -37 41 -49 75 -18 50 10 -8 26 -23 36 -34z m841 0 c33 -36 44 -155 14
-155 -6 0 -8 7 -5 15 4 8 2 17 -3 20 -6 4 -10 16 -10 29 0 12 -4 26 -9 32 -5
5 -14 26 -19 47 -12 44 -1 48 32 12z m-939 -5 c3 -5 2 -10 -4 -10 -5 0 -13 5
-16 10 -3 6 -2 10 4 10 5 0 13 -4 16 -10z m-430 -120 c3 -5 -1 -10 -10 -10 -9
0 -13 5 -10 10 3 6 8 10 10 10 2 0 7 -4 10 -10z m122 -26 c-3 -3 -12 -4 -19
-1 -8 3 -5 6 6 6 11 1 17 -2 13 -5z m128 -30 c49 -24 79 -54 55 -54 -6 0 -10
4 -10 10 0 5 -26 23 -57 39 -72 37 -62 41 12 5z m1151 -65 c-11 -17 -12 -26
-3 -40 9 -14 8 -22 -4 -36 -8 -10 -23 -35 -33 -55 -21 -42 -53 -75 -62 -65 -4
4 2 19 12 34 38 57 64 113 64 137 0 14 8 45 18 68 l17 43 3 -32 c2 -18 -3 -42
-12 -54z m-1026 -24 c30 -36 17 -46 -16 -11 -19 20 -34 38 -34 41 0 9 36 -13
50 -30z m74 -77 c13 -20 22 -39 18 -42 -11 -12 -52 38 -52 62 0 29 1 29 34
-20z m116 -140 c0 -15 -57 35 -69 60 -19 39 -13 37 29 -8 22 -24 40 -47 40
-52z m720 24 c0 -26 -108 -86 -135 -76 -21 8 -19 26 3 23 29 -3 37 0 58 19 36
34 74 51 74 34z m-638 -48 c21 -15 38 -28 38 -29 0 -9 -41 10 -66 30 -39 33
-19 31 28 -1z m133 -62 c-8 -8 -43 9 -49 24 -5 12 -1 12 24 -2 16 -10 28 -20
25 -22z m338 22 c4 -4 -3 -15 -15 -25 -16 -14 -24 -16 -34 -8 -10 8 -17 7 -28
-4 -12 -11 -25 -13 -63 -6 -31 6 -49 6 -51 -1 -8 -23 -106 -1 -116 27 -5 11
-2 13 11 8 60 -25 134 -23 243 4 47 12 46 12 53 5z"/>
<path d="M2825 4699 c-4 -6 -5 -12 -2 -15 2 -3 7 2 10 11 7 17 1 20 -8 4z"/>
<path d="M2920 4570 c0 -13 11 -13 30 0 12 8 11 10 -7 10 -13 0 -23 -4 -23
-10z"/>
<path d="M2870 4510 c-8 -5 -12 -12 -9 -15 4 -3 12 1 19 10 14 17 11 19 -10 5z"/>
<path d="M2935 4470 c-37 -39 -15 -39 27 0 22 20 28 30 17 30 -8 0 -28 -13
-44 -30z"/>
<path d="M2834 4371 c-12 -13 0 -18 41 -17 56 1 60 21 4 21 -22 0 -42 -2 -45
-4z"/>
<path d="M3490 4610 c0 -5 5 -10 11 -10 5 0 7 5 4 10 -3 6 -8 10 -11 10 -2 0
-4 -4 -4 -10z"/>
<path d="M3540 4564 c0 -6 16 -25 35 -44 19 -19 35 -29 35 -24 0 6 -16 25 -35
44 -19 19 -35 29 -35 24z"/>
<path d="M3686 4427 c6 -15 44 -40 44 -29 0 10 -33 42 -43 42 -3 0 -4 -6 -1
-13z"/>
<path d="M4174 3755 c21 -16 32 -13 21 4 -3 6 -14 11 -23 11 -15 -1 -15 -2 2
-15z"/>
<path d="M1557 3623 c8 -3 11 -14 7 -30 -5 -18 -3 -24 5 -19 19 12 14 56 -6
55 -11 0 -13 -3 -6 -6z"/>
<path d="M1520 3470 c20 -13 33 -13 25 0 -3 6 -14 10 -23 10 -15 0 -15 -2 -2
-10z"/>
<path d="M1060 2845 c0 -11 5 -27 10 -35 8 -12 10 -12 10 5 0 11 -5 27 -10 35
-8 12 -10 12 -10 -5z"/>
<path d="M1790 2971 c0 -5 7 -11 15 -15 8 -3 15 -1 15 3 0 5 -7 11 -15 15 -8
3 -15 1 -15 -3z"/>
<path d="M3780 2726 c0 -7 9 -16 20 -19 17 -4 18 -2 9 14 -11 22 -29 25 -29 5z"/>
</g>
</svg>
