<?xml version="1.0" encoding="UTF-8" standalone="no"?>
<!DOCTYPE svg PUBLIC "-//W3C//DTD SVG 1.1//EN" "http://www.w3.org/Graphics/SVG/1.1/DTD/svg11.dtd">
<svg width="100%" height="100%" viewBox="0 0 475 155" version="1.1" xmlns="http://www.w3.org/2000/svg" xmlns:xlink="http://www.w3.org/1999/xlink" xml:space="preserve" xmlns:serif="http://www.serif.com/" style="fill-rule:evenodd;clip-rule:evenodd;stroke-linejoin:round;stroke-miterlimit:2;">
    <g transform="matrix(0.081189,0,0,-0.053764,-493.641964,125.545161)">
        <path d="M6620.326,1289.467C6634.488,1277.308 6617.06,1280.69 6671.986,1060.527C6726.911,840.363 6925.525,672.749 7095.574,618.939C7232.574,574.584 7335.574,602.922 7483.574,723.667C7596.574,816.073 7664.574,850.571 7740.574,855.5C7795.574,860.428 7815.574,855.5 7854.574,832.09C7914.574,795.128 7975.574,719.97 8000.574,652.206C8020.574,596.762 8026.574,448.911 8012.574,360.201C8009.574,335.56 8008.574,315.846 8011.574,315.846C8013.574,315.846 8044.574,357.737 8078.574,409.485C8265.574,687.936 8400.574,781.575 8593.574,768.022C8667.574,763.093 8695.574,755.701 8753.574,721.202C8841.574,670.687 8896.574,625.1 8974.574,537.622C9160.574,330.631 9232.574,294.901 9406.574,323.239C9462.574,331.863 9536.574,347.88 9570.574,360.201C9650.574,386.075 9797.574,476.017 9865.574,540.086C9934.574,605.386 10384.917,1027.647 10391.334,1032.19C10408.789,1044.548 10469.763,1100.164 10507.076,1113.198C10527.79,1120.434 10550.6,1119.839 10558.966,1116.3C10574.312,1109.807 10732.51,950.469 10750.948,930.991C10808.183,870.526 10797.847,841.008 10797.771,833.616C10797.147,772.989 10573.638,611.78 10472.795,511.572C10294.533,334.433 10093.574,82.982 9883.574,-41.459C9665.574,-170.828 9518.574,-213.951 9298.574,-213.951C9002.574,-213.951 8807.574,-125.24 8610.574,98.999C8477.574,249.314 8472.574,248.082 8308.574,50.948C8133.574,-159.739 7895.465,-473.401 7773.472,-488.533C7693.875,-498.407 7621.521,-487.779 7589.278,-452.381C7479.999,-313.208 7594.574,-3.264 7594.574,131.033C7594.574,175.389 7597.574,227.136 7601.574,246.849L7609.574,282.58L7571.574,253.01C7442.574,156.907 7342.574,126.105 7158.574,127.337C7031.574,127.337 7017.574,129.801 6913.574,171.692C6655.574,276.42 6432.518,553.589 6358.574,857.964C6341.888,926.647 6225.246,1240.284 6247.25,1276.947C6289.865,1347.954 6557.211,1343.659 6620.326,1289.467Z"/>
    </g>
    <g transform="matrix(0.081189,0,0,-0.053764,-493.641964,125.545161)">
        <path d="M11548.216,2279.894C11567.216,2304.536 11633.216,2303.303 11656.216,2279.894C11665.216,2268.805 11673.216,2246.628 11673.216,2229.378C11673.216,2212.129 11678.216,2180.095 11684.216,2159.149C11705.216,2088.921 11673.216,2011.299 11629.216,2024.852C11609.216,2031.013 11607.216,2027.316 11611.216,1986.657C11617.216,1928.749 11590.216,1889.323 11553.216,1899.179C11529.216,1904.108 11527.216,1901.644 11531.216,1868.377C11537.216,1816.63 11508.216,1779.667 11467.216,1785.827C11439.216,1789.524 11436.216,1787.06 11442.216,1764.882C11459.216,1706.974 11416.216,1656.459 11373.216,1684.796C11353.216,1698.349 11351.216,1697.117 11357.216,1678.636C11376.216,1617.032 11374.216,1602.247 11347.216,1575.141C11328.216,1556.66 11311.216,1550.499 11296.216,1555.427C11275.216,1561.588 11273.216,1559.124 11279.216,1530.786C11283.216,1511.072 11279.216,1487.663 11268.216,1467.949C11253.216,1439.611 11246.216,1435.915 11213.216,1442.076C11175.216,1448.236 11175.216,1447.004 11185.216,1418.666C11202.216,1374.311 11179.216,1327.492 11141.216,1327.492C11114.216,1327.492 11112.216,1325.027 11118.216,1292.993C11126.216,1244.942 11091.216,1199.355 11052.216,1206.747C11024.216,1211.676 11023.216,1210.444 11029.216,1171.017C11037.216,1118.037 11020.216,1093.395 10976.216,1093.395C10946.216,1093.395 10943.216,1090.931 10953.216,1069.986C10967.216,1035.487 10966.216,1023.167 10943.216,994.829C10930.216,978.811 10910.216,970.187 10887.216,970.187C10855.216,970.187 10842.216,980.044 10789.216,1049.04C10735.216,1118.037 10722.216,1129.126 10672.216,1141.447C10605.216,1158.696 10573.216,1190.73 10573.216,1241.246C10573.216,1276.976 10603.216,1327.492 10623.216,1327.492C10629.216,1327.492 10656.216,1313.939 10683.216,1296.69C10710.216,1279.44 10737.216,1265.887 10743.216,1265.887C10765.216,1265.887 10741.216,1291.761 10702.216,1311.475C10658.216,1332.42 10643.216,1371.847 10661.216,1419.898C10677.216,1461.789 10704.216,1466.717 10762.216,1438.379C10831.216,1405.113 10834.216,1407.577 10785.216,1450.7C10739.216,1491.359 10732.216,1525.857 10760.216,1564.052C10781.216,1592.39 10817.216,1592.39 10871.216,1561.588C10922.216,1533.25 10925.216,1538.178 10878.216,1573.909C10837.216,1604.711 10832.216,1641.673 10864.216,1683.564C10885.216,1710.67 10904.216,1713.134 10945.216,1690.957C10960.216,1683.564 10961.216,1687.261 10950.216,1720.527C10940.216,1753.793 10942.216,1761.186 10963.216,1789.524C10991.216,1825.254 11003.216,1827.718 11046.216,1800.613C11078.216,1779.667 11078.216,1780.899 11061.216,1804.309C11038.216,1835.111 11038.216,1860.985 11063.216,1888.091C11082.216,1909.036 11115.216,1909.036 11157.216,1888.091C11175.216,1878.234 11175.216,1879.466 11159.216,1910.268C11145.216,1934.91 11144.216,1947.231 11153.216,1966.944C11166.216,1998.978 11205.216,2011.299 11231.216,1994.05C11258.216,1975.569 11270.216,1976.801 11255.216,1995.282C11236.216,2018.692 11241.216,2051.958 11268.216,2074.136C11291.216,2092.617 11296.216,2092.617 11340.216,2074.136C11400.216,2049.494 11401.216,2049.494 11369.216,2080.296C11355.216,2093.849 11343.216,2113.562 11343.216,2122.187C11343.216,2149.293 11384.216,2177.631 11421.216,2177.631C11450.216,2177.631 11453.216,2180.095 11444.216,2194.88C11431.216,2213.361 11435.087,2228.502 11501.216,2233.075C11526.23,2234.804 11537.132,2222.446 11545.789,2224.02C11554.687,2225.637 11537.962,2235.95 11524.224,2249.751C11513.725,2260.298 11540.216,2270.037 11548.216,2279.894Z"/>
    </g>
</svg>
