<?xml version="1.0" standalone="no"?>
<!DOCTYPE svg PUBLIC "-//W3C//DTD SVG 20010904//EN"
 "http://www.w3.org/TR/2001/REC-SVG-20010904/DTD/svg10.dtd">
<svg version="1.0" xmlns="http://www.w3.org/2000/svg"
 width="633.000000pt" height="436.000000pt" viewBox="0 0 633.000000 436.000000"
 preserveAspectRatio="xMidYMid meet">
<metadata>
Created by potrace 1.16, written by Peter Selinger 2001-2019
</metadata>
<g transform="translate(0.000000,436.000000) scale(0.100000,-0.100000)"
fill="#000000" stroke="none">
<path d="M0 2180 l0 -2180 3165 0 3165 0 0 2180 0 2180 -3165 0 -3165 0 0
-2180z m794 1536 c72 -35 176 -90 231 -122 216 -125 389 -183 510 -170 51 5
176 35 264 62 21 6 22 5 12 -15 -7 -11 -38 -49 -70 -84 -97 -104 -106 -128
-76 -186 8 -16 17 -64 19 -107 3 -44 13 -128 22 -187 9 -59 13 -111 9 -115 -6
-7 -67 54 -93 94 -10 16 -12 -2 -9 -103 2 -68 1 -123 -2 -123 -10 0 -74 69
-100 107 -12 18 -31 73 -42 123 -23 109 -37 133 -90 154 -58 24 -64 21 -83
-36 -36 -113 -40 -174 -28 -512 13 -350 15 -365 73 -431 38 -43 57 -44 94 -5
36 38 45 108 21 181 -10 28 -15 54 -12 56 10 11 67 -20 91 -48 l24 -29 7 36
c9 49 -2 136 -27 212 -12 35 -18 66 -15 69 20 20 174 -130 225 -220 41 -72 43
-162 6 -256 -22 -57 -23 -66 -10 -91 22 -43 55 -133 50 -138 -2 -3 -42 3 -87
12 -186 36 -275 13 -493 -131 -302 -200 -548 -563 -597 -880 -7 -46 -16 -83
-20 -83 -13 0 -47 61 -59 105 -19 69 -12 231 15 351 35 154 57 212 130 340
117 204 234 497 257 644 18 117 -3 182 -74 227 -52 33 -87 64 -87 76 0 5 17 6
38 2 53 -9 87 7 101 47 7 18 17 90 23 160 13 145 10 156 -59 249 -23 33 -40
59 -35 60 4 0 34 1 67 2 55 2 61 4 82 36 15 22 23 48 23 75 -1 83 -90 249
-237 444 -89 118 -143 195 -143 207 0 13 33 0 154 -59z m4946 25 c0 -5 -24
-26 -52 -47 -336 -240 -547 -632 -473 -880 26 -90 98 -130 259 -146 116 -11
150 -17 144 -24 -3 -2 -30 -11 -61 -19 -84 -22 -184 -74 -219 -114 -74 -84
-101 -197 -79 -328 41 -238 94 -376 267 -693 169 -310 233 -513 234 -741 0
-81 -8 -139 -19 -139 -4 0 -20 44 -35 98 -52 181 -143 368 -277 567 -131 196
-573 692 -690 776 l-31 22 5 -124 c2 -68 8 -135 12 -148 8 -22 6 -23 -21 -17
-75 19 -130 90 -190 247 -30 76 -51 113 -86 152 l-48 52 29 -57 c28 -55 49
-134 37 -145 -3 -3 -22 9 -43 28 l-38 33 -6 -60 c-4 -32 -12 -103 -18 -156 -6
-53 -11 -142 -11 -197 0 -61 -4 -101 -10 -101 -5 0 -10 5 -10 10 0 6 -27 68
-60 138 -55 116 -67 133 -137 200 -42 39 -82 72 -89 72 -15 0 -53 -48 -78 -97
-33 -66 -49 -149 -55 -298 l-6 -150 -26 50 c-15 28 -41 95 -58 150 -72 228
-84 263 -119 319 -19 32 -57 81 -83 107 l-48 48 14 48 c35 114 47 228 49 443
l1 215 -28 58 c-16 31 -37 62 -48 67 -20 11 -26 45 -9 55 5 3 78 83 163 178
163 182 291 312 308 312 6 0 19 -24 29 -53 42 -118 110 -197 218 -251 61 -31
72 -44 72 -87 0 -33 22 -30 43 6 27 45 40 38 35 -18 -7 -69 -182 -422 -209
-422 -4 0 -9 35 -11 78 -5 94 -40 173 -105 232 -54 50 -76 51 -107 3 -27 -42
-37 -99 -62 -335 -23 -232 -2 -368 72 -465 34 -45 61 -42 111 10 66 66 113
196 113 309 0 21 3 38 8 38 4 0 37 -60 75 -133 37 -72 74 -141 83 -152 15 -20
15 -20 35 3 37 47 42 93 35 372 -3 146 -10 285 -15 310 -9 44 -8 46 43 110 29
36 81 108 116 160 74 113 154 213 215 269 40 37 73 54 63 34 -2 -5 -17 -35
-34 -68 -38 -74 -69 -154 -62 -161 3 -3 78 42 166 100 88 58 162 106 165 106
2 0 30 15 61 34 79 47 225 107 396 161 80 26 150 48 155 50 19 7 35 5 35 -4z
m-3193 -338 c-3 -27 -10 -84 -17 -128 -14 -88 -8 -304 10 -395 6 -31 12 -199
14 -380 3 -324 3 -325 30 -398 l27 -74 -37 -40 c-52 -58 -85 -145 -120 -321
-10 -48 -22 -86 -27 -84 -5 1 -26 57 -47 122 -48 157 -74 218 -112 272 l-32
43 18 38 c21 43 46 184 46 259 0 57 -26 193 -39 206 -25 25 -151 -105 -165
-170 -9 -39 28 -175 65 -239 16 -30 28 -58 24 -64 -3 -5 -26 -10 -51 -10 -43
0 -46 -2 -64 -42 -18 -43 -43 -166 -56 -286 -6 -61 -23 -92 -47 -92 -7 0 -24
49 -40 114 -35 147 -59 198 -119 262 l-50 53 25 48 c34 64 36 86 27 313 -7
179 -10 201 -35 262 l-27 67 17 68 c25 98 11 219 -37 310 -10 20 -6 27 42 70
76 69 321 255 328 249 3 -3 -9 -38 -26 -78 -45 -106 -55 -173 -50 -354 4 -172
16 -219 64 -251 22 -14 26 -14 49 1 57 38 115 115 130 174 10 38 10 56 -2 96
-22 75 -13 98 85 203 48 53 108 118 134 147 26 28 48 57 48 64 0 6 5 12 11 12
8 0 10 -16 6 -47z m872 -10 c5 -21 12 -101 16 -178 4 -85 14 -167 25 -210 10
-38 26 -131 35 -205 14 -123 16 -191 12 -531 -1 -76 2 -90 26 -132 15 -25 35
-50 44 -55 24 -14 10 -38 -41 -69 -24 -14 -51 -40 -61 -55 -16 -27 -75 -315
-75 -365 0 -47 -19 -20 -60 85 -90 227 -164 342 -222 342 -18 0 -63 -68 -127
-197 -42 -85 -84 -213 -96 -297 -4 -26 -11 -44 -15 -39 -5 4 -18 58 -30 118
-25 132 -75 298 -102 343 -11 18 -39 43 -62 57 -24 14 -51 34 -61 45 -18 20
-18 23 8 98 36 104 47 177 54 368 8 214 -7 332 -55 437 l-35 78 34 36 c19 21
39 42 45 48 6 5 35 39 65 75 125 149 216 230 261 230 23 0 23 -5 -2 -40 -42
-59 -70 -134 -70 -188 0 -45 4 -58 28 -81 15 -15 32 -30 39 -32 15 -5 1 -300
-17 -344 -18 -45 -24 -239 -11 -325 24 -156 66 -225 132 -218 40 4 67 45 100
150 20 65 20 75 9 333 -6 147 -8 291 -5 319 6 42 3 63 -15 104 -12 28 -28 57
-36 63 -24 19 -16 26 36 31 75 7 114 39 160 132 22 43 40 85 40 92 0 29 20 13
29 -23z"/>
<path d="M4828 3013 c-8 -10 -20 -34 -27 -53 -21 -63 -62 -332 -67 -450 l-6
-115 58 -51 c42 -36 72 -75 104 -133 l45 -82 8 123 c4 68 8 229 8 358 2 237
-7 316 -41 381 -23 43 -56 52 -82 22z"/>
</g>
</svg>
