<?xml version="1.0" standalone="no"?>
<!DOCTYPE svg PUBLIC "-//W3C//DTD SVG 20010904//EN"
 "http://www.w3.org/TR/2001/REC-SVG-20010904/DTD/svg10.dtd">
<svg version="1.0" xmlns="http://www.w3.org/2000/svg"
 width="749.000000pt" height="559.000000pt" viewBox="0 0 749.000000 559.000000"
 preserveAspectRatio="xMidYMid meet">
<metadata>
Created by potrace 1.16, written by Peter Selinger 2001-2019
</metadata>
<g transform="translate(0.000000,559.000000) scale(0.100000,-0.100000)"
fill="#000000" stroke="none">
<path d="M557 4723 c-17 -16 -6 -90 18 -125 14 -20 25 -41 25 -47 0 -5 4 -11
8 -13 10 -4 92 -114 92 -123 0 -3 5 -11 10 -18 45 -53 90 -117 90 -126 0 -6 4
-11 9 -11 11 0 73 -95 92 -139 13 -33 41 -89 76 -154 26 -48 27 -98 3 -136
-21 -33 -22 -33 -73 -27 -111 15 -111 15 -121 -27 -6 -24 -6 -43 0 -51 5 -8
36 -48 69 -91 l60 -79 -2 -103 c-2 -132 -19 -236 -42 -258 -17 -15 -24 -15
-89 0 -40 9 -76 14 -82 10 -5 -3 -10 -26 -10 -50 0 -40 5 -48 61 -102 33 -32
75 -66 92 -75 56 -31 67 -52 67 -133 0 -71 -24 -173 -69 -299 -10 -28 -31 -85
-46 -126 -39 -107 -117 -269 -180 -376 -74 -124 -119 -225 -140 -315 -9 -41
-21 -87 -26 -104 -4 -16 -18 -84 -30 -150 -34 -189 -21 -297 51 -427 6 -10 10
-24 10 -31 0 -20 33 -47 63 -53 39 -7 74 34 82 93 13 109 60 284 98 373 98
227 294 490 455 611 31 24 62 48 67 54 13 16 147 105 157 105 4 0 41 20 82 45
48 29 95 49 133 56 74 14 211 6 287 -16 45 -13 64 -15 83 -6 28 13 54 68 47
102 -3 13 6 -5 20 -41 13 -36 34 -110 46 -165 31 -145 58 -176 122 -138 40 23
60 83 82 246 18 126 39 209 59 224 6 6 31 13 53 17 50 7 84 -15 104 -66 7 -18
25 -62 42 -97 29 -65 108 -313 108 -342 0 -30 38 -53 81 -50 18 1 42 54 53
116 33 186 95 364 143 408 17 14 25 15 54 6 41 -14 79 -47 79 -69 0 -9 4 -20
9 -25 17 -20 61 -163 81 -264 12 -58 23 -108 25 -111 2 -4 9 -38 15 -76 14
-92 26 -114 62 -114 36 0 38 6 83 190 30 126 46 167 115 308 58 114 86 162 98
162 35 0 141 -200 231 -435 43 -111 48 -120 74 -123 40 -5 54 11 60 71 9 96
67 398 82 427 17 33 52 62 96 80 31 13 33 12 60 -19 15 -18 30 -45 34 -60 3
-14 22 -60 40 -101 18 -41 41 -105 49 -143 20 -85 79 -244 119 -320 33 -63 66
-82 95 -54 13 14 16 47 17 199 1 156 5 195 24 262 23 83 43 130 68 158 12 13
21 15 41 7 29 -11 132 -115 132 -134 0 -6 11 -26 24 -44 14 -18 48 -90 76
-160 66 -160 73 -171 110 -171 42 0 50 27 50 168 0 64 7 180 16 258 l16 140
44 10 c51 12 54 10 80 -56 21 -53 80 -150 103 -167 45 -35 126 -74 158 -76 33
-2 37 1 48 35 9 25 11 48 4 75 -5 21 -9 66 -9 101 0 62 0 63 23 51 22 -11 167
-158 167 -169 0 -3 8 -10 19 -17 10 -6 46 -47 81 -90 34 -43 95 -113 134 -157
39 -43 80 -90 91 -104 32 -41 128 -155 149 -177 49 -53 213 -320 275 -449 84
-174 161 -403 161 -480 0 -34 41 -76 74 -76 38 0 53 33 65 148 36 341 -36 641
-244 1012 -42 75 -69 124 -150 275 -94 174 -161 377 -191 575 -16 112 -13 171
13 235 37 88 121 164 211 191 25 8 50 18 56 23 17 13 107 41 132 41 25 0 57
27 49 40 -3 5 -1 11 5 15 5 3 10 15 10 26 0 26 -37 39 -113 39 -96 0 -236 20
-295 42 -128 48 -166 153 -126 345 21 104 54 182 128 304 103 172 307 379 460
466 11 7 17 13 12 13 -5 0 2 9 16 19 13 11 30 38 38 61 12 36 12 43 -2 57 -15
14 -25 13 -114 -12 -373 -102 -601 -200 -873 -373 -79 -51 -146 -90 -149 -87
-2 2 12 39 32 81 36 76 41 99 30 128 -22 56 -155 -50 -355 -284 -107 -125
-211 -291 -247 -396 -19 -56 -20 -70 -10 -264 10 -214 4 -518 -12 -534 -5 -5
-41 55 -85 145 l-77 153 21 17 c12 10 26 19 31 21 6 2 12 17 13 33 l2 30 -65
3 -65 3 -115 -75 c-96 -63 -119 -74 -145 -69 -16 3 -33 8 -37 12 -3 3 4 102
18 220 21 188 27 219 50 259 40 67 31 101 -57 222 -78 107 -102 122 -132 78
-14 -22 -15 -20 -10 24 7 59 -7 78 -56 78 -34 1 -46 -10 -192 -161 l-156 -161
-6 34 c-4 18 -11 110 -17 203 -14 220 -37 305 -84 305 -27 0 -47 -26 -66 -85
-7 -22 -26 -68 -41 -102 -22 -50 -36 -66 -74 -88 -42 -25 -53 -27 -110 -22
-58 6 -66 4 -80 -16 -19 -28 -19 -71 0 -87 9 -7 30 -31 48 -54 l32 -40 1 -131
c1 -159 12 -416 20 -467 7 -43 -3 -47 -42 -21 -23 15 -99 21 -145 11 -21 -4
-17 132 6 217 14 49 19 97 18 160 -2 50 3 125 9 167 14 91 3 128 -35 128 -32
0 -60 33 -59 70 1 44 37 135 79 197 34 52 45 105 28 133 -11 19 -67 10 -129
-19 -69 -33 -114 -75 -237 -218 -46 -53 -117 -131 -157 -173 l-74 -75 5 125
c3 69 15 171 27 228 17 83 19 110 10 143 -22 79 -21 80 -254 -175 -200 -218
-214 -244 -189 -367 15 -72 15 -76 -6 -125 -12 -28 -44 -73 -72 -100 l-50 -49
-19 23 c-29 35 -40 110 -40 265 1 218 11 268 97 453 12 28 12 36 -1 68 -11 25
-21 36 -36 36 -23 0 -209 -132 -341 -242 -109 -89 -132 -108 -140 -108 -4 0
-9 14 -13 31 -8 40 10 71 81 142 33 31 73 81 91 110 29 47 31 57 21 84 -6 17
-17 34 -26 37 -8 4 -57 -7 -107 -23 -220 -71 -353 -82 -481 -41 -86 28 -282
122 -395 190 -110 67 -361 188 -425 206 -58 16 -60 16 -68 7z m168 -89 c44
-19 177 -88 295 -154 228 -127 374 -192 471 -211 94 -18 245 -6 373 31 60 17
111 28 114 26 4 -5 -11 -25 -125 -155 -39 -44 -63 -80 -63 -95 0 -13 11 -54
25 -90 16 -42 25 -87 25 -124 0 -31 9 -120 20 -196 11 -77 18 -142 15 -144 -9
-9 -56 42 -88 96 -18 28 -36 52 -41 52 -9 0 0 -242 11 -290 5 -22 -1 -19 -45
24 -66 64 -97 123 -122 235 -11 51 -27 106 -36 122 -29 57 -135 98 -161 63
-28 -38 -61 -200 -64 -309 -4 -169 23 -729 38 -777 17 -56 65 -125 97 -139 48
-22 117 41 132 119 6 30 -11 124 -31 175 -14 35 35 18 82 -29 58 -59 65 -50
60 81 -3 74 -10 119 -29 175 -15 41 -25 77 -22 79 15 16 179 -140 233 -223 45
-69 74 -163 65 -216 -3 -19 -19 -71 -35 -116 l-29 -81 35 -76 c36 -78 47 -123
30 -120 -5 1 -45 8 -87 17 -214 44 -335 11 -599 -166 -350 -234 -633 -644
-705 -1023 -24 -128 -22 -125 -49 -80 -71 117 -65 337 16 622 33 115 56 165
124 278 116 192 235 482 296 720 25 95 23 201 -5 257 -12 24 -41 52 -86 83
-100 68 -102 72 -29 71 54 -1 63 2 84 26 31 36 45 107 52 268 7 151 4 159 -66
255 -56 75 -56 72 3 67 96 -8 149 43 149 143 -1 114 -110 316 -318 590 -50 66
-102 135 -115 154 l-23 33 24 -7 c13 -4 60 -23 104 -41z m5935 -12 c-135 -92
-340 -299 -430 -433 -75 -113 -99 -160 -138 -269 -70 -199 -64 -384 16 -474
44 -49 179 -91 342 -104 l85 -8 -55 -13 c-153 -37 -279 -130 -336 -246 -28
-58 -29 -65 -28 -200 0 -116 5 -158 26 -245 49 -197 126 -379 259 -615 153
-273 237 -468 281 -655 21 -92 39 -440 22 -440 -5 0 -20 39 -33 88 -85 308
-295 675 -558 974 -37 42 -135 155 -217 250 -207 239 -392 418 -432 418 -19 0
-19 -145 1 -255 8 -43 13 -81 11 -83 -11 -10 -63 16 -104 54 -56 49 -97 122
-142 249 -20 57 -46 109 -73 144 -23 29 -48 61 -55 71 -10 14 -8 27 15 76 25
56 27 69 31 244 2 102 -1 269 -7 372 -9 161 -9 193 5 230 28 80 114 223 201
333 87 111 259 295 276 295 5 0 -8 -30 -28 -67 -45 -82 -86 -196 -75 -212 5
-9 43 12 126 67 281 187 466 290 624 348 97 36 381 123 400 123 9 0 6 -6 -10
-17z m-4348 -399 c-11 -21 -30 -67 -43 -103 -22 -61 -24 -78 -24 -300 0 -252
5 -285 52 -340 39 -46 73 -41 140 22 105 100 133 179 106 295 -15 64 -15 77
-2 102 13 27 317 371 327 371 3 0 1 -19 -2 -42 -38 -228 -38 -397 0 -658 10
-74 13 -137 8 -212 l-7 -106 -36 23 c-54 36 -114 54 -217 66 -202 22 -391 -38
-326 -104 25 -25 96 -32 147 -15 46 15 61 48 23 49 -22 0 -22 1 -3 9 27 12 85
12 85 1 0 -13 -239 -172 -280 -187 -19 -7 -34 -16 -33 -21 2 -4 29 -10 60 -13
46 -4 57 -8 54 -20 -3 -8 -7 -40 -9 -71 -5 -71 19 -162 69 -261 22 -43 37 -84
33 -90 -4 -6 -27 -8 -56 -6 -47 5 -51 3 -68 -24 -21 -35 -53 -169 -79 -337
-18 -114 -33 -153 -53 -133 -3 4 -23 72 -43 152 -43 168 -64 214 -134 292 -28
31 -51 62 -51 70 0 7 10 29 22 48 35 58 38 95 27 360 -10 249 -11 256 -41 333
l-31 78 16 53 c23 73 22 203 -3 302 -11 43 -25 83 -30 88 -21 21 -7 44 67 106
95 80 346 270 351 265 2 -1 -5 -20 -16 -42z m1608 -44 c5 -41 11 -137 15 -214
5 -92 14 -159 26 -195 10 -31 25 -123 34 -205 43 -410 43 -383 -5 -358 -23 11
-46 14 -83 9 -29 -4 -59 -6 -67 -5 -8 0 -46 1 -85 3 l-70 2 -8 164 c-4 91 -9
237 -10 325 -2 144 -4 164 -24 202 -13 23 -27 44 -33 48 -21 13 -8 25 28 25
20 0 61 11 89 25 61 28 98 78 141 192 15 39 31 68 35 63 5 -4 13 -41 17 -81z
m-535 -4 c-88 -155 -83 -269 15 -320 26 -13 27 -17 19 -52 -5 -21 -9 -90 -9
-154 0 -78 -5 -132 -16 -165 -9 -27 -19 -96 -22 -153 l-7 -104 -53 -15 c-44
-12 -57 -13 -77 -2 -14 8 -40 11 -64 7 -23 -3 -59 -3 -81 0 l-40 6 0 99 c0 54
-5 142 -10 196 -9 83 -17 110 -55 186 l-44 89 105 116 c244 269 274 299 326
325 28 14 53 24 55 23 2 -2 -17 -39 -42 -82z m960 -186 c-13 -39 -15 -56 -6
-75 15 -34 29 -30 79 19 41 39 45 41 56 24 6 -10 34 -50 62 -89 l52 -71 -29
-61 c-30 -64 -38 -109 -65 -368 l-17 -158 -31 0 c-17 0 -48 -5 -70 -11 -27 -8
-41 -8 -49 0 -6 6 -32 11 -58 11 -25 0 -59 3 -75 6 l-29 6 -3 161 c-3 195 -16
250 -73 311 -21 24 -39 49 -39 55 0 16 231 270 273 299 40 30 46 14 22 -59z
m-2870 -259 c31 -12 49 -51 65 -140 17 -97 62 -182 135 -256 66 -67 93 -77
131 -50 16 13 19 25 16 97 -3 77 -2 81 14 68 10 -8 35 -52 57 -98 38 -80 40
-90 47 -220 5 -75 7 -137 6 -138 -1 -1 -23 25 -49 57 -83 105 -221 205 -270
198 -41 -6 -43 -46 -8 -152 17 -53 31 -114 31 -136 l0 -40 -37 20 c-38 20 -69
25 -97 14 -12 -4 -14 -17 -10 -56 3 -28 9 -58 13 -67 14 -26 24 -107 16 -140
-4 -17 -15 -36 -25 -41 -15 -8 -23 -3 -45 26 -15 20 -31 52 -36 72 -9 42 -24
453 -24 677 0 123 4 178 19 238 10 42 20 77 22 77 1 0 14 -4 29 -10z m1470
-95 c29 -60 44 -173 45 -326 l0 -85 -35 -17 -35 -17 0 48 c0 26 5 75 10 110
10 58 3 147 -25 315 -7 45 13 31 40 -28z m1139 -97 c11 -38 16 -95 16 -182 0
-122 -12 -166 -24 -88 -6 37 -36 335 -36 356 0 23 28 -32 44 -86z m-1374 -293
c46 -24 36 -35 -30 -35 -33 0 -60 3 -60 8 0 6 48 41 58 42 2 0 16 -7 32 -15z
m2406 -512 c28 -58 42 -123 27 -123 -6 0 -30 18 -55 39 l-44 39 -19 -201 c-10
-111 -21 -249 -24 -307 l-6 -105 -44 100 c-76 176 -123 247 -220 331 l-86 76
-35 -40 c-46 -51 -86 -134 -112 -230 -16 -60 -21 -110 -22 -230 l-1 -154 -37
79 c-20 43 -51 128 -69 188 -71 247 -136 380 -229 471 l-52 51 27 104 c16 63
28 144 31 204 7 136 9 145 39 145 14 0 25 -4 25 -10 0 -5 10 -10 22 -10 l21 0
-23 -25 c-19 -21 -22 -29 -13 -43 9 -15 29 -17 139 -17 l129 0 6 -50 c10 -75
26 -124 59 -183 27 -46 78 -92 103 -92 24 0 121 110 148 168 32 66 58 183 59
262 0 44 3 39 116 -170 63 -118 126 -238 140 -267z m-2016 437 c0 -12 -40 -33
-48 -25 -4 4 2 13 12 21 23 16 36 18 36 4z m665 -25 c-35 -29 -76 -36 -54 -9
15 18 46 33 69 33 9 0 3 -9 -15 -24z m715 21 c0 -2 -9 -6 -20 -9 -11 -3 -18
-1 -14 4 5 9 34 13 34 5z m300 -140 c-15 -74 -61 -165 -104 -206 l-37 -35 -29
35 c-30 36 -54 95 -66 163 l-6 37 44 0 c26 0 62 9 88 23 36 18 46 28 48 52 2
20 13 37 35 53 l32 22 3 -45 c2 -26 -2 -70 -8 -99z m-1944 99 c-22 -19 -44
-35 -50 -35 -6 1 7 16 28 35 22 19 44 35 50 35 6 -1 -7 -16 -28 -35z m-188 16
c10 -6 3 -16 -27 -40 -34 -27 -42 -30 -46 -17 -3 9 -7 23 -10 32 -3 9 -3 20 1
25 7 11 64 12 82 0z m1302 4 c0 -8 -61 -37 -67 -32 -3 3 8 12 24 21 29 16 43
19 43 11z m-585 -15 c-3 -5 -13 -10 -21 -10 -8 0 -12 5 -9 10 3 6 13 10 21 10
8 0 12 -4 9 -10z m1095 -20 c-8 -5 -24 -9 -35 -9 -16 1 -16 2 5 9 35 11 48 11
30 0z m-1380 -34 c0 -2 -7 -7 -16 -10 -8 -3 -12 -2 -9 4 6 10 25 14 25 6z
m242 -14 l46 -4 16 -68 c37 -167 124 -257 189 -198 34 31 92 149 108 221 13
63 23 75 43 57 13 -10 77 -13 203 -11 23 1 54 6 69 11 15 6 29 9 31 6 2 -2 -1
-34 -8 -71 -24 -138 1 -259 70 -337 17 -20 31 -38 31 -41 0 -3 -28 -22 -61
-43 -84 -51 -101 -89 -141 -333 -18 -105 -35 -188 -38 -184 -3 5 -30 67 -60
138 -81 199 -136 299 -186 344 -86 76 -96 69 -206 -146 -76 -146 -113 -250
-138 -386 -7 -37 -14 -66 -16 -65 -2 2 -17 73 -33 157 -30 151 -78 314 -111
381 -21 42 -51 69 -106 100 -62 34 -72 58 -47 118 11 27 28 82 38 123 9 41 20
84 23 96 9 29 200 154 222 145 8 -3 36 -7 62 -10z m764 -74 c-3 -51 -10 -106
-15 -123 l-9 -30 -1 30 c-1 37 22 215 28 215 2 0 1 -42 -3 -92z m-1563 -93
c-1 -77 -7 -165 -15 -195 l-13 -55 -31 55 c-92 164 -98 302 -15 340 14 7 33
16 41 20 28 14 35 -22 33 -165z m1037 127 c30 -10 56 -26 58 -33 4 -24 -71
-164 -90 -167 -24 -5 -74 77 -89 146 -12 50 -11 56 7 69 21 15 31 14 114 -15z
m-600 -7 c-7 -8 -17 -15 -22 -15 -6 0 -5 7 2 15 7 8 17 15 22 15 6 0 5 -7 -2
-15z m-346 -11 c13 -5 14 -9 5 -20 -16 -20 -29 -17 -29 6 0 22 1 23 24 14z
m260 -16 c3 -13 6 -68 6 -123 0 -88 4 -110 31 -179 l31 -79 -21 -26 c-77 -95
-118 -196 -162 -403 -12 -60 -25 -108 -28 -108 -3 0 -21 53 -40 118 -53 180
-99 293 -142 351 l-40 52 20 33 c24 38 47 133 56 234 l7 72 59 0 c47 0 63 4
80 21 17 17 94 51 130 58 4 0 9 -9 13 -21z m96 -120 c0 -48 -20 -115 -29 -97
-13 25 -1 129 15 129 9 0 14 -11 14 -32z"/>
<path d="M5613 3795 c-12 -8 -31 -39 -42 -68 -24 -65 -76 -394 -91 -567 -10
-123 -10 -125 13 -143 108 -88 134 -118 192 -223 l60 -109 9 175 c4 96 9 297
9 445 1 231 -2 281 -17 345 -35 142 -75 186 -133 145z m56 -174 c17 -82 24
-281 16 -502 l-7 -215 -80 77 -79 77 11 104 c25 244 66 472 92 522 10 19 11
19 24 2 7 -10 17 -39 23 -65z"/>
</g>
</svg>
