<?xml version="1.0" encoding="UTF-8" standalone="no"?>
<!DOCTYPE svg PUBLIC "-//W3C//DTD SVG 1.1//EN" "http://www.w3.org/Graphics/SVG/1.1/DTD/svg11.dtd">
<svg width="530" height="112" viewBox="35 95 530 112" version="1.1" xmlns="http://www.w3.org/2000/svg" xmlns:xlink="http://www.w3.org/1999/xlink" xml:space="preserve" xmlns:serif="http://www.serif.com/" style="fill-rule:evenodd;clip-rule:evenodd;stroke-linejoin:round;stroke-miterlimit:2;">
    <g id="Master-Logo" serif:id="Master Logo">
        <g id="Nametag-Banner-Outline" serif:id="Nametag Banner Outline">
            <g transform="matrix(0.028877,0,0,-0.022554,34.042365,199.490485)">
                <path d="M765,4348C763,4341 759,4295 757,4245C752,4139 728,4068 675,4004C600,3913 505,3870 378,3870L300,3870L300,543L390,538C465,533 492,527 544,501C622,463 682,400 723,312C750,254 754,233 758,138L763,30L17650,30L17650,94C17650,286 17729,429 17877,502C17928,527 17955,533 18030,538L18120,543L18120,3870L18050,3870C17951,3870 17887,3887 17825,3928C17711,4006 17659,4107 17654,4260L17650,4355L9210,4358C2458,4360 769,4358 765,4348ZM17590,4248C17590,4195 17614,4090 17636,4047C17707,3907 17848,3814 18000,3807L18055,3805L18055,605L17990,598C17763,576 17590,374 17590,134L17590,90L820,90L820,154C820,275 751,426 662,500C599,552 507,591 430,597L360,603L360,3800L390,3800C478,3800 601,3849 677,3914C763,3988 820,4115 820,4231L820,4290L17590,4290L17590,4248Z" style="fill:rgb(71,68,68);fill-rule:nonzero;"/>
            </g>
            <g transform="matrix(0.028877,0,0,-0.022554,34.042365,199.490485)">
                <path d="M885,4164C877,4088 851,4005 816,3945C785,3894 705,3818 652,3791C600,3764 507,3740 458,3740L420,3740L420,663L496,657C711,638 864,469 886,223L893,150L12063,150L12042,173L12021,195L6508,193C3476,192 978,193 958,196C921,202 920,202 920,247C920,347 844,508 763,581C687,650 573,700 493,700L460,700L460,3698L528,3709C613,3724 704,3768 768,3825C846,3895 910,4033 922,4160L925,4185L17485,4183L17492,4125C17520,3904 17679,3738 17890,3712L17945,3705L17948,2204L17950,704L17878,692C17702,662 17562,530 17506,341C17497,311 17490,267 17490,244L17490,202L17428,196C17393,193 16298,191 14994,192C12685,193 12623,192 12595,174C12566,155 12609,155 15035,152C16394,151 17511,152 17518,155C17526,158 17530,181 17530,223C17530,456 17724,660 17947,660L17990,660L17988,2202C17985,3545 17983,3745 17970,3742C17942,3736 17824,3761 17773,3785C17744,3798 17698,3830 17669,3856C17584,3937 17543,4024 17532,4150L17525,4225L9209,4228L892,4230L885,4164Z" style="fill:rgb(71,68,68);fill-rule:nonzero;"/>
            </g>
        </g>
        <g id="Main-Text" serif:id="Main Text">
            <g transform="matrix(0.028877,0,0,-0.022554,34.042365,199.490485)">
                <path d="M2620,3692C2535,3681 2480,3635 2480,3574C2480,3545 2483,3540 2503,3540C2516,3540 2539,3527 2555,3510C2606,3457 2602,3421 2510,3010C2465,2809 2421,2632 2413,2616C2392,2575 2304,2491 2274,2484C2239,2475 2244,2444 2289,2395C2358,2320 2359,2303 2295,2020C2184,1526 2167,1475 2090,1424C2069,1410 2033,1396 2011,1393C1963,1386 1959,1371 1990,1309C2016,1259 2062,1230 2116,1230C2160,1230 2257,1260 2291,1284C2310,1297 2317,1295 2368,1272C2415,1250 2439,1245 2503,1245C2577,1245 2583,1247 2606,1273C2622,1292 2630,1313 2630,1338C2630,1370 2625,1377 2598,1390C2514,1430 2506,1488 2555,1720C2575,1816 2593,1897 2595,1898C2597,1900 2614,1897 2633,1891C2678,1876 2725,1825 2764,1749C2791,1697 2801,1685 2821,1685C2839,1685 2851,1696 2870,1732C2923,1830 3003,1903 3042,1888C3050,1884 3067,1823 3088,1724C3122,1554 3126,1508 3109,1463C3095,1426 3051,1380 3028,1380C3016,1380 3010,1372 3009,1358C3007,1317 3011,1305 3041,1275C3069,1246 3073,1245 3158,1246C3220,1246 3263,1253 3308,1269L3371,1291L3441,1265C3511,1240 3607,1231 3595,1250C3591,1256 3600,1255 3615,1248C3664,1226 3753,1292 3760,1355C3765,1396 3761,1402 3736,1396C3699,1387 3633,1440 3605,1503C3578,1562 3540,1717 3470,2064C3415,2333 3415,2335 3484,2402C3530,2446 3531,2474 3487,2495C3469,2503 3433,2532 3407,2558L3361,2605L3279,2970C3187,3381 3178,3445 3205,3487C3226,3519 3245,3533 3280,3540C3301,3545 3305,3551 3302,3575C3292,3677 3155,3722 3032,3665C2985,3643 2976,3642 2957,3654C2920,3678 2867,3683 2827,3666C2795,3653 2787,3653 2762,3666C2727,3683 2654,3697 2620,3692ZM2840,2926C2840,2924 2874,2764 2915,2571C2956,2379 2990,2217 2990,2212C2990,2208 2971,2193 2948,2180C2925,2167 2889,2141 2868,2122L2830,2088L2787,2126C2764,2148 2728,2174 2708,2185C2685,2197 2670,2212 2670,2223C2670,2241 2681,2292 2771,2710C2819,2931 2819,2930 2831,2930C2836,2930 2840,2928 2840,2926ZM3445,2440C3448,2435 3446,2430 3441,2430C3435,2430 3430,2435 3430,2440C3430,2446 3432,2450 3434,2450C3437,2450 3442,2446 3445,2440ZM3150,2430C3150,2425 3146,2420 3140,2420C3135,2420 3130,2425 3130,2430C3130,2436 3135,2440 3140,2440C3146,2440 3150,2436 3150,2430ZM3170,1406C3170,1395 3151,1391 3145,1400C3142,1405 3146,1410 3154,1410C3163,1410 3170,1408 3170,1406ZM3630,1270C3630,1265 3628,1260 3626,1260C3623,1260 3618,1265 3615,1270C3612,1276 3614,1280 3619,1280C3625,1280 3630,1276 3630,1270Z" style="fill:rgb(71,68,68);fill-rule:nonzero;"/>
            </g>
            <g transform="matrix(0.028877,0,0,-0.022554,34.042365,199.490485)">
                <path d="M13515,3694C13373,3664 13269,3609 13170,3510C13003,3343 12910,3108 12874,2760C12859,2609 12858,2604 12822,2551C12802,2521 12770,2488 12753,2477C12735,2467 12720,2451 12720,2443C12720,2435 12742,2408 12769,2384C12835,2325 12860,2271 12860,2189C12861,2045 12908,1812 12963,1676C13036,1497 13156,1361 13303,1291C13439,1226 13566,1213 13712,1250C13802,1272 13835,1288 13909,1344L13962,1384L13990,1350C14017,1317 14018,1316 14044,1333C14099,1370 14140,1489 14147,1636C14152,1726 14149,1757 14135,1801C14097,1916 14035,1970 13941,1970C13897,1970 13885,1965 13853,1937C13818,1904 13818,1903 13834,1879C13876,1814 13859,1690 13797,1608C13710,1493 13542,1489 13447,1600C13380,1678 13353,1802 13344,2070C13338,2257 13338,2267 13359,2311C13371,2337 13397,2372 13416,2389C13435,2406 13450,2426 13450,2433C13450,2440 13432,2463 13410,2485C13356,2537 13340,2591 13340,2714C13340,2961 13369,3170 13416,3264C13437,3304 13497,3368 13533,3387C13581,3411 13665,3406 13712,3375C13765,3340 13805,3256 13795,3202C13786,3153 13764,3120 13740,3120C13712,3120 13709,3107 13721,3050C13752,2903 13911,2822 14018,2900C14095,2956 14104,2985 14112,3230C14116,3348 14122,3464 14125,3487C14137,3561 14099,3630 14039,3645C14017,3650 14009,3646 13991,3621C13964,3584 13934,3573 13912,3593C13880,3622 13768,3672 13702,3686C13638,3699 13558,3702 13515,3694ZM13360,3370C13360,3365 13358,3360 13356,3360C13353,3360 13348,3365 13345,3370C13342,3376 13344,3380 13349,3380C13355,3380 13360,3376 13360,3370ZM13400,3300C13400,3295 13395,3290 13389,3290C13384,3290 13382,3295 13385,3300C13388,3306 13393,3310 13396,3310C13398,3310 13400,3306 13400,3300ZM13120,2980C13120,2975 13116,2970 13110,2970C13105,2970 13100,2975 13100,2980C13100,2986 13105,2990 13110,2990C13116,2990 13120,2986 13120,2980Z" style="fill:rgb(71,68,68);fill-rule:nonzero;"/>
            </g>
            <g transform="matrix(0.028877,0,0,-0.022554,34.042365,199.490485)">
                <path d="M9223,3370C9166,3318 9127,3313 9008,3343C8951,3357 8880,3371 8850,3375C8783,3383 8672,3361 8593,3326L8538,3300L8482,3319C8451,3329 8393,3340 8354,3344C8286,3350 8281,3349 8255,3322C8240,3307 8224,3284 8219,3271C8208,3245 8216,3207 8230,3215C8248,3226 8300,3189 8320,3150C8339,3114 8340,3092 8340,2830C8340,2519 8338,2510 8276,2451C8235,2411 8231,2395 8260,2380C8271,2374 8294,2351 8310,2328L8340,2287L8340,1644L8315,1594C8290,1543 8253,1515 8226,1526C8203,1535 8199,1500 8220,1460C8248,1405 8288,1386 8365,1392C8419,1397 8472,1417 8521,1452C8534,1461 8544,1459 8569,1441C8608,1413 8704,1383 8780,1374C8837,1368 8935,1381 9008,1406C9093,1434 9187,1416 9226,1362C9234,1352 9245,1349 9264,1354C9304,1364 9323,1417 9318,1505C9314,1558 9317,1584 9330,1610C9377,1707 9381,1846 9338,1922C9270,2045 9123,2067 9060,1965C9038,1930 9040,1910 9065,1910C9088,1910 9113,1851 9107,1813C9097,1756 9054,1693 9002,1663C8961,1639 8944,1635 8875,1635C8783,1635 8752,1649 8723,1703C8707,1731 8705,1768 8702,1984C8700,2121 8701,2244 8705,2257C8710,2277 8717,2280 8757,2280C8798,2280 8807,2275 8846,2236C8879,2203 8890,2185 8890,2161C8890,2132 8892,2130 8926,2130C8955,2130 8970,2137 8995,2164C9044,2216 9054,2294 9021,2366C9002,2407 9002,2408 9023,2466C9058,2566 9028,2658 8950,2690C8910,2706 8890,2697 8890,2662C8890,2596 8810,2527 8740,2532L8705,2535L8705,2781C8705,2966 8708,3033 8718,3052C8738,3088 8784,3111 8850,3117C8980,3129 9097,3023 9060,2926C9054,2911 9040,2896 9029,2893C8988,2882 9029,2807 9094,2773C9134,2752 9218,2760 9258,2788C9297,2817 9333,2890 9338,2957C9340,2986 9335,3049 9326,3098C9313,3164 9311,3192 9319,3213C9344,3277 9324,3379 9285,3394C9261,3403 9258,3402 9223,3370ZM8355,3140C8358,3135 8356,3130 8351,3130C8345,3130 8340,3135 8340,3140C8340,3146 8342,3150 8344,3150C8347,3150 8352,3146 8355,3140Z" style="fill:rgb(71,68,68);fill-rule:nonzero;"/>
            </g>
            <g transform="matrix(0.028877,0,0,-0.022554,34.042365,199.490485)">
                <path d="M4407,3369C4344,3360 4275,3341 4217,3316C4184,3301 4177,3301 4150,3315C4111,3335 4073,3334 4061,3313C4052,3297 4051,3297 4050,3317C4050,3338 4009,3360 3968,3360C3933,3360 3889,3329 3874,3295C3853,3243 3856,3220 3884,3220C3918,3220 3968,3167 3977,3122C3981,3102 3985,2964 3985,2815C3985,2514 3984,2508 3915,2453C3896,2438 3880,2419 3880,2413C3880,2406 3899,2382 3923,2361C3948,2338 3971,2305 3978,2283C3997,2223 3987,1657 3967,1608C3946,1557 3915,1530 3880,1530C3856,1530 3850,1526 3850,1510C3850,1480 3876,1435 3906,1411C3935,1388 4008,1382 4027,1401C4035,1409 4040,1409 4044,1401C4055,1385 4078,1388 4126,1411C4166,1432 4171,1432 4202,1417C4260,1390 4344,1378 4388,1389C4436,1402 4476,1441 4485,1481C4492,1514 4488,1523 4463,1526C4427,1532 4399,1555 4378,1599C4356,1643 4355,1655 4355,1907C4355,2051 4358,2171 4362,2175C4377,2191 4445,2167 4476,2136C4511,2101 4538,2024 4564,1882C4613,1619 4709,1362 4813,1217C4878,1127 4994,1021 5075,978C5270,876 5500,876 5593,979C5668,1062 5661,1193 5579,1236C5552,1250 5550,1249 5535,1220C5495,1142 5385,1158 5279,1257C5141,1386 5026,1626 4945,1952C4913,2083 4879,2152 4817,2214C4789,2242 4772,2266 4778,2268C4806,2277 4890,2340 4932,2383C4958,2409 4996,2464 5016,2504C5036,2545 5067,2593 5086,2611C5105,2629 5120,2650 5120,2657C5120,2664 5107,2688 5091,2710C5066,2745 5062,2760 5058,2847C5042,3137 4890,3318 4626,3365C4530,3381 4495,3382 4407,3369ZM4030,3271C4030,3265 4026,3258 4020,3255C4015,3252 4010,3256 4010,3264C4010,3273 4015,3280 4020,3280C4026,3280 4030,3276 4030,3271ZM4565,3087C4594,3071 4613,3049 4635,3006C4664,2949 4665,2940 4668,2803C4671,2680 4669,2650 4651,2592C4625,2509 4602,2470 4555,2434C4512,2401 4424,2389 4384,2410L4360,2423L4360,2732C4360,2924 4364,3049 4370,3060C4398,3112 4497,3125 4565,3087ZM4030,2360C4030,2355 4026,2350 4020,2350C4015,2350 4010,2355 4010,2360C4010,2366 4015,2370 4020,2370C4026,2370 4030,2366 4030,2360ZM4110,2280C4110,2275 4108,2270 4106,2270C4103,2270 4098,2275 4095,2280C4092,2286 4094,2290 4099,2290C4105,2290 4110,2286 4110,2280ZM4747,1908C4744,1900 4741,1903 4741,1914C4740,1925 4743,1931 4746,1927C4749,1924 4750,1915 4747,1908Z" style="fill:rgb(71,68,68);fill-rule:nonzero;"/>
            </g>
            <g transform="matrix(0.028877,0,0,-0.022554,34.042365,199.490485)">
                <path d="M5825,3367C5803,3360 5749,3335 5705,3311C5596,3251 5512,3163 5459,3054C5412,2958 5364,2778 5349,2641C5335,2519 5327,2498 5274,2451C5225,2408 5221,2397 5248,2378C5258,2371 5283,2343 5303,2317C5335,2276 5340,2261 5340,2217C5340,2127 5371,1909 5396,1821C5480,1525 5650,1372 5918,1353L6000,1347L6011,1307C6047,1172 6137,1055 6247,998C6326,957 6347,951 6453,940C6658,920 6802,999 6817,1141C6824,1207 6805,1252 6760,1275C6720,1296 6713,1294 6705,1263C6675,1139 6488,1153 6385,1287C6349,1334 6290,1450 6290,1473C6290,1479 6307,1502 6328,1522C6441,1634 6511,1847 6526,2125C6530,2197 6538,2266 6545,2280C6552,2294 6576,2326 6599,2352C6622,2377 6640,2403 6640,2408C6640,2414 6627,2429 6610,2443C6558,2487 6530,2538 6530,2590C6530,2616 6521,2684 6511,2742C6474,2948 6403,3127 6361,3123C6338,3120 6331,3145 6352,3152C6372,3159 6247,3283 6190,3314C6102,3362 6034,3380 5946,3379C5901,3378 5847,3373 5825,3367ZM5554,3155C5550,3147 5543,3140 5538,3140C5532,3140 5533,3146 5540,3155C5547,3163 5554,3170 5556,3170C5558,3170 5557,3163 5554,3155ZM6235,3132C6232,3129 6224,3132 6217,3139C6208,3149 6209,3150 6223,3144C6233,3141 6238,3135 6235,3132ZM6000,3125C6033,3108 6071,3060 6088,3015C6109,2957 6121,2864 6127,2690C6133,2523 6132,2513 6111,2475C6100,2453 6085,2428 6078,2419C6069,2406 6073,2395 6096,2365L6125,2327L6125,2099C6125,1974 6122,1869 6118,1865C6114,1861 6097,1874 6080,1893C6008,1976 5876,1970 5835,1883C5815,1842 5820,1834 5868,1827C5933,1816 5990,1731 5990,1644C5990,1616 5985,1609 5964,1604C5885,1584 5804,1643 5776,1742C5753,1822 5740,1957 5740,2128C5740,2289 5744,2305 5794,2373C5811,2396 5812,2404 5802,2418C5748,2494 5747,2501 5753,2714C5758,2930 5771,3005 5814,3071C5856,3133 5938,3157 6000,3125ZM5470,2990C5470,2985 5468,2980 5466,2980C5463,2980 5458,2985 5455,2990C5452,2996 5454,3000 5459,3000C5465,3000 5470,2996 5470,2990Z" style="fill:rgb(71,68,68);fill-rule:nonzero;"/>
            </g>
            <g transform="matrix(0.028877,0,0,-0.022554,34.042365,199.490485)">
                <path d="M11408,3361C11329,3335 11274,3301 11212,3238C11082,3109 10996,2886 10965,2600C10956,2520 10941,2490 10890,2449C10868,2431 10850,2413 10850,2408C10850,2403 10870,2379 10893,2355C10949,2300 10955,2281 10970,2135C11014,1693 11210,1402 11481,1374C11618,1361 11736,1405 11840,1509C11983,1654 12061,1871 12086,2195L12093,2284L12146,2341C12176,2372 12200,2401 12200,2407C12200,2412 12182,2431 12160,2449C12106,2492 12093,2521 12080,2626C12065,2741 12024,2915 11994,2993C11932,3150 11826,3276 11706,3336C11614,3381 11498,3391 11408,3361ZM11583,3125C11622,3107 11653,3061 11676,2989C11689,2947 11694,2887 11697,2720C11701,2488 11705,2509 11647,2427C11629,2402 11629,2401 11664,2355L11700,2308L11700,2095C11700,1858 11687,1766 11644,1692C11601,1618 11533,1592 11471,1625C11375,1674 11336,1826 11342,2130L11345,2305L11413,2399L11345,2505L11346,2695C11347,2900 11358,2977 11397,3053C11436,3132 11510,3160 11583,3125ZM11930,2560C11930,2555 11928,2550 11926,2550C11923,2550 11918,2555 11915,2560C11912,2566 11914,2570 11919,2570C11925,2570 11930,2566 11930,2560Z" style="fill:rgb(71,68,68);fill-rule:nonzero;"/>
            </g>
            <g transform="matrix(0.028877,0,0,-0.022554,34.042365,199.490485)">
                <path d="M14756,3369C14696,3355 14608,3304 14555,3252C14419,3119 14336,2915 14300,2624C14288,2530 14269,2488 14222,2448C14177,2410 14177,2404 14221,2363C14277,2311 14286,2289 14294,2190C14304,2067 14346,1871 14383,1771C14420,1674 14491,1561 14555,1497C14649,1402 14789,1357 14920,1379C15024,1396 15075,1424 15160,1509C15307,1657 15390,1879 15407,2169C15413,2270 15414,2273 15452,2321C15473,2348 15495,2370 15500,2370C15505,2370 15514,2379 15520,2390C15530,2408 15525,2417 15481,2456C15425,2506 15416,2528 15400,2655C15350,3048 15191,3304 14956,3366C14899,3381 14815,3383 14756,3369ZM14913,3125C14997,3085 15033,2942 15028,2669L15025,2492L14993,2446L14961,2401L14990,2365C15006,2344 15022,2313 15026,2294C15029,2275 15030,2162 15028,2043C15023,1804 15010,1736 14956,1666C14906,1600 14809,1597 14757,1660C14695,1733 14665,1912 14672,2162C14675,2279 14678,2299 14697,2330C14745,2405 14745,2403 14709,2453C14679,2496 14676,2505 14672,2602C14670,2659 14673,2762 14679,2832C14695,3014 14724,3090 14792,3123C14833,3144 14873,3144 14913,3125ZM15135,2460C15138,2455 15136,2450 15131,2450C15125,2450 15120,2455 15120,2460C15120,2466 15122,2470 15124,2470C15127,2470 15132,2466 15135,2460ZM14505,2450C14508,2445 14506,2440 14501,2440C14495,2440 14490,2445 14490,2450C14490,2456 14492,2460 14494,2460C14497,2460 14502,2456 14505,2450Z" style="fill:rgb(71,68,68);fill-rule:nonzero;"/>
            </g>
            <g transform="matrix(0.028877,0,0,-0.022554,34.042365,199.490485)">
                <path d="M10065,3360C10032,3355 9968,3339 9924,3325L9842,3298L9802,3319C9757,3342 9730,3346 9730,3330C9730,3325 9720,3330 9709,3341C9692,3358 9679,3361 9644,3357C9587,3351 9552,3327 9534,3283C9516,3241 9522,3220 9550,3220C9580,3220 9626,3170 9639,3124C9646,3100 9650,2981 9650,2820C9650,2525 9645,2501 9581,2448C9543,2416 9542,2398 9575,2376C9589,2367 9612,2342 9626,2321L9651,2282L9648,1954C9645,1671 9643,1621 9629,1595C9605,1552 9575,1527 9545,1528C9489,1528 9528,1432 9596,1404C9637,1387 9682,1386 9698,1402C9706,1410 9713,1410 9723,1402C9734,1393 9748,1396 9786,1415L9834,1439L9886,1414C9957,1379 10052,1376 10096,1407C10151,1446 10168,1522 10122,1525C10090,1527 10042,1577 10030,1619C10025,1639 10020,1773 10020,1918L10020,2180L10049,2180C10084,2180 10138,2145 10166,2103C10177,2086 10194,2037 10204,1994C10278,1666 10307,1569 10375,1425C10538,1078 10861,823 11225,755C11296,741 11349,739 11470,743C11640,749 11728,767 11930,837C11990,858 12043,871 12053,867C12076,858 12075,827 12045,680C11992,418 12024,281 12158,203C12223,164 12349,158 12433,190C12515,221 12618,293 12740,405C12892,546 12980,614 13057,652C13117,681 13134,685 13205,685C13284,684 13286,684 13455,603C13549,558 13652,510 13685,497C14066,340 14510,336 14957,485C15291,597 15544,754 15959,1105C16175,1288 16271,1363 16324,1391C16395,1428 16400,1434 16400,1476C16400,1501 16383,1529 16323,1604C16255,1688 16241,1700 16214,1700C16183,1700 16091,1642 15909,1508C15630,1302 15314,1101 15105,995C14808,845 14638,797 14395,796C14160,795 14070,820 13690,995C13457,1102 13348,1130 13180,1125C12978,1119 12769,1014 12554,809C12526,783 12500,763 12498,766C12495,768 12497,796 12502,828C12514,897 12505,1007 12484,1069C12458,1145 12394,1218 12320,1255C12194,1318 12085,1314 11872,1240C11661,1166 11558,1140 11450,1133C11283,1123 11133,1166 11003,1261C10816,1398 10701,1591 10619,1904C10571,2086 10546,2144 10486,2208C10461,2235 10440,2260 10440,2263C10440,2267 10459,2279 10482,2291C10549,2325 10636,2419 10674,2500C10693,2539 10725,2591 10745,2616L10782,2661L10751,2709C10725,2749 10720,2767 10720,2819C10720,3029 10613,3229 10460,3303C10355,3354 10189,3378 10065,3360ZM9995,3290C9998,3285 9996,3280 9991,3280C9985,3280 9980,3285 9980,3290C9980,3296 9982,3300 9984,3300C9987,3300 9992,3296 9995,3290ZM10213,3096C10257,3078 10294,3032 10317,2968C10343,2893 10343,2682 10316,2587C10281,2459 10203,2392 10099,2402C10016,2410 10020,2394 10020,2732C10020,2924 10024,3038 10031,3051C10058,3103 10146,3124 10213,3096Z" style="fill:rgb(71,68,68);fill-rule:nonzero;"/>
            </g>
            <g transform="matrix(0.028877,0,0,-0.022554,34.042365,199.490485)">
                <path d="M6775,3352C6725,3335 6690,3292 6690,3248C6690,3225 6694,3220 6714,3220C6748,3220 6798,3167 6807,3122C6811,3102 6815,2961 6814,2809C6814,2541 6813,2532 6791,2497C6779,2477 6758,2452 6744,2441C6711,2415 6713,2404 6760,2358C6783,2334 6801,2306 6805,2287C6807,2269 6812,2156 6815,2034C6819,1854 6824,1800 6841,1739C6893,1551 7011,1435 7202,1384C7264,1368 7424,1366 7500,1380C7630,1405 7758,1502 7818,1622C7874,1734 7882,1782 7889,2045C7896,2308 7895,2305 7964,2369C7998,2401 7997,2416 7960,2447C7943,2461 7920,2490 7910,2511C7892,2546 7890,2571 7890,2830C7890,3135 7893,3158 7945,3198C7962,3212 7981,3218 7992,3215C8007,3210 8010,3214 8010,3240C8010,3284 7984,3329 7955,3336C7941,3339 7899,3339 7862,3336C7825,3332 7782,3329 7765,3328C7749,3328 7732,3323 7729,3318C7725,3312 7710,3314 7691,3324C7615,3364 7531,3351 7494,3295C7479,3272 7478,3219 7493,3220C7497,3220 7514,3213 7531,3205C7586,3176 7590,3152 7590,2825C7590,2504 7589,2499 7532,2437C7513,2417 7508,2405 7515,2396C7521,2389 7540,2364 7558,2340L7590,2297L7590,2060C7590,1800 7582,1748 7533,1689C7480,1627 7388,1604 7312,1635C7265,1655 7234,1685 7207,1735C7186,1773 7185,1788 7185,2036L7185,2296L7215,2340C7232,2363 7249,2389 7255,2396C7262,2405 7257,2417 7238,2437C7181,2499 7180,2503 7180,2828C7180,3122 7180,3128 7203,3161C7216,3181 7239,3199 7258,3205C7286,3213 7290,3219 7290,3247C7290,3269 7281,3290 7262,3311C7237,3339 7231,3341 7211,3331C7193,3321 7184,3322 7163,3335C7142,3349 7131,3350 7092,3340C7067,3334 7035,3320 7020,3310C6994,3292 6993,3292 6934,3321C6872,3351 6809,3364 6775,3352ZM6830,3230C6830,3225 6826,3220 6820,3220C6815,3220 6810,3225 6810,3230C6810,3236 6815,3240 6820,3240C6826,3240 6830,3236 6830,3230Z" style="fill:rgb(71,68,68);fill-rule:nonzero;"/>
            </g>
            <g transform="matrix(0.028877,0,0,-0.022554,34.042365,199.490485)">
                <path d="M15640,1889C15573,1862 15520,1779 15520,1700C15520,1643 15530,1619 15569,1577C15627,1514 15711,1501 15784,1544C15864,1591 15900,1714 15857,1795C15813,1880 15719,1920 15640,1889Z" style="fill:rgb(71,68,68);fill-rule:nonzero;"/>
            </g>
            <g transform="matrix(0.028877,0,0,-0.022554,34.042365,199.490485)">
                <path d="M17382,2720C17370,2708 17360,2695 17360,2690C17360,2685 17343,2680 17323,2678C17298,2676 17282,2668 17275,2655C17267,2640 17257,2636 17229,2638C17181,2642 17162,2620 17177,2579C17191,2544 17178,2533 17148,2554C17117,2576 17084,2574 17059,2549C17042,2532 17039,2521 17045,2493C17051,2461 17050,2459 17031,2469C16972,2501 16913,2466 16923,2404C16928,2375 16926,2369 16914,2374C16870,2391 16848,2391 16824,2375C16801,2360 16798,2353 16803,2314C16807,2275 16806,2272 16789,2280C16755,2299 16713,2292 16690,2263C16670,2237 16669,2220 16686,2177C16691,2164 16682,2163 16632,2167C16575,2172 16572,2171 16552,2142C16524,2104 16524,2102 16558,2067L16585,2037L16560,2044C16470,2069 16431,2061 16405,2010C16389,1979 16392,1961 16422,1918C16460,1863 16438,1855 16371,1900C16318,1936 16306,1937 16275,1906C16254,1885 16252,1878 16261,1839C16267,1815 16276,1790 16282,1783C16288,1775 16290,1767 16287,1764C16279,1756 16365,1680 16382,1680C16390,1680 16405,1671 16414,1661C16434,1639 16462,1553 16452,1547C16448,1545 16451,1545 16459,1547C16466,1549 16490,1534 16511,1515C16555,1475 16586,1471 16618,1500C16643,1524 16644,1530 16629,1564C16614,1597 16633,1624 16665,1616C16701,1607 16723,1631 16718,1673L16714,1710L16762,1710C16818,1710 16835,1730 16824,1786L16817,1822L16849,1815C16871,1810 16888,1813 16906,1825C16928,1839 16931,1848 16928,1883L16925,1924L16966,1922C17019,1918 17040,1938 17040,1991C17040,2030 17040,2030 17078,2030C17131,2030 17154,2056 17147,2109L17142,2148L17181,2143C17234,2135 17254,2153 17247,2202L17242,2240L17281,2240C17330,2240 17353,2270 17344,2320C17337,2352 17338,2353 17365,2348C17424,2336 17455,2370 17448,2436C17445,2463 17448,2465 17481,2468C17537,2473 17553,2498 17556,2583C17559,2667 17548,2690 17490,2720C17440,2745 17410,2745 17382,2720Z" style="fill:rgb(71,68,68);fill-rule:nonzero;"/>
            </g>
        </g>
        <g id="Shadow">
            <g transform="matrix(0.028877,0,0,-0.022554,34.042365,199.490485)">
                <path d="M2826,2763C2822,2751 2815,2719 2811,2693C2806,2667 2784,2569 2762,2475C2706,2237 2705,2228 2729,2213C2750,2200 2749,2195 2805,2455C2819,2521 2837,2600 2844,2632C2855,2677 2855,2698 2845,2737C2835,2777 2832,2781 2826,2763ZM2816,2603C2805,2592 2799,2607 2807,2626C2814,2644 2815,2644 2818,2627C2820,2617 2819,2606 2816,2603Z" style="fill:rgb(71,68,68);fill-rule:nonzero;"/>
            </g>
            <g transform="matrix(0.028877,0,0,-0.022554,34.042365,199.490485)">
                <path d="M14153,3482C14152,3445 14149,3332 14148,3230C14144,3014 14134,2971 14067,2899C14033,2862 14014,2850 13973,2842C13940,2834 13911,2834 13889,2840C13841,2854 13842,2845 13893,2816C13946,2785 14005,2782 14058,2809C14107,2834 14134,2865 14162,2925C14184,2972 14185,2986 14183,3150C14181,3247 14185,3354 14191,3391C14203,3459 14194,3516 14167,3538C14158,3546 14154,3532 14153,3482Z" style="fill:rgb(71,68,68);fill-rule:nonzero;"/>
            </g>
            <g transform="matrix(0.028877,0,0,-0.022554,34.042365,199.490485)">
                <path d="M3296,3499C3245,3491 3216,3457 3224,3415C3228,3391 3374,2733 3395,2644C3398,2632 3408,2612 3419,2599C3441,2571 3451,2518 3340,3025C3302,3201 3270,3363 3270,3386C3270,3410 3265,3430 3258,3432C3240,3438 3259,3460 3283,3460C3308,3461 3344,3484 3339,3497C3337,3502 3317,3503 3296,3499Z" style="fill:rgb(71,68,68);fill-rule:nonzero;"/>
            </g>
            <g transform="matrix(0.028877,0,0,-0.022554,34.042365,199.490485)">
                <path d="M4436,3062C4432,3056 4432,3040 4436,3026C4442,3001 4443,3001 4473,3017C4490,3025 4522,3033 4543,3033C4578,3033 4580,3034 4566,3048C4548,3066 4446,3077 4436,3062Z" style="fill:rgb(71,68,68);fill-rule:nonzero;"/>
            </g>
            <g transform="matrix(0.028877,0,0,-0.022554,34.042365,199.490485)">
                <path d="M4390,2745C4390,2461 4391,2450 4410,2440C4430,2429 4430,2432 4430,2688C4430,2971 4425,3040 4404,3040C4392,3040 4390,2988 4390,2745Z" style="fill:rgb(71,68,68);fill-rule:nonzero;"/>
            </g>
            <g transform="matrix(0.028877,0,0,-0.022554,34.042365,199.490485)">
                <path d="M5871,3075C5812,3024 5780,2869 5780,2631C5780,2548 5785,2516 5799,2485L5818,2445L5819,2585C5820,2662 5825,2766 5830,2815C5847,2968 5910,3060 5999,3060L6035,3061L6011,3080C5976,3110 5910,3107 5871,3075Z" style="fill:rgb(71,68,68);fill-rule:nonzero;"/>
            </g>
            <g transform="matrix(0.028877,0,0,-0.022554,34.042365,199.490485)">
                <path d="M5830,2381C5830,2364 5819,2339 5805,2322C5780,2292 5780,2291 5780,2089L5781,1885L5801,1909C5819,1931 5821,1947 5819,2084C5819,2185 5822,2244 5831,2262C5840,2284 5840,2292 5830,2305C5823,2313 5820,2324 5824,2327C5828,2331 5835,2328 5840,2320C5847,2309 5852,2308 5861,2317C5869,2325 5869,2337 5860,2364C5845,2410 5830,2419 5830,2381Z" style="fill:rgb(71,68,68);fill-rule:nonzero;"/>
            </g>
            <g transform="matrix(0.028877,0,0,-0.022554,34.042365,199.490485)">
                <path d="M5805,1758C5812,1726 5839,1667 5840,1682C5841,1706 5817,1790 5808,1790C5802,1790 5801,1777 5805,1758Z" style="fill:rgb(71,68,68);fill-rule:nonzero;"/>
            </g>
            <g transform="matrix(0.028877,0,0,-0.022554,34.042365,199.490485)">
                <path d="M11509,3102C11495,3100 11469,3085 11452,3067C11420,3033 11399,2980 11419,2980C11425,2980 11430,2972 11430,2963C11431,2947 11432,2947 11445,2964C11453,2975 11460,3003 11460,3027C11460,3059 11464,3070 11475,3070C11483,3070 11490,3063 11490,3055C11490,3038 11511,3035 11526,3050C11532,3056 11551,3062 11568,3063C11607,3066 11608,3072 11573,3090C11539,3107 11541,3107 11509,3102Z" style="fill:rgb(71,68,68);fill-rule:nonzero;"/>
            </g>
            <g transform="matrix(0.028877,0,0,-0.022554,34.042365,199.490485)">
                <path d="M11393,2933C11389,2912 11385,2805 11385,2695C11385,2535 11388,2490 11400,2470C11414,2447 11415,2466 11420,2690C11423,2829 11421,2938 11416,2941C11411,2945 11411,2953 11414,2959C11418,2965 11417,2970 11411,2970C11405,2970 11397,2953 11393,2933Z" style="fill:rgb(71,68,68);fill-rule:nonzero;"/>
            </g>
            <g transform="matrix(0.028877,0,0,-0.022554,34.042365,199.490485)">
                <path d="M11426,2379C11422,2360 11420,2334 11420,2321C11420,2302 11417,2300 11406,2309C11395,2318 11391,2317 11386,2304C11376,2277 11379,1936 11391,1853C11400,1787 11436,1673 11446,1682C11447,1684 11442,1710 11434,1740C11419,1793 11398,2240 11410,2240C11413,2240 11428,2260 11444,2285C11473,2332 11474,2357 11447,2394C11434,2412 11432,2411 11426,2379Z" style="fill:rgb(71,68,68);fill-rule:nonzero;"/>
            </g>
            <g transform="matrix(0.028877,0,0,-0.022554,34.042365,199.490485)">
                <path d="M14823,3098C14748,3078 14720,2985 14713,2725C14708,2533 14708,2522 14729,2482C14741,2459 14751,2440 14753,2440C14754,2440 14754,2530 14752,2641C14750,2752 14753,2863 14759,2889C14767,2926 14766,2937 14754,2943C14732,2955 14736,2973 14758,2961C14774,2953 14780,2957 14793,2986C14806,3013 14808,3026 14799,3041C14792,3056 14792,3065 14801,3076C14818,3097 14830,3093 14830,3065C14830,3035 14828,3036 14874,3055C14894,3064 14915,3068 14920,3065C14926,3061 14930,3063 14930,3069C14930,3092 14866,3110 14823,3098Z" style="fill:rgb(71,68,68);fill-rule:nonzero;"/>
            </g>
            <g transform="matrix(0.028877,0,0,-0.022554,34.042365,199.490485)">
                <path d="M14762,2402C14766,2388 14758,2366 14739,2338L14710,2295L14710,2125C14710,1928 14722,1811 14751,1734C14777,1665 14784,1668 14765,1739C14757,1771 14748,1876 14744,1999C14737,2196 14738,2208 14758,2250C14770,2275 14785,2302 14792,2312C14801,2325 14801,2337 14790,2370C14776,2413 14752,2440 14762,2402Z" style="fill:rgb(71,68,68);fill-rule:nonzero;"/>
            </g>
            <g transform="matrix(0.028877,0,0,-0.022554,34.042365,199.490485)">
                <path d="M10082,3054C10060,3039 10060,3038 10060,2739C10060,2442 10060,2440 10081,2440C10102,2440 10102,2442 10098,2709C10095,2962 10096,2979 10114,2999C10136,3024 10202,3044 10230,3035C10264,3024 10252,3040 10215,3056C10170,3074 10110,3074 10082,3054Z" style="fill:rgb(71,68,68);fill-rule:nonzero;"/>
            </g>
            <g transform="matrix(0.028877,0,0,-0.022554,34.042365,199.490485)">
                <path d="M13580,3352C13580,3342 13573,3325 13565,3314C13551,3296 13551,3296 13550,3323C13550,3361 13538,3357 13493,3306C13411,3212 13380,3065 13380,2771C13380,2593 13382,2572 13400,2543C13411,2525 13421,2510 13422,2510C13424,2510 13424,2594 13422,2697C13418,2970 13443,3135 13507,3240C13525,3270 13543,3295 13547,3295C13552,3296 13575,3306 13599,3319C13628,3334 13655,3340 13676,3338C13719,3333 13719,3337 13675,3356C13625,3376 13580,3375 13580,3352Z" style="fill:rgb(71,68,68);fill-rule:nonzero;"/>
            </g>
            <g transform="matrix(0.028877,0,0,-0.022554,34.042365,199.490485)">
                <path d="M9370,3274C9376,3260 9380,3223 9381,3192C9381,3143 9383,3139 9392,3160C9405,3192 9404,3253 9390,3279C9374,3309 9358,3305 9370,3274Z" style="fill:rgb(71,68,68);fill-rule:nonzero;"/>
            </g>
            <g transform="matrix(0.028877,0,0,-0.022554,34.042365,199.490485)">
                <path d="M7320,3211C7320,3194 7317,3179 7313,3179C7308,3178 7294,3176 7281,3175C7267,3174 7248,3162 7238,3150C7217,3124 7213,3085 7233,3096C7272,3120 7298,3144 7293,3153C7290,3158 7297,3157 7308,3151C7319,3145 7331,3140 7334,3140C7344,3140 7340,3229 7330,3235C7324,3239 7320,3228 7320,3211Z" style="fill:rgb(71,68,68);fill-rule:nonzero;"/>
            </g>
            <g transform="matrix(0.028877,0,0,-0.022554,34.042365,199.490485)">
                <path d="M8040,3220C8040,3205 8035,3189 8030,3184C8023,3177 8025,3167 8034,3154C8048,3136 8049,3136 8059,3163C8073,3199 8073,3202 8055,3226C8041,3244 8041,3244 8040,3220Z" style="fill:rgb(71,68,68);fill-rule:nonzero;"/>
            </g>
            <g transform="matrix(0.028877,0,0,-0.022554,34.042365,199.490485)">
                <path d="M9346,3191C9342,3185 9346,3157 9354,3128C9380,3036 9384,2948 9366,2893C9328,2783 9264,2726 9174,2725C9112,2725 9117,2707 9183,2689C9301,2657 9396,2737 9408,2876C9413,2944 9395,3081 9377,3115C9371,3126 9364,3149 9362,3165C9358,3200 9354,3205 9346,3191Z" style="fill:rgb(71,68,68);fill-rule:nonzero;"/>
            </g>
            <g transform="matrix(0.028877,0,0,-0.022554,34.042365,199.490485)">
                <path d="M7973,3169C7933,3154 7917,3103 7948,3084C7963,3074 7969,3078 7986,3110C8011,3155 8005,3181 7973,3169Z" style="fill:rgb(71,68,68);fill-rule:nonzero;"/>
            </g>
            <g transform="matrix(0.028877,0,0,-0.022554,34.042365,199.490485)">
                <path d="M8863,3083C8856,3080 8850,3071 8850,3062C8849,3047 8848,3047 8839,3063C8827,3084 8796,3078 8763,3047C8740,3027 8740,3022 8740,2799C8740,2588 8741,2572 8758,2574C8773,2577 8775,2595 8778,2778L8780,2978L8814,3008C8852,3041 8930,3057 8975,3040C9014,3025 9018,3035 8982,3054C8946,3073 8880,3088 8863,3083Z" style="fill:rgb(71,68,68);fill-rule:nonzero;"/>
            </g>
            <g transform="matrix(0.028877,0,0,-0.022554,34.042365,199.490485)">
                <path d="M5056,3043C5076,2995 5089,2925 5097,2830C5102,2763 5121,2700 5136,2700C5143,2700 5133,2811 5118,2894C5113,2927 5096,2982 5080,3017C5049,3084 5029,3106 5056,3043Z" style="fill:rgb(71,68,68);fill-rule:nonzero;"/>
            </g>
            <g transform="matrix(0.028877,0,0,-0.022554,34.042365,199.490485)">
                <path d="M10700,3080C10700,3077 10709,3053 10719,3025C10742,2965 10763,2832 10757,2792C10753,2768 10781,2700 10795,2700C10801,2700 10788,2827 10775,2897C10767,2937 10747,2996 10731,3027C10714,3059 10701,3083 10700,3080Z" style="fill:rgb(71,68,68);fill-rule:nonzero;"/>
            </g>
            <g transform="matrix(0.028877,0,0,-0.022554,34.042365,199.490485)">
                <path d="M7218,2813C7220,2539 7223,2503 7243,2477C7253,2463 7254,2515 7249,2737C7243,2996 7237,3070 7221,3070C7218,3070 7216,2954 7218,2813Z" style="fill:rgb(71,68,68);fill-rule:nonzero;"/>
            </g>
            <g transform="matrix(0.028877,0,0,-0.022554,34.042365,199.490485)">
                <path d="M15350,3007C15365,2973 15386,2918 15395,2886C15412,2828 15459,2600 15464,2550C15465,2536 15472,2516 15478,2505C15489,2486 15489,2487 15490,2512C15490,2560 15441,2803 15417,2875C15394,2943 15334,3070 15325,3070C15323,3070 15334,3042 15350,3007Z" style="fill:rgb(71,68,68);fill-rule:nonzero;"/>
            </g>
            <g transform="matrix(0.028877,0,0,-0.022554,34.042365,199.490485)">
                <path d="M12026,3003C12064,2908 12098,2778 12115,2663C12135,2529 12139,2514 12155,2500C12166,2491 12167,2497 12163,2532C12145,2692 12099,2871 12045,2987C12005,3074 11993,3084 12026,3003Z" style="fill:rgb(71,68,68);fill-rule:nonzero;"/>
            </g>
            <g transform="matrix(0.028877,0,0,-0.022554,34.042365,199.490485)">
                <path d="M6492,2963C6524,2880 6554,2739 6566,2620C6572,2554 6591,2490 6605,2490C6619,2490 6572,2771 6543,2865C6520,2938 6475,3040 6466,3040C6464,3040 6476,3005 6492,2963Z" style="fill:rgb(71,68,68);fill-rule:nonzero;"/>
            </g>
            <g transform="matrix(0.028877,0,0,-0.022554,34.042365,199.490485)">
                <path d="M7930,2787C7930,2552 7931,2533 7950,2505L7970,2475L7970,2565C7970,2796 7957,3029 7943,3034C7932,3038 7930,2994 7930,2787Z" style="fill:rgb(71,68,68);fill-rule:nonzero;"/>
            </g>
            <g transform="matrix(0.028877,0,0,-0.022554,34.042365,199.490485)">
                <path d="M5150,2638C5150,2629 5134,2609 5115,2593C5096,2577 5074,2546 5066,2523C5035,2435 4959,2341 4865,2273C4836,2252 4836,2251 4854,2231C4871,2212 4875,2212 4901,2225C4961,2257 5049,2351 5085,2422C5104,2461 5120,2498 5120,2504C5120,2511 5133,2529 5149,2544C5187,2580 5193,2605 5169,2633C5154,2651 5151,2652 5150,2638Z" style="fill:rgb(71,68,68);fill-rule:nonzero;"/>
            </g>
            <g transform="matrix(0.028877,0,0,-0.022554,34.042365,199.490485)">
                <path d="M10800,2632C10800,2622 10787,2604 10770,2592C10753,2579 10737,2555 10731,2532C10711,2458 10637,2358 10554,2294C10502,2254 10501,2252 10520,2235C10547,2211 10571,2222 10646,2292C10690,2334 10721,2374 10745,2423C10764,2461 10780,2498 10780,2504C10780,2511 10794,2529 10810,2545C10842,2575 10850,2616 10828,2638C10811,2655 10800,2653 10800,2632Z" style="fill:rgb(71,68,68);fill-rule:nonzero;"/>
            </g>
            <g transform="matrix(0.028877,0,0,-0.022554,34.042365,199.490485)">
                <path d="M9071,2543C9070,2514 9063,2473 9055,2452C9040,2416 9041,2411 9059,2370L9079,2326L9085,2355C9089,2372 9096,2401 9101,2420C9114,2473 9112,2511 9091,2555L9072,2595L9071,2543Z" style="fill:rgb(71,68,68);fill-rule:nonzero;"/>
            </g>
            <g transform="matrix(0.028877,0,0,-0.022554,34.042365,199.490485)">
                <path d="M3550,2410C3550,2399 3544,2390 3537,2390C3531,2390 3510,2374 3492,2354C3467,2327 3460,2312 3465,2296C3468,2285 3475,2250 3480,2220C3485,2190 3508,2082 3530,1980C3552,1878 3582,1741 3596,1675C3620,1564 3654,1461 3665,1471C3667,1474 3658,1520 3645,1575C3632,1630 3610,1731 3596,1800C3582,1869 3555,1997 3537,2086C3504,2244 3503,2247 3520,2281C3530,2300 3550,2326 3564,2339C3592,2365 3598,2398 3578,2418C3560,2436 3550,2433 3550,2410Z" style="fill:rgb(71,68,68);fill-rule:nonzero;"/>
            </g>
            <g transform="matrix(0.028877,0,0,-0.022554,34.042365,199.490485)">
                <path d="M13470,2408C13470,2401 13452,2376 13430,2352C13408,2329 13387,2298 13384,2284C13380,2269 13380,2163 13383,2046C13387,1878 13392,1819 13409,1758C13442,1633 13469,1595 13443,1710C13434,1750 13427,1860 13423,1995C13417,2238 13418,2245 13481,2318C13513,2354 13516,2376 13496,2403C13480,2423 13470,2425 13470,2408Z" style="fill:rgb(71,68,68);fill-rule:nonzero;"/>
            </g>
            <g transform="matrix(0.028877,0,0,-0.022554,34.042365,199.490485)">
                <path d="M7280,2390C7280,2376 7266,2349 7250,2330L7220,2296L7220,2050C7220,1851 7223,1795 7236,1757C7245,1731 7257,1707 7263,1703C7270,1699 7271,1703 7265,1716C7251,1745 7246,2188 7260,2232C7266,2252 7282,2283 7296,2300C7324,2332 7324,2358 7296,2395C7281,2415 7281,2414 7280,2390Z" style="fill:rgb(71,68,68);fill-rule:nonzero;"/>
            </g>
            <g transform="matrix(0.028877,0,0,-0.022554,34.042365,199.490485)">
                <path d="M8005,2360C7994,2343 7986,2323 7988,2315C7990,2307 7986,2300 7980,2300C7975,2300 7970,2306 7970,2313C7970,2319 7962,2315 7952,2303C7937,2283 7935,2251 7935,2010C7935,1862 7931,1740 7927,1740C7922,1740 7921,1749 7925,1759C7928,1770 7926,1781 7920,1785C7914,1789 7910,1781 7910,1767C7910,1753 7903,1723 7895,1700C7887,1677 7880,1631 7880,1599C7880,1537 7863,1517 7858,1573L7855,1605L7836,1571C7809,1520 7721,1431 7675,1407C7645,1391 7639,1385 7653,1382C7663,1380 7680,1386 7691,1396C7707,1411 7710,1411 7710,1398C7710,1371 7682,1357 7639,1363C7613,1366 7583,1362 7556,1352C7490,1327 7243,1329 7168,1356C7091,1384 7103,1369 7184,1336C7338,1275 7525,1275 7670,1338C7737,1367 7814,1435 7865,1509C7946,1630 7959,1689 7966,1985C7969,2106 7973,2214 7975,2225C7978,2236 7998,2264 8020,2288C8065,2336 8067,2340 8043,2369L8025,2390L8005,2360Z" style="fill:rgb(71,68,68);fill-rule:nonzero;"/>
            </g>
            <g transform="matrix(0.028877,0,0,-0.022554,34.042365,199.490485)">
                <path d="M12217,2361C12208,2345 12200,2328 12201,2323C12202,2319 12202,2309 12201,2301C12200,2290 12197,2290 12187,2304C12174,2322 12172,2321 12154,2297C12137,2276 12135,2260 12137,2184C12143,2010 12098,1764 12041,1664C12035,1653 12024,1628 12016,1608C11998,1563 11980,1558 11985,1600C11987,1617 11987,1630 11985,1630C11982,1630 11969,1611 11954,1589C11916,1529 11853,1463 11786,1413C11740,1379 11732,1370 11750,1370C11772,1370 11773,1369 11755,1350C11733,1326 11712,1324 11704,1345C11700,1354 11690,1358 11681,1356C11606,1332 11492,1332 11390,1355C11376,1358 11383,1352 11406,1341C11495,1300 11606,1290 11703,1315C11788,1337 11831,1369 11859,1429C11885,1484 11894,1490 11909,1463C11918,1447 11921,1447 11948,1473C11987,1510 12072,1667 12099,1750C12131,1849 12150,1963 12157,2090C12163,2218 12174,2245 12235,2293C12274,2324 12278,2338 12252,2369L12235,2391L12217,2361Z" style="fill:rgb(71,68,68);fill-rule:nonzero;"/>
            </g>
            <g transform="matrix(0.028877,0,0,-0.022554,34.042365,199.490485)">
                <path d="M6657,2357C6649,2344 6644,2321 6647,2304C6651,2278 6650,2277 6637,2293C6629,2302 6618,2310 6613,2310C6592,2310 6570,2260 6572,2218C6575,2138 6557,1859 6549,1871C6545,1879 6537,1867 6530,1839C6495,1703 6443,1593 6380,1520L6330,1462L6350,1416C6370,1368 6387,1351 6370,1395C6362,1417 6366,1425 6406,1462C6458,1510 6515,1606 6541,1692C6570,1784 6599,1973 6603,2097C6607,2216 6606,2213 6673,2288C6704,2323 6709,2334 6700,2350C6684,2380 6673,2382 6657,2357Z" style="fill:rgb(71,68,68);fill-rule:nonzero;"/>
            </g>
            <g transform="matrix(0.028877,0,0,-0.022554,34.042365,199.490485)">
                <path d="M15550,2366C15550,2358 15543,2350 15535,2346C15527,2343 15520,2331 15520,2319C15520,2305 15515,2300 15506,2303C15498,2306 15482,2298 15470,2285C15451,2265 15450,2259 15461,2239C15475,2213 15468,1993 15453,1965C15446,1954 15444,1976 15446,2032L15449,2115L15440,2040C15434,1999 15419,1921 15405,1867C15391,1813 15380,1750 15380,1727C15380,1704 15375,1678 15370,1670C15362,1658 15360,1660 15360,1681C15360,1726 15348,1721 15323,1667C15292,1601 15203,1484 15152,1443C15130,1425 15094,1401 15071,1389C15048,1378 15030,1366 15030,1365C15030,1363 15047,1363 15068,1366C15101,1370 15102,1369 15080,1360C15067,1354 15052,1344 15048,1337C15042,1328 15036,1330 15026,1342C15015,1357 15008,1358 14979,1349C14933,1335 14782,1335 14746,1349C14730,1355 14715,1359 14713,1356C14711,1354 14735,1342 14767,1329C14814,1311 14845,1306 14925,1306C15017,1305 15030,1308 15090,1337C15117.459,1349.967 15161.254,1367.932 15207.767,1419.939C15222.235,1436.116 15253.046,1462.215 15272,1482C15386,1601 15467,1839 15486,2105C15493,2215 15509,2254 15561,2291C15591,2312 15599,2347 15578,2368C15562,2384 15550,2383 15550,2366ZM15330,1590C15330,1579 15326,1570 15320,1570C15315,1570 15310,1579 15310,1590C15310,1601 15315,1610 15320,1610C15326,1610 15330,1601 15330,1590Z" style="fill:rgb(71,68,68);fill-rule:nonzero;"/>
            </g>
            <g transform="matrix(0.028877,0,0,-0.022554,34.042365,199.490485)">
                <path d="M9073,2270C9071,2242 9061,2202 9050,2180C9039,2159 9030,2132 9030,2120C9030,2099 9014,2092 9008,2110C9005,2121 8950,2101 8950,2088C8950,2070 8984,2050 9004,2056C9069,2075 9110,2138 9110,2219C9110,2266 9094,2320 9081,2320C9078,2320 9074,2297 9073,2270Z" style="fill:rgb(71,68,68);fill-rule:nonzero;"/>
            </g>
            <g transform="matrix(0.028877,0,0,-0.022554,34.042365,199.490485)">
                <path d="M8770,2220C8770,2215 8777,2213 8785,2216C8793,2220 8800,2224 8800,2226C8800,2228 8793,2230 8785,2230C8777,2230 8770,2226 8770,2220Z" style="fill:rgb(71,68,68);fill-rule:nonzero;"/>
            </g>
            <g transform="matrix(0.028877,0,0,-0.022554,34.042365,199.490485)">
                <path d="M8747,2193C8743,2190 8741,2171 8741,2151L8742,2115L8750,2145C8754,2162 8757,2098 8757,2000C8756,1840 8756,1834 8750,1935L8744,2045L8742,1893C8740,1751 8749,1690 8770,1690C8774,1690 8778,1796 8779,1925C8781,2111 8778,2164 8767,2180C8759,2191 8750,2197 8747,2193Z" style="fill:rgb(71,68,68);fill-rule:nonzero;"/>
            </g>
            <g transform="matrix(0.028877,0,0,-0.022554,34.042365,199.490485)">
                <path d="M4392,1890C4395,1671 4397,1631 4412,1605C4429,1576 4429,1581 4430,1780C4430,1977 4420,2096 4399,2129C4393,2139 4391,2055 4392,1890Z" style="fill:rgb(71,68,68);fill-rule:nonzero;"/>
            </g>
            <g transform="matrix(0.028877,0,0,-0.022554,34.042365,199.490485)">
                <path d="M10061,1889C10060,1687 10063,1636 10076,1605C10084,1585 10092,1569 10093,1571C10094,1573 10094,1676 10092,1800C10090,1957 10086,2020 10079,2010C10071,1999 10070,2007 10073,2040C10075,2065 10074,2096 10070,2110C10065,2124 10062,2024 10061,1889Z" style="fill:rgb(71,68,68);fill-rule:nonzero;"/>
            </g>
            <g transform="matrix(0.028877,0,0,-0.022554,34.042365,199.490485)">
                <path d="M10601,2085C10612,2061 10634,1990 10649,1927C10679,1812 10737,1646 10772,1577C10805,1510 10801,1542 10765,1626C10747,1669 10713,1774 10691,1857C10669,1941 10637,2037 10620,2070C10585,2140 10572,2150 10601,2085Z" style="fill:rgb(71,68,68);fill-rule:nonzero;"/>
            </g>
            <g transform="matrix(0.028877,0,0,-0.022554,34.042365,199.490485)">
                <path d="M4930,2108C4930,2105 4938,2082 4948,2058C4959,2034 4977,1972 4989,1920C5021,1786 5137,1480 5155,1480C5157,1480 5150,1501 5139,1528C5105,1603 5061,1737 5034,1845C5008,1948 4967,2060 4944,2095C4936,2106 4930,2112 4930,2108Z" style="fill:rgb(71,68,68);fill-rule:nonzero;"/>
            </g>
            <g transform="matrix(0.028877,0,0,-0.022554,34.042365,199.490485)">
                <path d="M12082,1893C12069,1834 12043,1752 12025,1713C12006,1673 11996,1640 12001,1640C12006,1640 12017,1657 12026,1678C12035,1698 12048,1729 12056,1745C12074,1784 12112,1958 12108,1983C12106,1993 12094,1953 12082,1893Z" style="fill:rgb(71,68,68);fill-rule:nonzero;"/>
            </g>
            <g transform="matrix(0.028877,0,0,-0.022554,34.042365,199.490485)">
                <path d="M9394,1869C9397,1855 9403,1803 9406,1755C9411,1689 9410,1669 9402,1674C9395,1678 9390,1675 9390,1665C9390,1657 9379,1628 9366,1602C9348,1566 9344,1550 9352,1536C9358,1526 9360,1490 9356,1451C9353,1415 9350,1381 9349,1375C9349,1370 9352,1355 9355,1343C9360,1329 9358,1320 9352,1320C9346,1320 9339,1329 9335,1340C9329,1360 9329,1360 9307,1340C9296,1329 9282,1320 9277,1320C9271,1320 9275,1311 9285,1300C9317,1265 9347,1274 9371,1326C9392,1373 9393,1432 9375,1504C9369,1525 9370,1531 9379,1526C9386,1521 9398,1536 9413,1567C9431,1606 9435,1633 9435,1715C9435,1801 9432,1821 9412,1855C9394,1887 9390,1889 9394,1869Z" style="fill:rgb(71,68,68);fill-rule:nonzero;"/>
            </g>
            <g transform="matrix(0.028877,0,0,-0.022554,34.042365,199.490485)">
                <path d="M2977,1820C2958,1804 2932,1769 2919,1743C2906,1717 2884,1683 2871,1668C2851,1645 2849,1638 2860,1625C2887,1592 2921,1612 2955,1680C2964,1699 2987,1731 3005,1750C3032,1779 3037,1791 3033,1818C3027,1858 3020,1858 2977,1820Z" style="fill:rgb(71,68,68);fill-rule:nonzero;"/>
            </g>
            <g transform="matrix(0.028877,0,0,-0.022554,34.042365,199.490485)">
                <path d="M14160,1824C14160,1821 14164,1811 14169,1802C14185,1772 14193.915,1652.658 14190.749,1591.825C14187.974,1538.531 14169.125,1483.304 14150,1437C14131.734,1392.776 14112,1342 14076,1314C14044,1288 14043,1287 14062,1268C14079,1251 14083,1251 14109,1264C14163,1293 14203,1387 14220,1530C14233,1630 14221,1729 14189,1791C14171,1826 14160,1839 14160,1824Z" style="fill:rgb(71,68,68);fill-rule:nonzero;"/>
            </g>
            <g transform="matrix(0.028877,0,0,-0.022554,34.042365,199.490485)">
                <path d="M2595,1718C2549,1508 2550,1520 2568,1476L2584,1435L2591,1465C2594,1482 2607,1545 2619,1605C2631,1666 2643,1726 2646,1738C2649,1753 2647,1759 2640,1755C2635,1752 2630,1739 2630,1727C2630,1715 2625,1698 2620,1690C2612,1680 2611,1694 2616,1738C2620,1772 2621,1800 2618,1800C2615,1800 2605,1763 2595,1718Z" style="fill:rgb(71,68,68);fill-rule:nonzero;"/>
            </g>
            <g transform="matrix(0.028877,0,0,-0.022554,34.042365,199.490485)">
                <path d="M15895,1770C15900,1762 15907,1734 15910,1708C15914,1670 15918,1662 15929,1670C15941,1677 15942,1685 15932,1718C15925,1740 15912,1764 15903,1771C15888,1783 15887,1783 15895,1770Z" style="fill:rgb(71,68,68);fill-rule:nonzero;"/>
            </g>
            <g transform="matrix(0.028877,0,0,-0.022554,34.042365,199.490485)">
                <path d="M15886,1602C15847,1526 15746,1471 15671,1485C15638,1491 15637,1490 15655,1477C15666,1469 15689,1458 15705,1453C15732,1444 15741,1448 15805,1494C15844,1522 15887,1553 15903,1563C15934,1583 15937,1595 15915,1616C15903,1629 15899,1627 15886,1602Z" style="fill:rgb(71,68,68);fill-rule:nonzero;"/>
            </g>
            <g transform="matrix(0.028877,0,0,-0.022554,34.042365,199.490485)">
                <path d="M4500,1431C4489,1409 4476,1389 4470,1385C4465,1382 4460,1370 4460,1359C4460,1340 4449,1334 4437,1346C4433,1350 4391,1354 4343,1355C4291,1356 4241,1363 4220,1371C4190,1384 4181,1384 4140,1371C4115,1362 4094,1354 4092,1354C4085,1350 4125,1310 4136,1310C4143,1310 4169,1319 4195,1330L4242,1350L4307,1330C4399,1302 4461,1303 4498,1335C4526,1358 4560,1415 4560,1439C4560,1445 4551,1454 4540,1460C4523,1469 4518,1465 4500,1431ZM4510,1370C4510,1365 4501,1360 4490,1360C4479,1360 4470,1365 4470,1370C4470,1376 4479,1380 4490,1380C4501,1380 4510,1376 4510,1370Z" style="fill:rgb(71,68,68);fill-rule:nonzero;"/>
            </g>
            <g transform="matrix(0.028877,0,0,-0.022554,34.042365,199.490485)">
                <path d="M10161,1425C10150,1406 10143,1383 10146,1375C10150,1366 10146,1360 10137,1360C10128,1360 10116,1352 10111,1343C10102,1328 10099,1327 10091,1339C10084,1349 10064,1353 10017,1351C9968,1349 9939,1354 9901,1370C9852,1392 9850,1392 9798,1375C9732,1353 9733,1354 9755,1330C9774,1309 9786,1309 9873,1337C9916,1350 9924,1350 9967,1334C9994,1323 10041,1316 10082,1316C10148,1315 10153,1317 10181,1347C10212,1382 10226,1421 10216,1445C10207,1470 10183,1462 10161,1425Z" style="fill:rgb(71,68,68);fill-rule:nonzero;"/>
            </g>
            <g transform="matrix(0.028877,0,0,-0.022554,34.042365,199.490485)">
                <path d="M8504,1392C8487,1383 8475,1370 8477,1364C8479,1358 8469,1348 8455,1342C8421,1326 8409,1327 8416,1343C8420,1353 8406,1356 8360,1356C8301,1355 8300,1355 8321,1338C8342,1321 8372,1316 8455,1320C8493,1321 8600,1366 8600,1380C8600,1387 8554,1410 8542,1410C8538,1409 8521,1401 8504,1392Z" style="fill:rgb(71,68,68);fill-rule:nonzero;"/>
            </g>
            <g transform="matrix(0.028877,0,0,-0.022554,34.042365,199.490485)">
                <path d="M9079,1383C9068,1380 9064,1372 9067,1359C9072,1342 9069,1339 9049,1342C9036,1344 9026,1351 9028,1358C9029,1367 9024,1370 9013,1366C8898,1333 8768,1328 8685,1354C8625,1373 8614,1367 8666,1345C8790,1293 8964,1286 9084,1329C9117,1341 9157,1350 9174,1351L9205,1352L9175,1364C9136,1381 9099,1388 9079,1383Z" style="fill:rgb(71,68,68);fill-rule:nonzero;"/>
            </g>
            <g transform="matrix(0.028877,0,0,-0.022554,34.042365,199.490485)">
                <path d="M9041,1364C9041,1353 9044,1350 9047,1358C9050,1365 9049,1374 9046,1377C9043,1381 9040,1375 9041,1364Z" style="fill:rgb(71,68,68);fill-rule:nonzero;"/>
            </g>
            <g transform="matrix(0.028877,0,0,-0.022554,34.042365,199.490485)">
                <path d="M5715,1360C5730,1336 5897,1280 5955,1280C5975,1280 5981,1284 5978,1298C5975,1312 5960,1316 5888,1322C5836,1326 5784,1336 5756,1349C5730,1360 5712,1365 5715,1360Z" style="fill:rgb(71,68,68);fill-rule:nonzero;"/>
            </g>
            <g transform="matrix(0.028877,0,0,-0.022554,34.042365,199.490485)">
                <path d="M3950,1348C3950,1338 3985,1320 4004,1320C4037,1320 4020,1348 3985,1352C3966,1354 3950,1353 3950,1348Z" style="fill:rgb(71,68,68);fill-rule:nonzero;"/>
            </g>
            <g transform="matrix(0.028877,0,0,-0.022554,34.042365,199.490485)">
                <path d="M9620,1355C9620,1345 9661,1330 9672,1336C9680,1341 9677,1346 9664,1351C9642,1360 9620,1362 9620,1355Z" style="fill:rgb(71,68,68);fill-rule:nonzero;"/>
            </g>
            <g transform="matrix(0.028877,0,0,-0.022554,34.042365,199.490485)">
                <path d="M3780,1299C3773,1283 3758,1263 3746,1255L3726,1240L3749,1240C3762,1240 3770,1235 3768,1228C3765,1220 3748,1217 3723,1218C3696,1220 3677,1216 3667,1205C3653,1192 3639,1191 3567,1199C3521,1204 3460,1218 3430,1229L3376,1250L3292,1224C3234,1206 3192,1199 3154,1202L3100,1205L3126,1180C3148,1158 3158,1155 3218,1157C3255,1158 3312,1168 3344,1179C3419,1205 3442,1205 3510,1178C3590,1147 3702,1147 3752,1178C3799,1207 3834,1262 3826,1294C3817,1331 3794,1333 3780,1299Z" style="fill:rgb(71,68,68);fill-rule:nonzero;"/>
            </g>
            <g transform="matrix(0.028877,0,0,-0.022554,34.042365,199.490485)">
                <path d="M13912,1299C13861,1262 13850,1254 13819,1242C13787,1230 13736.83,1205.842 13700,1200C13685.247,1197.66 13619.988,1186.793 13545.052,1191.911C13469.158,1197.094 13383.337,1218.389 13330,1236C13322,1239 13326,1234 13340,1226C13354,1218 13401,1198 13445,1183C13490.596,1167.801 13519.487,1160.716 13560.36,1157.788C13578.65,1156.478 13599.34,1156 13625,1156C13751,1156 13830,1177 13933,1237C14006,1280 13980,1307 13976,1315C13969,1336 13962,1334 13912,1299Z" style="fill:rgb(71,68,68);fill-rule:nonzero;"/>
            </g>
            <g transform="matrix(0.028877,0,0,-0.022554,34.042365,199.490485)">
                <path d="M2655,1280C2651,1268 2640,1252 2630,1242C2616,1229 2613,1217 2618,1192L2625,1158L2653,1180C2694,1213 2704,1236 2690,1271C2675,1305 2664,1308 2655,1280Z" style="fill:rgb(71,68,68);fill-rule:nonzero;"/>
            </g>
            <g transform="matrix(0.028877,0,0,-0.022554,34.042365,199.490485)">
                <path d="M2280,1235C2266,1227 2238,1216 2218,1210C2197,1204 2180,1195 2180,1189C2180,1184 2169,1182 2155,1185C2141,1188 2118,1192 2103,1195L2075,1200L2103,1175C2141,1141 2202,1142 2301,1177L2377,1203L2457,1180C2508,1166 2547,1160 2564,1164C2615,1177 2586,1195 2504,1201C2461,1205 2400,1217 2370,1229C2306,1254 2312,1253 2280,1235Z" style="fill:rgb(71,68,68);fill-rule:nonzero;"/>
            </g>
            <g transform="matrix(0.028877,0,0,-0.022554,34.042365,199.490485)">
                <path d="M6856,1151C6860,1124 6856,1100 6842,1067C6824,1026 6823,1021 6838,1006C6847,998 6851,987 6847,983C6843,979 6832,983 6824,992C6809,1006 6805,1004 6774,970C6755,949 6740,927 6740,921C6740,908 6723,906 6716,919C6712,924 6688,922 6657,914C6579,893 6416,896 6346,919C6263,946 6293,924 6381,893C6476,859 6630,850 6711,873C6851,914 6924,1039 6876,1155C6856,1201 6848,1199 6856,1151Z" style="fill:rgb(71,68,68);fill-rule:nonzero;"/>
            </g>
            <g transform="matrix(0.028877,0,0,-0.022554,34.042365,199.490485)">
                <path d="M5683,1116C5686,1100 5681,1068 5673,1044C5662,1012 5661,996 5670,981C5679,964 5678,961 5665,966C5656,970 5634,959 5613,941C5592,923 5570,906 5564,901C5558,896 5522,885 5484,875C5397,853 5289,860 5190,893C5152,906 5120,915 5120,913C5120,901 5259,849 5330,834C5488,802 5624,838 5683,927C5727,993 5732,1079 5694,1126C5679,1144 5679,1144 5683,1116Z" style="fill:rgb(71,68,68);fill-rule:nonzero;"/>
            </g>
        </g>
        <g id="Center-Glyph-B" serif:id="Center Glyph B">
            <g transform="matrix(0.028877,0,0,-0.022554,34.042365,199.490485)">
                <path d="M9160,520C9125,483 9116,447 9130,404C9142,367 9192,320 9219,320C9246,320 9279,348 9301,391C9318,425 9319,437 9310,465C9296,507 9247,550 9213,550C9198,550 9177,538 9160,520Z" style="fill:rgb(71,68,68);fill-rule:nonzero;"/>
            </g>
            <g transform="matrix(0.028877,0,0,-0.022554,34.042365,199.490485)">
                <path d="M8930,505C8832,486 8622,470 8365,464C8239,461 8117,457 8095,455C8073,453 7993,451 7918,451C7842,450 7780,446 7780,441C7780,431 7895,424 8376,410C8686,400 8783,393 8982,364C9026,358 9030,359 9040,381C9045,394 9055,413 9062,422C9072,436 9070,446 9053,477C9028,521 9019,523 8930,505Z" style="fill:rgb(71,68,68);fill-rule:nonzero;"/>
            </g>
            <g transform="matrix(0.028877,0,0,-0.022554,34.042365,199.490485)">
                <path d="M9382,480L9359,440L9385,396L9410,353L9473,365C9588,389 9763,401 10215,415C10740,432 10670,428 10670,439C10670,443 10520,450 10338,454C9955,462 9620,483 9505,505C9461,513 9421,520 9415,520C9410,520 9395,502 9382,480Z" style="fill:rgb(71,68,68);fill-rule:nonzero;"/>
            </g>
        </g>
        <g id="Center-Glyph-Top-" serif:id="Center Glyph Top ">
            <g transform="matrix(0.028877,0,0,-0.022554,34.042365,199.490485)">
                <path d="M9171,4005C9106,3950 9113,3854 9186,3809L9220,3788L9253,3809C9272,3820 9295,3847 9304,3869C9319,3902 9320,3914 9310,3944C9297,3983 9248,4030 9220,4030C9210,4030 9188,4019 9171,4005Z" style="fill:rgb(71,68,68);fill-rule:nonzero;"/>
            </g>
            <g transform="matrix(0.028877,0,0,-0.022554,34.042365,199.490485)">
                <path d="M8915,3979C8782,3955 8549,3942 8128,3934C7936,3930 7780,3924 7780,3920C7780,3912 7924,3904 8245,3895C8633,3883 8891,3863 9007,3834C9023,3829 9032,3833 9037,3846C9040,3857 9051,3876 9061,3890C9077,3914 9077,3917 9053,3958C9039,3981 9025,3999 9021,3999C9018,3998 8970,3989 8915,3979Z" style="fill:rgb(71,68,68);fill-rule:nonzero;"/>
            </g>
            <g transform="matrix(0.028877,0,0,-0.022554,34.042365,199.490485)">
                <path d="M9388,3959L9362,3916L9388,3875C9403,3853 9415,3834 9415,3833C9415,3832 9452,3837 9495,3845C9641,3870 9762,3879 10085,3889C10530,3904 10670,3911 10670,3920C10670,3924 10518,3930 10333,3934C10147,3938 9916,3945 9820,3951C9662,3960 9460,3983 9426,3996C9418,3999 9403,3984 9388,3959Z" style="fill:rgb(71,68,68);fill-rule:nonzero;"/>
            </g>
        </g>
        <g id="Corner-Glyph-TL" serif:id="Corner Glyph TL">
            <g transform="matrix(0.028877,0,0,-0.022554,34.042365,199.490485)">
                <path d="M1048,3981C1035,3970 1016,3942 1006,3918C996,3894 982,3860 974,3842C957,3801 968,3795 1038,3805C1130,3818 1195,3890 1169,3951C1148,4002 1093,4016 1048,3981Z" style="fill:rgb(71,68,68);fill-rule:nonzero;"/>
            </g>
            <g transform="matrix(0.028877,0,0,-0.022554,34.042365,199.490485)">
                <path d="M860,3755C839,3729 836,3656 855,3627C876,3594 931,3574 959,3589C1014,3619 1026,3689 984,3739C963,3765 951,3770 915,3770C889,3770 868,3764 860,3755Z" style="fill:rgb(71,68,68);fill-rule:nonzero;"/>
            </g>
            <g transform="matrix(0.028877,0,0,-0.022554,34.042365,199.490485)">
                <path d="M767,3636C758,3629 731,3620 708,3616C608,3600 563,3485 641,3444C711,3409 784,3482 805,3608C812,3654 801,3662 767,3636Z" style="fill:rgb(71,68,68);fill-rule:nonzero;"/>
            </g>
        </g>
        <g id="Corner-Glyph-TR" serif:id="Corner Glyph TR">
            <g transform="matrix(0.028877,0,0,-0.022554,34.042365,199.490485)">
                <path d="M17267,3980C17233,3953 17230,3896 17260,3857C17283,3828 17357,3800 17411,3800C17448,3800 17469,3813 17451,3825C17445,3828 17431,3857 17419,3890C17384,3987 17322,4023 17267,3980Z" style="fill:rgb(71,68,68);fill-rule:nonzero;"/>
            </g>
            <g transform="matrix(0.028877,0,0,-0.022554,34.042365,199.490485)">
                <path d="M17431,3744C17393,3712 17382,3664 17404,3622C17431,3571 17483,3565 17532,3609C17559,3633 17564,3645 17563,3677C17563,3698 17557,3727 17551,3743C17542,3766 17535,3770 17501,3770C17473,3770 17453,3762 17431,3744Z" style="fill:rgb(71,68,68);fill-rule:nonzero;"/>
            </g>
            <g transform="matrix(0.028877,0,0,-0.022554,34.042365,199.490485)">
                <path d="M17602,3596C17610,3500 17665,3430 17732,3430C17765,3430 17800,3469 17800,3507C17800,3551 17767,3586 17702,3610C17671,3622 17634,3638 17621,3647L17597,3662L17602,3596Z" style="fill:rgb(71,68,68);fill-rule:nonzero;"/>
            </g>
        </g>
        <g id="Corner-Glyph-BL" serif:id="Corner Glyph BL">
            <g transform="matrix(0.000252,-0.022553,-0.028876,-0.000197,167.681342,204.644551)">
                <path d="M1048,3981C1035,3970 1016,3942 1006,3918C996,3894 982,3860 974,3842C957,3801 968,3795 1038,3805C1130,3818 1195,3890 1169,3951C1148,4002 1093,4016 1048,3981Z" style="fill:rgb(71,68,68);fill-rule:nonzero;"/>
            </g>
            <g transform="matrix(0.000252,-0.022553,-0.028876,-0.000197,167.681342,204.644551)">
                <path d="M860,3755C839,3729 836,3656 855,3627C876,3594 931,3574 959,3589C1014,3619 1026,3689 984,3739C963,3765 951,3770 915,3770C889,3770 868,3764 860,3755Z" style="fill:rgb(71,68,68);fill-rule:nonzero;"/>
            </g>
            <g transform="matrix(0.000252,-0.022553,-0.028876,-0.000197,167.681342,204.644551)">
                <path d="M767,3636C758,3629 731,3620 708,3616C608,3600 563,3485 641,3444C711,3409 784,3482 805,3608C812,3654 801,3662 767,3636Z" style="fill:rgb(71,68,68);fill-rule:nonzero;"/>
            </g>
        </g>
        <g id="Corner-Glyph-BR" serif:id="Corner Glyph BR">
            <g transform="matrix(-0.028836,0.001198,0.001533,0.022522,559.98297,99.201402)">
                <path d="M1048,3981C1035,3970 1016,3942 1006,3918C996,3894 982,3860 974,3842C957,3801 968,3795 1038,3805C1130,3818 1195,3890 1169,3951C1148,4002 1093,4016 1048,3981Z" style="fill:rgb(71,68,68);fill-rule:nonzero;"/>
            </g>
            <g transform="matrix(-0.028836,0.001198,0.001533,0.022522,559.98297,99.201402)">
                <path d="M860,3755C839,3729 836,3656 855,3627C876,3594 931,3574 959,3589C1014,3619 1026,3689 984,3739C963,3765 951,3770 915,3770C889,3770 868,3764 860,3755Z" style="fill:rgb(71,68,68);fill-rule:nonzero;"/>
            </g>
            <g transform="matrix(-0.028836,0.001198,0.001533,0.022522,559.98297,99.201402)">
                <path d="M767,3636C758,3629 731,3620 708,3616C608,3600 563,3485 641,3444C711,3409 784,3482 805,3608C812,3654 801,3662 767,3636Z" style="fill:rgb(71,68,68);fill-rule:nonzero;"/>
            </g>
        </g>
    </g>
</svg>
